export fontJSON = {"glyphs":{"0":{"ha":713,"x_min":0,"x_max":0,"o":"m 364 918 b 50 449 181 918 50 751 b 349 -15 53 150 172 -15 b 663 461 549 -15 663 154 b 364 918 663 749 554 918 z m 357 824 b 540 456 483 824 540 678 b 356 79 540 225 481 79 b 172 447 244 79 172 213 b 357 824 172 693 250 824 z "},"1":{"ha":713,"x_min":0,"x_max":0,"o":"m 328 0 l 446 0 l 446 903 l 342 903 l 144 797 l 168 704 l 325 789 l 328 789 z "},"2":{"ha":713,"x_min":0,"x_max":0,"o":"m 639 0 l 639 101 l 233 101 l 233 104 l 306 171 b 617 656 496 354 617 489 b 340 918 617 785 535 918 b 85 826 236 918 147 879 l 124 740 b 315 817 165 775 233 817 b 494 640 450 817 494 732 b 158 168 493 504 389 388 l 63 75 l 63 0 z "},"3":{"ha":713,"x_min":0,"x_max":0,"o":"m 58 46 b 293 -15 103 17 192 -15 b 622 256 510 -15 622 111 b 421 488 622 382 532 465 l 421 490 b 588 703 532 531 588 610 b 329 918 588 813 507 918 b 93 849 232 918 140 883 l 125 760 b 306 819 164 788 233 819 b 464 683 418 819 464 756 b 263 531 464 576 351 531 l 194 531 l 194 439 l 263 439 b 496 258 381 439 494 385 b 292 83 497 183 449 83 b 92 140 207 83 126 118 z "},"4":{"ha":713,"x_min":0,"x_max":0,"o":"m 556 0 l 556 246 l 682 246 l 682 342 l 556 342 l 556 903 l 424 903 l 21 326 l 21 246 l 440 246 l 440 0 z m 144 342 l 144 344 l 365 651 b 440 785 390 693 413 732 l 444 785 b 440 643 442 738 440 690 l 440 342 z "},"5":{"ha":713,"x_min":0,"x_max":0,"o":"m 601 903 l 169 903 l 111 469 b 236 479 144 474 185 479 b 496 279 417 479 494 396 b 282 83 496 158 397 83 b 89 133 200 83 126 111 l 58 40 b 283 -15 101 13 185 -15 b 619 293 479 -15 619 117 b 490 525 619 407 561 485 b 296 574 435 558 365 574 b 222 568 263 574 243 571 l 257 800 l 601 800 z "},"6":{"ha":713,"x_min":0,"x_max":0,"o":"m 578 917 b 489 910 556 917 525 915 b 200 776 375 896 275 850 b 47 369 111 688 47 547 b 367 -15 47 135 174 -15 b 667 303 554 -15 667 138 b 394 594 667 479 554 594 b 176 490 294 594 219 547 l 172 490 b 486 811 193 639 294 779 b 578 817 521 817 553 818 z m 367 79 b 168 338 239 79 171 189 b 182 392 168 360 174 378 b 357 503 215 457 283 503 b 543 296 469 503 543 425 b 368 79 543 167 472 79 z "},"7":{"ha":713,"x_min":0,"x_max":0,"o":"m 79 903 l 79 801 l 521 801 l 521 799 l 129 0 l 256 0 l 649 822 l 649 903 z "},"8":{"ha":713,"x_min":0,"x_max":0,"o":"m 231 471 b 51 229 119 424 51 343 b 354 -15 51 97 165 -15 b 661 247 526 -15 661 90 b 479 481 661 357 592 436 l 479 485 b 628 696 590 538 628 619 b 365 918 628 808 540 918 b 86 678 207 918 86 821 b 229 475 86 600 129 522 z m 357 74 b 176 246 242 74 172 154 b 339 432 176 332 233 401 b 538 235 461 397 538 344 b 357 74 538 143 467 74 z m 358 831 b 511 683 468 831 511 756 b 374 519 511 601 451 546 b 201 686 269 547 201 596 b 358 831 201 764 257 831 z "},"9":{"ha":713,"x_min":0,"x_max":0,"o":"m 133 -14 b 246 -7 163 -15 201 -14 b 508 114 343 4 439 46 b 664 538 597 200 664 339 b 365 918 664 768 550 918 b 57 597 181 918 57 768 b 324 321 57 443 161 321 b 536 418 414 321 486 357 l 540 418 b 421 178 524 311 481 232 b 232 90 369 129 303 100 b 133 86 190 86 160 83 z m 356 825 b 540 553 483 825 540 707 b 529 508 540 533 536 519 b 351 414 497 454 433 414 b 178 606 246 414 178 493 b 354 825 178 733 251 825 z "}," ":{"ha":294,"x_min":0,"x_max":0,"o":""},"!":{"ha":319,"x_min":0,"x_max":0,"o":"m 207 269 l 226 936 l 93 936 l 113 269 z m 160 -15 b 242 71 210 -15 242 22 b 160 157 242 121 210 157 b 78 71 113 157 78 121 b 158 -15 78 22 111 -15 z "},"\"":{"ha":468,"x_min":0,"x_max":0,"o":"m 71 961 l 93 628 l 168 628 l 192 961 z m 278 961 l 301 628 l 375 628 l 399 961 z "},"#":{"ha":690,"x_min":0,"x_max":0,"o":"m 261 354 l 288 556 l 432 556 l 406 354 z m 213 0 l 249 272 l 393 272 l 357 0 l 440 0 l 476 272 l 608 272 l 608 354 l 489 354 l 514 556 l 640 556 l 640 638 l 526 638 l 561 903 l 479 903 l 443 638 l 299 638 l 333 903 l 253 903 l 217 638 l 85 638 l 85 556 l 204 556 l 178 354 l 51 354 l 51 272 l 165 272 l 129 0 z "},"$":{"ha":713,"x_min":0,"x_max":0,"o":"m 390 -119 l 390 25 b 610 261 533 49 610 151 b 394 515 610 385 538 457 b 222 674 274 565 222 601 b 369 793 222 729 263 793 b 544 746 458 793 515 763 l 579 838 b 399 886 539 861 482 883 l 399 1021 l 313 1021 l 313 881 b 103 657 185 860 103 772 b 332 417 103 536 190 472 b 489 251 435 375 489 328 b 324 115 489 172 422 115 b 124 175 246 115 174 142 l 90 82 b 303 21 139 47 222 22 l 303 -119 z "},"%":{"ha":1100,"x_min":0,"x_max":0,"o":"m 260 918 b 42 636 140 918 42 817 b 253 364 43 456 140 364 b 469 649 369 364 469 458 b 261 918 469 821 386 918 z m 256 844 b 372 643 340 844 372 753 b 256 438 372 524 336 438 b 139 640 179 438 136 526 b 254 844 139 754 179 844 z m 321 -17 l 853 919 l 775 919 l 244 -17 z m 849 544 b 631 261 729 544 631 443 b 842 -10 632 81 729 -10 b 1057 275 957 -10 1057 85 b 850 544 1057 447 975 544 z m 844 471 b 961 269 929 471 961 379 b 844 64 961 150 925 64 b 726 267 769 64 725 151 b 843 471 726 381 768 471 z "},"&":{"ha":840,"x_min":0,"x_max":0,"o":"m 836 0 b 682 165 781 60 732 113 b 817 511 751 247 792 364 l 706 511 b 615 238 688 393 658 303 b 388 499 556 304 467 407 l 388 503 b 593 753 536 576 593 654 b 386 951 593 874 503 951 b 149 721 231 951 149 835 b 226 525 149 654 178 586 l 226 521 b 43 247 119 463 43 375 b 331 -15 43 107 149 -15 b 604 92 433 -15 524 17 b 692 0 640 53 665 26 z m 351 76 b 160 265 239 76 160 158 b 281 456 160 364 231 424 b 544 161 385 336 489 222 b 353 76 500 113 432 76 z m 378 868 b 486 747 454 868 486 804 b 331 564 486 668 425 618 b 260 732 290 614 260 665 b 376 868 260 804 300 868 z "},"’":{"ha":288,"x_min":0,"x_max":0,"o":"m 129 947 b 47 624 114 849 78 704 l 125 632 b 256 961 164 696 224 846 z "},"(":{"ha":394,"x_min":0,"x_max":0,"o":"m 271 964 b 89 396 183 847 90 669 b 271 -168 89 125 183 -53 l 367 -168 b 192 396 268 -29 192 149 b 367 964 192 647 265 828 z "},")":{"ha":394,"x_min":0,"x_max":0,"o":"m 122 -168 b 304 399 211 -50 304 126 b 122 964 304 672 211 850 l 28 964 b 203 400 128 826 203 649 b 28 -168 203 150 126 -31 z "},"*":{"ha":576,"x_min":0,"x_max":0,"o":"m 374 951 l 289 757 l 286 757 l 200 950 l 115 901 l 246 732 l 246 729 l 42 756 l 42 661 l 247 688 l 247 685 l 115 515 l 194 465 l 285 661 l 288 661 l 371 467 l 458 517 l 325 683 l 325 686 l 535 661 l 535 756 l 325 728 l 325 731 l 457 904 z "},"+":{"ha":828,"x_min":0,"x_max":0,"o":"m 369 739 l 369 413 l 56 413 l 56 329 l 369 329 l 369 0 l 458 0 l 458 329 l 772 329 l 772 413 l 458 413 l 458 739 z "},",":{"ha":288,"x_min":0,"x_max":0,"o":"m 110 -162 b 242 175 149 -97 210 57 l 106 161 b 24 -171 90 60 53 -89 z "},"-":{"ha":426,"x_min":0,"x_max":0,"o":"m 42 421 l 42 331 l 385 331 l 385 421 z "},".":{"ha":288,"x_min":0,"x_max":0,"o":"m 154 -15 b 238 72 206 -15 238 22 b 156 160 238 124 204 160 b 72 72 107 160 72 124 b 153 -15 72 22 106 -15 z "},"/":{"ha":476,"x_min":0,"x_max":0,"o":"m 92 -56 l 481 951 l 386 951 l -1 -56 z "},":":{"ha":288,"x_min":0,"x_max":0,"o":"m 154 475 b 238 561 206 475 238 513 b 156 650 236 613 204 650 b 72 561 107 650 72 613 b 153 475 72 513 106 475 z m 154 -15 b 238 71 206 -15 238 22 b 156 158 236 122 204 158 b 72 71 107 158 72 122 b 153 -15 72 22 106 -15 z "},";":{"ha":288,"x_min":0,"x_max":0,"o":"m 108 -162 b 242 175 147 -97 208 57 l 107 161 b 24 -171 92 60 54 -89 z m 165 475 b 247 561 215 475 247 513 b 165 650 247 613 215 650 b 83 561 118 650 83 613 b 164 475 83 513 117 475 z "},"<":{"ha":828,"x_min":0,"x_max":0,"o":"m 92 332 l 736 0 l 736 96 l 193 368 l 193 371 l 736 643 l 736 739 l 92 407 z "},"=":{"ha":828,"x_min":0,"x_max":0,"o":"m 772 468 l 772 551 l 56 551 l 56 468 z m 772 196 l 772 279 l 56 279 l 56 196 z "},">":{"ha":828,"x_min":0,"x_max":0,"o":"m 736 408 l 92 739 l 92 643 l 639 371 l 639 368 l 92 96 l 92 0 l 736 331 z "},"?":{"ha":564,"x_min":0,"x_max":0,"o":"m 304 267 l 303 301 b 382 507 299 372 321 435 b 501 749 449 585 501 654 b 269 953 501 854 429 953 b 71 897 196 953 118 931 l 104 810 b 244 853 139 836 194 853 b 376 733 332 851 376 804 b 279 542 376 671 342 617 b 193 303 210 460 185 376 l 196 267 z m 247 -15 b 331 71 299 -15 331 22 b 249 158 331 122 297 158 b 165 71 200 158 165 122 b 246 -15 165 22 199 -15 z "},"@":{"ha":1024,"x_min":0,"x_max":0,"o":"m 622 354 b 453 165 607 268 533 165 b 361 271 392 165 361 210 b 582 521 361 406 460 521 b 651 511 614 521 638 515 z m 706 -31 b 496 -79 649 -62 575 -79 b 139 297 290 -79 139 65 b 556 760 139 579 329 760 b 892 413 771 760 892 614 b 742 158 892 251 813 157 b 700 314 696 160 679 208 l 747 565 b 599 594 711 582 658 594 b 269 265 406 594 269 438 b 419 90 269 156 339 90 b 615 213 503 90 567 131 l 621 213 b 724 90 617 128 668 90 b 971 421 854 90 971 213 b 567 824 971 653 808 824 b 60 289 258 824 60 575 b 481 -146 60 21 253 -146 b 728 -90 574 -146 651 -131 z "},"A":{"ha":850,"x_min":0,"x_max":0,"o":"m 589 294 l 689 0 l 818 0 l 499 936 l 353 936 l 35 0 l 160 0 l 257 294 z m 282 389 l 374 660 b 421 829 392 717 407 774 l 424 829 b 472 658 438 775 451 719 l 564 389 z "},"B":{"ha":753,"x_min":0,"x_max":0,"o":"m 106 3 b 293 -8 146 -3 210 -8 b 617 79 446 -8 551 19 b 696 267 664 125 696 186 b 503 501 696 406 592 479 l 503 504 b 661 710 601 540 661 619 b 583 875 661 783 632 839 b 326 943 525 922 447 943 b 106 924 242 943 158 935 z m 226 842 b 333 850 246 846 278 850 b 539 697 456 850 539 807 b 336 540 539 607 464 540 l 226 540 z m 226 449 l 326 449 b 568 268 458 449 568 396 b 328 86 568 132 453 86 b 226 92 285 86 250 88 z "},"C":{"ha":806,"x_min":0,"x_max":0,"o":"m 735 126 b 538 88 686 103 611 88 b 178 464 310 88 178 235 b 543 850 178 710 324 850 b 732 811 621 850 686 833 l 761 910 b 539 951 729 926 656 951 b 50 460 249 951 50 753 b 513 -15 50 153 249 -15 b 760 31 626 -15 715 8 z "},"D":{"ha":925,"x_min":0,"x_max":0,"o":"m 106 3 b 325 -8 167 -4 239 -8 b 739 126 507 -8 651 39 b 874 490 826 213 874 338 b 742 826 874 642 825 750 b 363 943 660 903 536 943 b 106 924 267 943 179 935 z m 226 835 b 368 847 258 842 306 847 b 747 486 624 847 749 707 b 349 89 747 233 607 89 b 226 96 301 89 257 90 z "},"E":{"ha":683,"x_min":0,"x_max":0,"o":"m 590 539 l 226 539 l 226 835 l 611 835 l 611 936 l 106 936 l 106 0 l 632 0 l 632 101 l 226 101 l 226 439 l 590 439 z "},"F":{"ha":676,"x_min":0,"x_max":0,"o":"m 106 0 l 226 0 l 226 424 l 581 424 l 581 524 l 226 524 l 226 835 l 610 835 l 610 936 l 106 936 z "},"G":{"ha":897,"x_min":0,"x_max":0,"o":"m 818 492 l 510 492 l 510 394 l 700 394 l 700 115 b 539 90 672 101 618 90 b 178 468 321 90 178 231 b 554 844 178 703 326 844 b 761 804 649 844 711 826 l 790 903 b 557 946 750 922 665 946 b 50 463 243 946 51 742 b 181 114 50 317 100 192 b 531 -10 272 26 389 -10 b 818 42 657 -10 764 22 z "},"H":{"ha":906,"x_min":0,"x_max":0,"o":"m 106 936 l 106 0 l 226 0 l 226 439 l 679 439 l 679 0 l 801 0 l 801 936 l 679 936 l 679 544 l 226 544 l 226 936 z "},"I":{"ha":332,"x_min":0,"x_max":0,"o":"m 106 936 l 106 0 l 226 0 l 226 936 z "},"J":{"ha":514,"x_min":0,"x_max":0,"o":"m 297 319 b 125 88 297 136 233 88 b 24 106 85 88 49 96 l 6 7 b 135 -15 36 -6 90 -15 b 418 310 296 -15 418 61 l 418 936 l 297 936 z "},"K":{"ha":753,"x_min":0,"x_max":0,"o":"m 106 0 l 226 0 l 226 357 l 315 460 l 624 0 l 767 0 l 401 539 l 740 936 l 590 936 l 304 585 b 231 485 281 554 256 521 l 226 485 l 226 936 l 106 936 z "},"L":{"ha":656,"x_min":0,"x_max":0,"o":"m 106 0 l 626 0 l 626 101 l 226 101 l 226 936 l 106 936 z "},"M":{"ha":1117,"x_min":0,"x_max":0,"o":"m 918 0 l 1036 0 l 978 936 l 824 936 l 657 483 b 558 168 615 365 582 263 l 554 168 b 460 483 531 265 499 368 l 300 936 l 146 936 l 81 0 l 196 0 l 221 401 b 239 815 229 542 236 699 l 242 815 b 350 451 268 704 306 583 l 501 6 l 593 6 l 758 460 b 876 815 806 588 844 706 l 881 815 b 894 411 879 699 888 542 z "},"N":{"ha":914,"x_min":0,"x_max":0,"o":"m 219 0 l 219 400 b 210 786 219 556 217 668 l 214 788 b 389 475 261 686 324 579 l 686 0 l 808 0 l 808 936 l 694 936 l 694 544 b 708 160 694 399 697 285 l 706 158 b 538 463 661 254 607 353 l 238 936 l 106 936 l 106 0 z "},"O":{"ha":957,"x_min":0,"x_max":0,"o":"m 485 951 b 50 460 235 951 50 757 b 471 -15 50 176 224 -15 b 906 478 710 -15 906 156 b 485 951 906 756 740 951 z m 479 853 b 778 472 681 853 778 658 b 478 83 778 260 669 83 b 179 463 288 83 179 263 b 479 853 179 668 279 853 z "},"P":{"ha":739,"x_min":0,"x_max":0,"o":"m 106 0 l 226 0 l 226 375 b 324 367 254 368 288 367 b 610 469 442 367 546 401 b 682 669 657 518 682 585 b 600 865 682 753 651 821 b 338 943 544 915 457 943 b 106 925 240 943 164 935 z m 226 838 b 340 847 247 843 288 847 b 561 664 474 847 561 788 b 326 464 561 535 472 464 b 226 474 286 464 253 467 z "},"Q":{"ha":957,"x_min":0,"x_max":0,"o":"m 913 -36 b 639 24 833 -22 732 0 l 639 29 b 906 478 794 83 906 238 b 486 951 906 754 740 951 b 50 458 233 951 50 758 b 463 -15 50 157 240 -7 b 519 -29 481 -15 500 -22 b 878 -137 628 -67 751 -104 z m 476 83 b 179 461 288 83 178 263 b 482 853 178 664 278 853 b 778 472 681 853 778 660 b 478 83 778 258 669 83 z "},"R":{"ha":747,"x_min":0,"x_max":0,"o":"m 106 0 l 226 0 l 226 406 l 340 406 b 528 224 450 401 500 353 b 590 0 554 107 575 28 l 715 0 b 643 257 696 36 674 126 b 506 446 621 354 578 421 l 506 450 b 682 689 604 483 682 565 b 608 867 682 761 656 825 b 338 943 550 919 467 943 b 106 924 254 943 167 936 z m 226 839 b 346 850 246 844 288 850 b 561 675 474 849 561 796 b 350 497 561 568 479 497 l 226 497 z "},"S":{"ha":685,"x_min":0,"x_max":0,"o":"m 58 46 b 297 -15 108 13 207 -15 b 625 256 518 -15 625 111 b 386 531 625 393 544 469 b 200 711 257 581 200 624 b 376 851 200 775 249 851 b 554 807 461 851 524 824 l 588 906 b 381 951 546 929 476 951 b 78 697 199 951 78 843 b 325 432 78 565 172 486 b 501 246 451 383 501 333 b 306 86 501 151 429 86 b 89 147 222 86 143 114 z "},"T":{"ha":690,"x_min":0,"x_max":0,"o":"m 283 0 l 406 0 l 406 833 l 692 833 l 692 936 l -1 936 l -1 833 l 283 833 z "},"U":{"ha":899,"x_min":0,"x_max":0,"o":"m 104 936 l 104 385 b 440 -15 104 94 249 -15 b 794 390 643 -15 794 103 l 794 936 l 672 936 l 672 382 b 444 83 672 175 583 83 b 226 382 319 83 226 172 l 226 936 z "},"V":{"ha":775,"x_min":0,"x_max":0,"o":"m 444 0 l 779 936 l 650 936 l 492 474 b 385 125 450 351 411 233 l 382 125 b 282 475 357 235 322 349 l 136 936 l 6 936 l 311 0 z "},"W":{"ha":1175,"x_min":0,"x_max":0,"o":"m 385 0 l 518 488 b 590 793 553 608 574 700 l 593 793 b 654 488 606 699 625 607 l 772 0 l 899 0 l 1164 936 l 1040 936 l 917 464 b 842 140 888 347 861 243 l 839 140 b 774 461 825 239 800 350 l 660 936 l 533 936 l 408 464 b 332 139 376 343 347 232 l 329 139 b 260 463 313 229 288 346 l 149 936 l 21 936 l 258 0 z "},"X":{"ha":793,"x_min":0,"x_max":0,"o":"m 758 0 l 467 481 l 751 936 l 613 936 l 485 717 b 400 558 450 657 426 614 l 396 558 b 310 717 371 608 344 656 l 186 936 l 46 936 l 321 474 l 35 0 l 174 0 l 286 206 b 388 392 335 288 361 338 l 390 392 b 499 207 419 338 450 286 l 618 0 z "},"Y":{"ha":751,"x_min":0,"x_max":0,"o":"m 436 0 l 436 399 l 750 936 l 613 936 l 478 678 b 383 485 442 607 410 546 l 381 485 b 288 678 351 550 324 607 l 156 936 l 18 936 l 314 397 l 314 0 z "},"Z":{"ha":768,"x_min":0,"x_max":0,"o":"m 42 0 l 725 0 l 725 101 l 201 101 l 201 106 l 718 863 l 718 936 l 86 936 l 86 835 l 561 835 l 561 831 l 42 71 z "},"[":{"ha":394,"x_min":0,"x_max":0,"o":"m 368 -156 l 368 -79 l 208 -79 l 208 876 l 368 876 l 368 953 l 114 953 l 114 -156 z "},"\\":{"ha":474,"x_min":0,"x_max":0,"o":"m 475 -56 l 97 951 l 3 951 l 381 -56 z "},"]":{"ha":394,"x_min":0,"x_max":0,"o":"m 26 953 l 26 876 l 186 876 l 186 -79 l 26 -79 l 26 -156 l 281 -156 l 281 953 z "},"^":{"ha":828,"x_min":0,"x_max":0,"o":"m 744 263 l 457 903 l 371 903 l 83 263 l 181 263 l 413 801 l 415 801 l 647 263 z "},"_":{"ha":694,"x_min":0,"x_max":0,"o":"m 0 -104 l 0 -174 l 694 -174 l 694 -104 z "},"‘":{"ha":288,"x_min":0,"x_max":0,"o":"m 174 636 b 256 961 189 736 226 881 l 178 953 b 49 622 140 889 81 739 z "},"a":{"ha":669,"x_min":0,"x_max":0,"o":"m 574 413 b 318 688 574 547 524 688 b 97 628 233 688 153 664 l 125 547 b 300 597 172 578 238 597 b 453 442 438 597 453 497 l 453 428 b 49 178 193 429 49 340 b 254 -15 49 81 118 -15 b 460 85 350 -15 422 32 l 464 85 l 474 0 l 585 0 b 574 161 576 46 574 103 z m 456 226 b 449 188 456 214 453 200 b 286 75 429 131 374 75 b 171 192 224 75 171 113 b 456 343 171 322 322 346 z "},"b":{"ha":790,"x_min":0,"x_max":0,"o":"m 101 174 b 96 0 101 114 99 46 l 201 0 l 207 111 l 211 111 b 436 -15 261 22 339 -15 b 738 344 586 -15 738 104 b 454 688 739 549 621 688 b 225 564 346 688 268 639 l 222 564 l 222 986 l 101 986 z m 222 390 b 229 440 222 410 226 426 b 415 590 254 533 332 590 b 615 340 546 590 615 475 b 411 82 615 186 539 82 b 228 225 322 82 251 140 b 222 269 225 239 222 254 z "},"c":{"ha":622,"x_min":0,"x_max":0,"o":"m 560 117 b 410 83 525 101 479 83 b 176 335 276 83 176 179 b 414 589 176 475 260 589 b 556 557 481 589 526 574 l 583 651 b 414 686 550 668 486 686 b 53 329 194 686 53 536 b 388 -15 53 124 185 -15 b 581 25 478 -15 549 8 z "},"d":{"ha":783,"x_min":0,"x_max":0,"o":"m 560 986 l 560 585 l 557 585 b 354 688 526 639 457 688 b 53 326 190 688 51 550 b 340 -15 53 122 178 -15 b 569 117 450 -15 532 42 l 572 117 l 578 0 l 688 0 b 682 174 683 46 682 114 l 682 986 z m 560 282 b 554 229 560 263 558 246 b 375 83 532 138 457 83 b 176 332 243 83 176 196 b 378 592 176 481 251 592 b 554 450 469 592 536 528 b 560 399 558 435 560 414 z "},"e":{"ha":696,"x_min":0,"x_max":0,"o":"m 642 314 b 646 371 643 326 646 346 b 368 688 646 494 588 688 b 53 325 172 688 53 528 b 383 -15 53 122 176 -15 b 607 28 490 -15 564 8 l 586 115 b 400 81 540 96 488 81 b 169 314 278 81 172 149 z m 171 401 b 358 600 181 486 235 600 b 528 401 496 600 529 479 z "},"f":{"ha":406,"x_min":0,"x_max":0,"o":"m 235 0 l 235 579 l 397 579 l 397 672 l 235 672 l 235 708 b 365 903 235 811 261 903 b 443 888 400 903 425 896 l 460 982 b 356 1001 436 992 399 1001 b 192 939 299 1001 238 983 b 114 704 135 885 114 799 l 114 672 l 19 672 l 19 579 l 114 579 l 114 0 z "},"g":{"ha":776,"x_min":0,"x_max":0,"o":"m 675 488 b 681 672 675 569 678 624 l 574 672 l 568 571 l 565 571 b 356 688 536 626 472 688 b 53 331 201 688 53 558 b 339 3 53 144 172 3 b 553 115 443 3 515 53 l 556 115 l 556 40 b 339 -194 556 -129 464 -194 b 142 -142 256 -194 186 -169 l 111 -235 b 335 -290 165 -271 254 -290 b 579 -210 419 -290 514 -271 b 675 97 644 -151 675 -57 z m 554 286 b 544 221 554 265 551 242 b 375 96 518 143 450 96 b 176 338 243 96 176 206 b 376 592 176 493 260 592 b 547 463 465 592 525 533 b 554 407 553 446 554 428 z "},"h":{"ha":771,"x_min":0,"x_max":0,"o":"m 101 0 l 224 0 l 224 406 b 232 464 224 429 225 447 b 396 586 254 531 317 586 b 551 386 511 586 551 494 l 551 0 l 674 0 l 674 400 b 439 688 674 632 529 688 b 314 653 393 688 350 674 b 226 567 276 632 246 601 l 224 567 l 224 986 l 101 986 z "},"i":{"ha":325,"x_min":0,"x_max":0,"o":"m 224 0 l 224 672 l 101 672 l 101 0 z m 163 938 b 86 861 118 938 86 904 b 160 786 86 819 117 786 b 238 861 208 786 239 819 b 163 938 238 904 208 938 z "},"j":{"ha":338,"x_min":0,"x_max":0,"o":"m -50 -293 b 158 -217 15 -293 104 -271 b 239 60 218 -156 239 -71 l 239 672 l 117 672 l 117 107 b 71 -146 117 -54 104 -108 b -62 -197 42 -178 -7 -193 z m 179 938 b 101 861 133 938 101 904 b 176 786 101 821 131 786 b 253 861 225 786 254 821 b 179 938 253 904 224 938 z "},"k":{"ha":651,"x_min":0,"x_max":0,"o":"m 222 986 l 101 986 l 101 0 l 222 0 l 222 253 l 285 322 l 517 0 l 665 0 l 369 396 l 629 672 l 482 672 l 285 440 b 225 364 265 417 242 388 l 222 364 z "},"l":{"ha":328,"x_min":0,"x_max":0,"o":"m 101 0 l 224 0 l 224 986 l 101 986 z "},"m":{"ha":1158,"x_min":0,"x_max":0,"o":"m 101 0 l 221 0 l 221 406 b 231 465 221 426 224 447 b 382 588 250 526 306 588 b 522 403 475 588 522 510 l 522 0 l 642 0 l 642 415 b 651 476 642 438 646 460 b 796 588 672 536 726 588 b 942 381 894 588 942 510 l 942 0 l 1061 0 l 1061 396 b 840 688 1061 629 929 688 b 692 640 776 688 732 671 b 617 553 664 619 638 590 l 614 553 b 424 688 585 632 515 688 b 213 564 313 688 250 628 l 208 564 l 203 672 l 96 672 b 101 490 100 617 101 560 z "},"n":{"ha":771,"x_min":0,"x_max":0,"o":"m 101 0 l 224 0 l 224 404 b 232 461 224 425 226 446 b 396 586 253 529 315 586 b 551 388 511 586 551 496 l 551 0 l 674 0 l 674 401 b 436 688 674 632 529 688 b 214 561 325 688 247 625 l 211 561 l 204 672 l 96 672 b 101 490 100 617 101 560 z "},"o":{"ha":763,"x_min":0,"x_max":0,"o":"m 386 688 b 53 331 200 688 53 556 b 375 -15 53 118 193 -15 b 710 342 538 -15 710 93 b 386 688 710 547 579 688 z m 383 596 b 585 338 528 596 585 451 b 381 76 585 186 497 76 b 176 335 261 76 176 188 b 383 596 176 463 239 596 z "},"p":{"ha":790,"x_min":0,"x_max":0,"o":"m 101 -275 l 222 -275 l 222 90 l 225 90 b 432 -15 265 24 343 -15 b 738 346 590 -15 738 104 b 453 688 738 550 615 688 b 214 557 343 688 264 639 l 211 557 l 206 672 l 96 672 b 101 453 99 608 101 539 z m 222 389 b 231 439 222 406 226 424 b 415 590 254 531 332 590 b 615 340 544 590 615 475 b 411 81 615 186 540 81 b 228 224 324 81 250 139 b 222 274 225 239 222 256 z "},"q":{"ha":782,"x_min":0,"x_max":0,"o":"m 560 -275 l 682 -275 l 682 488 b 686 672 682 557 683 615 l 571 672 l 567 571 l 564 571 b 357 688 531 636 461 688 b 53 325 215 688 53 576 b 338 -15 53 121 181 -15 b 557 104 446 -15 521 38 l 560 104 z m 560 274 b 550 215 560 256 556 232 b 375 82 522 131 454 82 b 176 332 240 82 176 199 b 379 590 176 483 253 590 b 554 451 471 590 536 526 b 560 400 558 436 560 417 z "},"r":{"ha":454,"x_min":0,"x_max":0,"o":"m 101 0 l 222 0 l 222 358 b 228 415 222 379 225 399 b 392 572 244 507 306 572 b 433 568 408 572 421 571 l 433 683 b 399 688 422 686 413 688 b 213 540 317 688 243 631 l 207 540 l 203 672 l 96 672 b 101 463 100 610 101 542 z "},"s":{"ha":550,"x_min":0,"x_max":0,"o":"m 54 32 b 243 -15 101 4 169 -15 b 494 188 403 -15 494 69 b 318 390 494 288 435 346 b 190 504 231 424 190 449 b 303 596 190 554 231 596 b 440 557 365 596 414 574 l 471 646 b 306 688 433 668 374 688 b 74 490 161 688 74 599 b 251 300 74 410 131 343 b 376 176 342 267 376 235 b 246 76 376 121 335 76 b 85 125 185 76 121 101 z "},"t":{"ha":460,"x_min":0,"x_max":0,"o":"m 129 796 l 129 672 l 25 672 l 25 579 l 129 579 l 129 213 b 176 38 129 133 142 74 b 308 -15 206 4 251 -15 b 417 3 356 -15 393 -7 l 411 94 b 340 86 393 89 374 86 b 249 217 272 86 249 133 l 249 579 l 424 579 l 424 672 l 249 672 l 249 833 z "},"u":{"ha":765,"x_min":0,"x_max":0,"o":"m 664 672 l 542 672 l 542 260 b 531 197 542 238 538 215 b 369 86 508 143 451 86 b 219 300 258 86 219 172 l 219 672 l 97 672 l 97 279 b 329 -15 97 43 224 -15 b 551 110 449 -15 519 56 l 554 110 l 561 0 l 669 0 b 664 183 665 53 664 114 z "},"v":{"ha":668,"x_min":0,"x_max":0,"o":"m 18 672 l 274 0 l 390 0 l 654 672 l 526 672 l 396 294 b 339 122 374 233 354 178 l 335 122 b 281 294 321 178 303 233 l 149 672 z "},"w":{"ha":1022,"x_min":0,"x_max":0,"o":"m 25 672 l 228 0 l 339 0 l 447 319 b 508 542 471 392 492 461 l 511 542 b 571 321 528 463 547 396 l 674 0 l 785 0 l 1001 672 l 881 672 l 785 335 b 733 117 763 256 744 185 l 729 117 b 669 336 714 185 694 256 l 565 672 l 463 672 l 353 331 b 293 117 331 257 308 185 l 289 117 b 239 331 276 186 258 256 l 150 672 z "},"x":{"ha":643,"x_min":0,"x_max":0,"o":"m 22 672 l 250 343 l 11 0 l 146 0 l 243 151 b 314 268 268 192 292 226 l 317 268 b 389 151 340 228 363 190 l 488 0 l 626 0 l 390 347 l 619 672 l 488 672 l 393 529 b 326 418 371 493 349 458 l 322 418 b 254 528 300 456 279 490 l 158 672 z "},"y":{"ha":654,"x_min":0,"x_max":0,"o":"m 13 672 l 261 53 b 269 21 267 38 269 28 b 260 -8 269 14 265 4 b 157 -144 232 -71 190 -118 b 50 -204 121 -175 81 -194 l 81 -307 b 231 -228 111 -301 171 -281 b 461 193 314 -156 374 -37 l 644 672 l 515 672 l 382 278 b 339 138 365 229 351 178 l 336 138 b 293 275 325 178 308 231 l 146 672 z "},"z":{"ha":594,"x_min":0,"x_max":0,"o":"m 25 0 l 571 0 l 571 97 l 178 97 l 178 100 b 264 206 208 135 236 168 l 564 596 l 565 672 l 53 672 l 53 574 l 417 574 l 417 571 b 329 467 386 535 358 503 l 25 71 z "},"{":{"ha":394,"x_min":0,"x_max":0,"o":"m 39 364 b 151 261 138 364 151 304 b 140 149 151 224 146 186 b 129 35 135 111 129 72 b 331 -156 129 -106 215 -156 l 360 -156 l 360 -79 l 335 -79 b 225 42 257 -78 225 -36 b 235 142 225 75 229 107 b 244 247 240 175 244 210 b 144 399 246 336 207 383 l 144 401 b 244 551 207 418 246 463 b 235 657 244 589 240 624 b 225 757 229 690 225 724 b 335 876 225 832 253 875 l 360 876 l 360 953 l 331 953 b 129 771 213 953 129 899 b 140 654 129 732 135 693 b 151 539 146 615 151 576 b 39 435 151 489 138 435 z "},"|":{"ha":332,"x_min":0,"x_max":0,"o":"m 119 1042 l 119 -347 l 213 -347 l 213 1042 z "},"}":{"ha":394,"x_min":0,"x_max":0,"o":"m 356 435 b 243 539 257 435 243 489 b 254 654 243 576 249 615 b 265 771 260 693 265 732 b 63 953 265 899 181 953 l 35 953 l 35 876 l 60 876 b 169 757 140 875 169 832 b 160 657 169 724 164 690 b 149 551 154 624 149 589 b 249 401 149 463 188 418 l 249 399 b 149 247 188 383 149 336 b 160 142 149 210 154 175 b 169 42 164 107 169 75 b 58 -79 169 -36 136 -78 l 35 -79 l 35 -156 l 64 -156 b 265 35 178 -156 265 -106 b 254 149 265 72 260 111 b 243 261 249 186 243 224 b 356 364 243 304 257 364 z "},"~":{"ha":828,"x_min":0,"x_max":0,"o":"m 150 292 b 233 410 153 375 183 410 b 400 349 283 410 335 381 b 601 288 496 304 546 288 b 761 497 688 288 768 342 l 678 497 b 603 381 676 421 653 381 b 429 439 551 381 500 406 b 233 501 336 483 292 501 b 68 292 138 501 63 431 z "},"¡":{"ha":319,"x_min":0,"x_max":0,"o":"m 228 -271 l 207 392 l 113 392 l 93 -271 z m 161 678 b 78 592 113 678 78 642 b 160 506 78 543 111 506 b 242 592 210 506 242 543 b 163 678 242 642 210 678 z "},"¢":{"ha":713,"x_min":0,"x_max":0,"o":"m 458 -19 l 458 121 b 613 161 526 124 585 146 l 590 249 b 432 214 557 233 508 214 b 215 458 310 214 215 304 b 438 706 215 594 300 706 b 582 671 507 706 554 688 l 610 764 b 458 799 578 781 521 799 l 458 935 l 372 935 l 372 796 b 93 453 203 768 93 632 b 171 218 93 351 124 271 b 372 121 221 164 283 132 l 372 -19 z "},"£":{"ha":713,"x_min":0,"x_max":0,"o":"m 654 0 l 654 101 l 240 101 l 240 104 b 336 254 288 144 321 194 b 342 410 349 304 346 357 l 531 410 l 531 497 l 331 497 b 314 646 322 542 314 586 b 467 819 314 744 358 819 b 590 792 525 819 565 806 l 618 883 b 467 918 589 901 539 918 b 200 647 313 918 200 811 b 215 497 200 593 208 539 l 86 497 l 86 410 l 229 410 b 236 313 235 374 236 346 b 78 69 236 208 171 117 l 78 0 z "},"⁄":{"ha":168,"x_min":0,"x_max":0,"o":"m -140 -15 l 388 918 l 308 918 l -218 -15 z "},"¥":{"ha":713,"x_min":0,"x_max":0,"o":"m 406 0 l 406 243 l 622 243 l 622 313 l 406 313 l 406 413 l 622 413 l 622 482 l 442 482 l 690 903 l 563 903 l 413 619 b 357 490 389 572 371 529 l 353 490 b 297 617 336 532 319 569 l 153 903 l 22 903 l 256 482 l 75 482 l 75 413 l 290 413 l 290 313 l 75 313 l 75 243 l 290 243 l 290 0 z "},"ƒ":{"ha":713,"x_min":0,"x_max":0,"o":"m 154 469 l 282 469 l 250 196 b 115 -22 233 54 201 -22 b 38 -7 86 -22 61 -18 l 15 -94 b 124 -117 39 -107 78 -117 b 365 185 286 -117 343 6 l 399 469 l 576 469 l 576 557 l 410 557 l 418 629 b 565 822 429 732 471 822 b 638 808 593 822 617 817 l 660 897 b 565 918 640 908 607 917 b 300 621 378 918 317 758 l 292 557 l 154 557 z "},"§":{"ha":721,"x_min":0,"x_max":0,"o":"m 181 488 b 244 596 181 529 200 564 b 415 525 289 568 360 546 b 539 396 506 493 539 449 b 486 289 539 353 521 314 b 328 356 454 310 399 331 b 181 486 218 396 181 438 z m 581 903 b 389 949 533 929 467 949 b 132 751 246 949 132 874 b 183 635 133 704 156 657 b 82 472 110 588 82 525 b 324 253 82 353 181 301 b 493 108 453 208 493 174 b 338 -6 493 35 426 -6 b 154 51 256 -6 188 28 l 121 -29 b 339 -86 174 -67 254 -86 b 603 122 468 -86 603 -24 b 550 244 603 179 574 225 b 640 413 606 288 640 340 b 414 632 640 538 542 590 b 240 765 310 667 240 693 b 385 868 240 828 303 868 b 551 824 460 868 515 846 z "},"¤":{"ha":713,"x_min":0,"x_max":0,"o":"m 356 742 b 197 685 294 742 236 719 l 101 790 l 40 726 l 144 628 b 90 457 115 589 90 529 b 142 290 90 389 114 326 l 42 192 l 101 131 l 194 233 b 353 178 232 199 296 178 b 515 238 408 178 474 197 l 610 131 l 672 192 l 568 294 b 617 465 593 329 617 389 b 568 628 617 532 594 590 l 676 726 l 615 790 l 517 686 b 357 742 478 719 421 742 z m 354 654 b 518 464 461 654 518 560 b 353 265 518 321 431 265 b 189 458 282 265 189 324 b 353 654 189 567 251 654 z "},"'":{"ha":261,"x_min":0,"x_max":0,"o":"m 71 961 l 93 628 l 168 628 l 192 961 z "},"“":{"ha":492,"x_min":0,"x_max":0,"o":"m 174 636 b 256 961 189 736 225 881 l 178 953 b 47 622 139 889 79 739 z m 379 636 b 461 961 394 736 431 881 l 383 953 b 254 622 346 889 285 739 z "},"«":{"ha":582,"x_min":0,"x_max":0,"o":"m 322 606 l 224 606 l 40 350 l 224 94 l 322 94 l 136 350 z m 550 606 l 451 606 l 268 350 l 451 94 l 550 94 l 364 350 z "},"‹":{"ha":354,"x_min":0,"x_max":0,"o":"m 322 606 l 224 606 l 40 350 l 224 94 l 322 94 l 136 350 z "},"›":{"ha":354,"x_min":0,"x_max":0,"o":"m 218 350 l 32 94 l 131 94 l 315 350 l 129 606 l 32 606 z "},"":{"ha":726,"x_min":0,"x_max":0,"o":"m 235 0 l 235 579 l 504 579 l 504 0 l 625 0 l 625 672 l 235 672 l 235 706 b 401 903 235 813 272 903 b 543 864 461 903 514 885 l 578 957 b 407 1001 543 982 469 1001 b 114 708 218 1001 114 886 l 114 672 l 19 672 l 19 579 l 114 579 l 114 0 z "},"":{"ha":726,"x_min":0,"x_max":0,"o":"m 235 0 l 235 579 l 392 579 l 392 672 l 235 672 l 235 706 b 404 907 235 814 276 907 b 504 889 451 907 483 900 l 504 0 l 625 0 l 625 957 b 424 1001 575 985 501 1001 b 208 933 331 1001 261 978 b 114 701 146 878 114 794 l 114 672 l 19 672 l 19 579 l 114 579 l 114 0 z "},"–":{"ha":694,"x_min":0,"x_max":0,"o":"m 42 394 l 42 311 l 653 311 l 653 394 z "},"†":{"ha":694,"x_min":0,"x_max":0,"o":"m 290 936 l 301 643 l 60 653 l 60 553 l 301 564 l 290 -69 l 404 -69 l 393 564 l 635 553 l 635 653 l 393 643 l 404 936 z "},"‡":{"ha":694,"x_min":0,"x_max":0,"o":"m 292 936 l 300 657 l 60 668 l 60 568 l 300 578 l 300 294 l 60 306 l 60 206 l 299 215 l 292 -69 l 404 -69 l 394 215 l 635 206 l 635 306 l 394 294 l 394 578 l 635 568 l 635 668 l 394 657 l 404 936 z "},"·":{"ha":288,"x_min":0,"x_max":0,"o":"m 143 278 b 226 365 193 278 226 315 b 144 453 225 417 193 453 b 61 365 96 453 61 415 b 142 278 60 315 94 278 z "},"¶":{"ha":711,"x_min":0,"x_max":0,"o":"m 407 -68 l 407 854 l 506 854 l 506 -68 l 592 -68 l 592 926 b 429 939 557 935 503 939 b 47 631 124 939 44 775 b 310 367 50 453 200 367 l 319 367 l 319 -68 z "},"•":{"ha":392,"x_min":0,"x_max":0,"o":"m 196 218 b 342 364 278 218 342 282 b 196 510 342 444 276 510 b 50 363 115 510 49 444 b 194 218 50 281 115 218 z "},"‚":{"ha":288,"x_min":0,"x_max":0,"o":"m 106 -154 b 236 175 144 -90 204 58 l 110 161 b 29 -164 96 63 58 -82 z "},"„":{"ha":494,"x_min":0,"x_max":0,"o":"m 106 -154 b 235 175 143 -90 204 58 l 110 161 b 28 -164 94 63 58 -82 z m 311 -154 b 442 175 350 -90 410 58 l 315 161 b 233 -164 300 63 264 -82 z "},"”":{"ha":492,"x_min":0,"x_max":0,"o":"m 129 947 b 47 624 114 849 76 704 l 125 632 b 254 961 163 696 222 846 z m 335 947 b 253 624 319 849 283 704 l 331 632 b 460 961 368 696 428 846 z "},"»":{"ha":582,"x_min":0,"x_max":0,"o":"m 218 350 l 33 94 l 131 94 l 315 350 l 131 606 l 32 606 z m 444 350 l 260 94 l 357 94 l 542 350 l 357 606 l 258 606 z "},"…":{"ha":1389,"x_min":0,"x_max":0,"o":"m 232 -15 b 314 72 282 -15 314 22 b 232 160 314 124 282 160 b 150 72 183 160 150 124 b 231 -15 149 22 183 -15 z m 694 -15 b 778 72 744 -15 778 22 b 696 160 776 124 744 160 b 613 72 647 160 613 124 b 693 -15 611 22 646 -15 z m 1157 -15 b 1240 72 1208 -15 1240 22 b 1158 160 1240 124 1207 160 b 1075 72 1110 160 1075 124 b 1156 -15 1075 22 1108 -15 z "},"‰":{"ha":1606,"x_min":0,"x_max":0,"o":"m 260 918 b 42 636 140 918 42 817 b 253 364 43 456 140 364 b 469 649 369 364 469 458 b 261 918 469 821 386 918 z m 256 844 b 372 643 340 844 372 753 b 256 438 372 524 336 438 b 139 640 179 438 136 526 b 254 844 139 754 179 844 z m 321 -17 l 853 919 l 775 919 l 243 -17 z m 849 544 b 631 261 729 544 631 443 b 842 -10 632 81 729 -10 b 1057 275 957 -10 1057 85 b 850 544 1057 447 975 544 z m 844 471 b 961 269 929 471 961 379 b 844 64 961 150 925 64 b 726 267 768 64 725 151 b 843 471 726 381 768 471 z m 1354 544 b 1136 261 1235 544 1136 443 b 1347 -10 1138 81 1235 -10 b 1564 275 1464 -10 1564 85 b 1356 544 1564 447 1481 544 z m 1351 471 b 1467 269 1436 471 1467 379 b 1350 64 1467 150 1432 64 b 1233 267 1274 64 1231 151 b 1350 471 1233 381 1275 471 z "},"¿":{"ha":564,"x_min":0,"x_max":0,"o":"m 329 678 b 247 590 281 678 247 642 b 329 504 247 542 279 504 b 411 590 379 504 411 542 b 331 678 411 642 379 678 z m 274 397 l 275 361 b 197 156 279 290 257 229 b 76 -85 129 78 76 8 b 308 -290 76 -192 150 -290 b 508 -235 382 -290 461 -267 l 475 -146 b 335 -190 439 -174 383 -190 b 203 -69 246 -189 203 -142 b 299 121 203 -8 236 46 b 386 361 368 204 394 286 l 382 397 z "},"`":{"ha":417,"x_min":0,"x_max":0,"o":"m 31 963 l 200 764 l 286 764 l 165 963 z "},"´":{"ha":417,"x_min":0,"x_max":0,"o":"m 263 963 l 140 764 l 228 764 l 397 963 z "},"ˆ":{"ha":417,"x_min":0,"x_max":0,"o":"m 165 963 l 35 764 l 125 764 l 206 896 l 208 896 l 289 764 l 383 764 l 250 963 z "},"˜":{"ha":417,"x_min":0,"x_max":0,"o":"m 104 788 b 140 850 107 826 118 850 b 200 825 157 850 172 842 b 285 797 229 810 256 797 b 381 938 350 797 382 844 l 315 938 b 276 878 313 890 299 878 b 218 901 260 878 240 889 b 132 932 186 919 163 932 b 38 788 72 932 35 878 z "},"¯":{"ha":417,"x_min":0,"x_max":0,"o":"m 53 893 l 53 814 l 365 814 l 365 893 z "},"˘":{"ha":417,"x_min":0,"x_max":0,"o":"m 36 947 b 208 775 36 861 86 775 b 381 947 313 775 381 844 l 308 947 b 208 851 304 901 274 851 b 108 947 151 851 117 893 z "},"˙":{"ha":417,"x_min":0,"x_max":0,"o":"m 194 792 b 263 863 235 792 263 825 b 194 935 263 903 233 935 b 124 863 154 935 124 903 b 193 792 124 825 153 792 z "},"¨":{"ha":417,"x_min":0,"x_max":0,"o":"m 81 792 b 149 863 121 792 149 825 b 81 933 149 903 119 933 b 10 863 42 933 10 901 b 79 792 10 825 39 792 z m 338 792 b 406 863 378 792 406 825 b 338 933 406 903 376 933 b 268 863 299 933 268 901 b 336 792 268 825 296 792 z "},"˚":{"ha":417,"x_min":0,"x_max":0,"o":"m 197 746 b 336 874 276 746 336 800 b 199 1004 336 947 282 1004 b 57 872 111 1004 57 946 b 197 746 57 801 114 746 z m 196 797 b 128 872 156 797 128 836 b 196 951 128 915 153 951 b 268 875 240 951 268 917 b 196 797 268 833 240 797 z "},"¸":{"ha":417,"x_min":0,"x_max":0,"o":"m 189 3 l 124 -112 b 232 -171 189 -118 231 -135 b 172 -215 232 -204 203 -215 b 97 -194 147 -215 119 -208 l 76 -254 b 171 -278 100 -268 136 -278 b 315 -165 247 -278 315 -247 b 218 -69 315 -112 269 -76 l 264 3 z "},"˝":{"ha":417,"x_min":0,"x_max":0,"o":"m 171 963 l 61 772 l 138 772 l 290 963 z m 371 963 l 261 772 l 338 772 l 490 963 z "},"˛":{"ha":417,"x_min":0,"x_max":0,"o":"m 171 6 b 88 -165 138 -31 88 -97 b 218 -285 88 -243 140 -285 b 329 -253 253 -285 301 -275 l 310 -190 b 246 -203 293 -197 271 -203 b 176 -133 206 -203 176 -176 b 250 6 176 -81 229 -21 z "},"ˇ":{"ha":417,"x_min":0,"x_max":0,"o":"m 254 764 l 385 963 l 293 963 l 211 831 l 208 831 l 126 963 l 32 963 l 165 764 z "},"—":{"ha":1389,"x_min":0,"x_max":0,"o":"m 42 394 l 42 311 l 1347 311 l 1347 394 z "},"Æ":{"ha":1094,"x_min":0,"x_max":0,"o":"m 124 0 l 274 331 l 561 331 l 603 0 l 1049 0 l 1050 101 l 707 101 l 665 436 l 999 436 l 999 536 l 650 536 l 614 835 l 1013 835 l 1013 936 l 426 936 l -1 0 z m 314 428 l 435 701 b 494 849 456 751 478 804 l 500 849 b 517 697 503 801 511 742 l 547 428 z "},"ª":{"ha":481,"x_min":0,"x_max":0,"o":"m 424 369 b 415 478 418 403 415 440 l 415 626 b 239 821 415 726 378 821 b 81 775 179 821 121 804 l 103 715 b 222 753 135 740 178 753 b 325 667 311 753 325 689 l 325 653 b 46 494 147 657 46 594 b 189 363 46 422 97 363 b 329 428 254 363 303 394 l 332 428 l 340 369 z m 326 517 b 313 479 326 507 321 493 b 218 429 294 453 260 429 b 138 500 175 429 138 454 b 326 593 138 579 239 594 z "},"Ł":{"ha":661,"x_min":0,"x_max":0,"o":"m 632 0 l 632 101 l 232 101 l 232 457 l 418 590 l 418 686 l 232 551 l 232 936 l 111 936 l 111 468 l -6 383 l -6 289 l 111 375 l 111 0 z "},"Ø":{"ha":957,"x_min":0,"x_max":0,"o":"m 156 -60 l 243 60 b 481 -15 310 11 392 -15 b 906 476 704 -15 906 150 b 785 821 906 614 863 736 l 871 940 l 797 990 l 715 878 b 482 951 649 926 568 951 b 50 463 238 951 50 758 b 174 117 50 324 96 200 l 88 -6 z m 244 219 l 243 218 b 174 469 201 290 174 365 b 481 854 174 665 276 854 b 656 789 550 854 608 829 z m 713 715 l 717 715 b 782 472 765 636 782 551 b 478 82 782 261 674 82 b 303 149 403 82 349 106 z "},"Œ":{"ha":1242,"x_min":0,"x_max":0,"o":"m 1190 101 l 785 101 l 785 438 l 1147 438 l 1147 539 l 785 539 l 785 835 l 1169 835 l 1169 936 l 722 936 b 633 944 697 936 668 940 b 511 951 599 947 560 951 b 50 461 242 951 50 769 b 504 -15 50 193 214 -15 b 619 -8 549 -15 585 -11 b 711 0 653 -4 683 0 l 1190 0 z m 663 101 b 526 83 632 90 578 83 b 179 467 307 83 178 239 b 515 853 178 696 306 853 b 663 832 582 853 626 844 z "},"º":{"ha":493,"x_min":0,"x_max":0,"o":"m 249 821 b 25 588 129 821 25 732 b 246 363 25 451 122 363 b 468 594 353 363 467 435 b 250 821 468 725 383 821 z m 246 751 b 375 592 338 751 375 661 b 247 432 375 496 321 432 b 118 590 178 432 118 499 b 244 751 118 664 157 751 z "},"æ":{"ha":1074,"x_min":0,"x_max":0,"o":"m 1019 324 b 1024 378 1022 336 1024 357 b 761 688 1024 489 967 688 b 526 546 656 688 572 633 l 524 546 b 307 688 496 631 428 688 b 97 626 240 688 157 664 l 126 546 b 299 597 167 574 235 597 b 456 447 435 597 456 481 l 456 419 b 50 176 194 422 50 332 b 260 -15 50 79 119 -15 b 510 133 375 -15 467 40 l 513 133 b 768 -15 551 39 654 -15 b 989 32 857 -15 935 3 l 967 118 b 783 79 929 100 876 79 b 569 324 657 79 565 164 z m 457 239 b 450 190 457 222 456 206 b 288 75 431 129 375 75 b 171 186 224 75 171 115 b 457 338 171 318 328 340 z m 568 411 b 749 600 572 488 628 600 b 906 411 872 600 910 479 z "},"ı":{"ha":325,"x_min":0,"x_max":0,"o":"m 224 0 l 224 672 l 101 672 l 101 0 z "},"ł":{"ha":336,"x_min":0,"x_max":0,"o":"m 229 0 l 229 493 l 328 578 l 328 675 l 229 590 l 229 986 l 107 986 l 107 497 l 13 415 l 13 319 l 107 400 l 107 0 z "},"ø":{"ha":763,"x_min":0,"x_max":0,"o":"m 383 688 b 53 332 200 688 53 556 b 157 72 53 222 92 133 l 99 -11 l 150 -53 l 210 32 b 382 -15 258 0 319 -15 b 710 342 539 -15 710 94 b 608 599 710 446 674 536 l 667 685 l 613 722 l 554 640 b 385 688 504 671 444 688 z m 224 165 l 221 167 b 171 335 186 215 171 276 b 381 596 171 457 231 596 b 499 556 429 596 468 581 z m 540 501 l 543 501 b 590 338 579 449 590 383 b 378 76 590 186 506 76 b 265 115 336 76 297 88 z "},"œ":{"ha":1199,"x_min":0,"x_max":0,"o":"m 1144 315 b 1149 372 1147 328 1149 349 b 876 688 1149 492 1092 688 b 632 526 772 688 682 633 l 629 526 b 375 688 588 629 489 688 b 53 332 194 688 53 550 b 367 -15 53 119 189 -15 b 626 143 471 -15 576 35 l 631 143 b 896 -15 683 33 779 -15 b 1114 31 969 -15 1060 0 l 1092 118 b 911 81 1046 99 994 81 b 688 315 783 81 689 163 z m 376 596 b 574 336 515 596 574 464 b 376 76 574 182 494 76 b 176 335 260 76 176 189 b 375 596 176 450 229 596 z m 688 403 b 867 599 694 488 746 599 b 1031 403 1000 599 1032 478 z "},"ß":{"ha":761,"x_min":0,"x_max":0,"o":"m 224 0 l 224 633 b 390 906 224 831 283 906 b 535 754 476 906 535 850 b 522 694 535 731 529 711 b 399 524 443 656 399 594 b 507 339 399 446 449 394 b 582 196 557 293 582 254 b 446 79 582 132 535 79 b 329 107 404 79 365 89 l 307 14 b 454 -15 347 -7 403 -15 b 703 206 608 -15 703 75 b 590 419 703 306 646 364 b 519 540 547 464 519 493 b 619 653 519 588 557 626 b 651 767 635 675 651 718 b 404 1001 651 918 536 1001 b 200 931 319 1001 253 978 b 101 628 139 875 101 786 l 101 0 z "},"":{"ha":339,"x_min":0,"x_max":0,"o":"m 246 615 l 246 1157 l 161 1157 l 31 1096 l 46 1024 l 146 1072 l 149 1072 l 149 615 z "},"¬":{"ha":828,"x_min":0,"x_max":0,"o":"m 56 554 l 56 471 l 683 471 l 683 168 l 772 168 l 772 554 z "},"µ":{"ha":768,"x_min":0,"x_max":0,"o":"m 560 104 b 679 -15 571 18 619 -15 b 721 -10 699 -15 707 -14 l 731 79 b 667 185 682 82 667 111 l 667 672 l 546 672 l 546 260 b 535 197 546 238 542 215 b 374 85 513 143 454 85 b 222 275 267 85 222 171 l 222 672 l 101 672 l 101 -28 b 121 -275 101 -135 107 -233 l 231 -275 b 215 -22 217 -219 215 -96 l 215 61 b 363 -12 244 10 301 -12 b 556 104 463 -12 528 51 z "},"™":{"ha":860,"x_min":0,"x_max":0,"o":"m 42 936 l 42 874 l 163 874 l 163 558 l 238 558 l 238 874 l 358 874 l 358 936 z m 842 558 l 813 936 l 704 936 l 639 750 b 613 656 631 722 622 690 l 611 656 b 586 751 601 694 594 722 l 521 936 l 408 936 l 381 558 l 453 558 l 467 781 b 469 886 468 815 469 851 l 474 886 b 500 779 482 853 493 808 l 568 564 l 646 564 l 714 774 b 746 886 725 808 736 853 l 750 886 b 753 781 751 846 751 810 l 767 558 z "},"Ð":{"ha":932,"x_min":0,"x_max":0,"o":"m -3 426 l 113 426 l 113 0 b 332 -10 174 -7 244 -10 b 746 125 513 -10 658 38 b 881 490 833 213 881 336 b 749 831 881 644 832 754 b 369 947 667 907 542 947 b 113 926 274 947 186 939 l 113 524 l -3 524 z m 483 524 l 233 524 l 233 838 b 375 850 265 844 313 850 b 754 489 631 850 756 713 b 354 88 754 231 615 88 b 233 93 308 88 264 89 l 233 426 l 483 426 z "},"½":{"ha":1054,"x_min":0,"x_max":0,"o":"m 256 369 l 256 911 l 169 911 l 40 850 l 56 778 l 156 826 l 158 826 l 158 369 z m 243 -15 l 769 918 l 692 918 l 165 -15 z m 611 0 l 986 0 l 986 76 l 749 76 l 749 79 l 792 118 b 976 392 896 213 976 288 b 792 549 976 467 924 549 b 622 490 722 549 660 522 l 651 428 b 768 471 678 446 719 471 b 874 374 840 471 874 426 b 699 133 874 303 814 238 l 611 51 z "},"±":{"ha":828,"x_min":0,"x_max":0,"o":"m 369 794 l 369 524 l 56 524 l 56 440 l 369 440 l 369 163 l 458 163 l 458 440 l 772 440 l 772 524 l 458 524 l 458 794 z m 56 83 l 56 0 l 772 0 l 772 83 z "},"Þ":{"ha":738,"x_min":0,"x_max":0,"o":"m 106 0 l 225 0 l 225 217 b 331 210 254 213 292 210 b 682 506 533 210 682 308 b 606 688 682 578 654 642 b 358 764 549 738 468 764 b 225 753 308 764 263 760 l 225 936 l 106 936 z m 225 657 b 347 668 247 663 292 668 b 561 493 475 668 561 614 b 329 307 561 379 479 307 b 225 315 293 307 257 310 z "},"¼":{"ha":1054,"x_min":0,"x_max":0,"o":"m 275 369 l 275 911 l 190 911 l 60 850 l 75 778 l 175 826 l 178 826 l 178 369 z m 271 -15 l 797 918 l 719 918 l 192 -15 z m 922 0 l 922 143 l 1006 143 l 1006 211 l 922 211 l 922 549 l 819 549 l 551 197 l 551 143 l 829 143 l 829 0 z m 829 211 l 651 211 l 651 213 l 785 386 b 831 463 800 408 813 433 l 833 463 b 829 375 832 436 829 407 z "},"÷":{"ha":828,"x_min":0,"x_max":0,"o":"m 414 538 b 488 614 460 538 488 571 b 415 692 488 660 458 692 b 340 614 371 692 340 660 b 413 538 340 571 369 538 z m 772 329 l 772 413 l 56 413 l 56 329 z m 414 50 b 488 126 460 50 488 83 b 415 204 488 172 458 204 b 340 126 371 204 340 172 b 413 50 340 83 369 50 z "},"¦":{"ha":332,"x_min":0,"x_max":0,"o":"m 119 242 l 119 -244 l 213 -244 l 213 242 z m 119 936 l 119 450 l 213 450 l 213 936 z "},"°":{"ha":442,"x_min":0,"x_max":0,"o":"m 225 953 b 40 764 122 953 39 871 b 222 586 40 668 114 586 b 408 772 318 586 408 660 b 226 953 408 867 339 953 z m 224 888 b 333 769 303 888 333 822 b 224 651 333 701 286 651 b 115 765 163 651 115 701 b 222 888 115 824 151 888 z "},"þ":{"ha":790,"x_min":0,"x_max":0,"o":"m 101 929 l 101 -275 l 222 -275 l 222 90 l 225 90 b 432 -15 268 24 343 -15 b 738 344 585 -15 738 99 b 454 688 738 553 613 689 b 225 565 344 688 271 639 l 222 565 l 222 929 z m 222 389 b 236 457 222 411 229 438 b 417 590 265 539 339 590 b 615 343 542 590 615 476 b 414 81 615 182 535 81 b 236 204 333 81 263 128 b 222 265 228 222 222 246 z "},"¾":{"ha":1054,"x_min":0,"x_max":0,"o":"m 92 810 b 208 846 114 824 158 846 b 297 778 272 846 297 811 b 171 689 297 713 222 690 l 132 689 l 132 625 l 171 625 b 318 528 243 625 317 597 b 196 435 318 485 282 435 b 67 471 143 435 89 456 l 42 401 b 201 363 74 381 133 363 b 419 525 343 363 419 439 b 292 660 419 596 367 649 l 292 663 b 397 788 357 685 397 732 b 226 918 397 854 347 918 b 68 874 158 918 100 896 z m 322 -15 l 849 918 l 771 918 l 243 -15 z m 936 0 l 936 143 l 1021 143 l 1021 211 l 936 211 l 936 549 l 835 549 l 567 197 l 567 143 l 844 143 l 844 0 z m 844 211 l 667 211 l 665 213 l 800 386 b 846 463 815 408 828 432 l 849 463 b 844 375 847 436 844 407 z "},"":{"ha":432,"x_min":0,"x_max":0,"o":"m 17 615 l 392 615 l 392 692 l 154 692 l 154 694 l 197 733 b 382 1007 303 826 382 903 b 197 1164 382 1082 328 1164 b 28 1106 128 1164 65 1138 l 57 1043 b 174 1086 83 1061 125 1086 b 279 989 246 1086 279 1042 b 104 749 279 918 219 853 l 17 667 z "},"®":{"ha":582,"x_min":0,"x_max":0,"o":"m 256 693 l 281 693 b 328 657 310 693 324 682 b 346 603 335 631 339 611 l 403 603 b 386 658 397 610 393 624 b 344 714 379 689 367 707 l 344 717 b 392 771 372 725 392 744 b 369 819 392 792 382 810 b 290 838 353 831 333 838 b 203 829 253 838 224 833 l 203 603 l 256 603 z m 257 796 b 286 799 263 797 272 799 b 335 764 319 799 335 785 b 282 731 335 740 311 731 l 257 731 z m 292 949 b 57 721 161 949 57 847 b 292 492 57 592 161 492 b 525 721 424 492 525 592 b 293 949 525 847 424 949 z m 292 903 b 467 721 393 903 467 821 b 293 539 467 619 393 538 b 115 721 190 539 115 619 b 290 903 115 821 190 903 z "},"−":{"ha":828,"x_min":0,"x_max":0,"o":"m 56 413 l 56 329 l 772 329 l 772 413 z "},"ð":{"ha":751,"x_min":0,"x_max":0,"o":"m 371 76 b 176 329 258 76 176 188 b 376 589 176 440 232 589 b 524 524 447 589 493 558 b 571 338 558 481 571 425 b 372 76 571 185 493 76 z m 161 704 l 358 796 b 522 617 429 743 482 683 l 519 613 b 363 672 467 663 415 672 b 53 328 203 671 53 544 b 371 -15 53 118 189 -15 b 696 351 532 -15 697 93 b 638 621 696 454 675 543 b 460 842 597 704 536 779 l 607 911 l 578 972 l 400 888 b 204 1000 340 931 271 969 l 151 924 b 296 840 203 899 254 871 l 135 764 z "},"×":{"ha":828,"x_min":0,"x_max":0,"o":"m 56 669 l 353 365 l 56 61 l 117 0 l 414 304 l 711 0 l 772 61 l 474 365 l 772 669 l 711 731 l 414 426 l 117 731 z "},"":{"ha":424,"x_min":0,"x_max":0,"o":"m 63 1056 b 181 1092 85 1071 131 1092 b 268 1024 243 1092 268 1057 b 142 935 267 958 193 935 l 103 935 l 103 871 l 140 871 b 288 774 214 871 288 843 b 167 681 289 731 251 681 b 38 717 114 681 60 701 l 13 647 b 171 608 43 626 104 608 b 390 771 313 608 390 685 b 261 906 390 842 338 894 l 261 908 b 368 1033 328 931 368 978 b 199 1164 368 1100 318 1164 b 39 1121 131 1164 71 1142 z "},"©":{"ha":940,"x_min":0,"x_max":0,"o":"m 472 900 b 50 472 236 900 50 708 b 472 42 50 233 236 42 b 890 472 707 42 890 233 b 474 900 890 708 707 900 z m 472 843 b 821 472 668 843 821 679 b 472 99 821 261 668 97 b 119 468 272 100 119 261 b 471 843 119 679 272 843 z m 658 685 b 506 722 640 701 578 722 b 240 464 365 722 240 622 b 494 213 240 324 333 213 b 665 256 553 213 617 224 l 649 308 b 508 272 617 288 564 272 b 313 468 381 272 313 360 b 507 663 313 579 376 663 b 642 631 572 663 624 640 z "},"Á":{"ha":850,"x_min":0,"x_max":0,"o":"m 589 294 l 689 0 l 818 0 l 499 936 l 353 936 l 35 0 l 160 0 l 257 294 z m 282 389 l 374 660 b 421 829 392 717 407 774 l 424 829 b 472 658 438 775 451 719 l 564 389 z m 483 1149 l 354 986 l 454 986 l 631 1149 z "},"Â":{"ha":850,"x_min":0,"x_max":0,"o":"m 589 294 l 689 0 l 818 0 l 499 936 l 353 936 l 35 0 l 160 0 l 257 294 z m 282 389 l 374 660 b 421 829 392 717 407 774 l 424 829 b 472 658 438 775 451 719 l 564 389 z m 385 1144 l 242 986 l 340 986 l 429 1082 l 432 1082 l 521 986 l 622 986 l 478 1144 z "},"Ä":{"ha":850,"x_min":0,"x_max":0,"o":"m 589 294 l 689 0 l 818 0 l 499 936 l 353 936 l 35 0 l 160 0 l 257 294 z m 282 389 l 374 660 b 421 829 392 717 407 774 l 424 829 b 472 658 438 775 451 719 l 564 389 z m 303 999 b 369 1069 343 999 369 1031 b 303 1139 369 1108 342 1139 b 235 1069 264 1139 235 1107 b 301 999 235 1031 261 999 z m 560 999 b 628 1069 601 999 628 1031 b 561 1139 628 1108 600 1139 b 492 1069 521 1139 492 1107 b 558 999 492 1031 519 999 z "},"À":{"ha":850,"x_min":0,"x_max":0,"o":"m 589 294 l 689 0 l 818 0 l 499 936 l 353 936 l 35 0 l 160 0 l 257 294 z m 282 389 l 374 660 b 421 829 392 717 407 774 l 424 829 b 472 658 438 775 451 719 l 564 389 z m 224 1149 l 400 988 l 500 988 l 371 1149 z "},"Å":{"ha":850,"x_min":0,"x_max":0,"o":"m 589 294 l 689 0 l 818 0 l 499 936 l 353 936 l 35 0 l 160 0 l 257 294 z m 282 389 l 374 660 b 421 829 392 717 407 774 l 424 829 b 472 658 438 775 451 719 l 564 389 z m 429 1221 b 289 1094 343 1221 289 1164 b 429 972 289 1026 344 972 b 567 1094 510 972 567 1025 b 431 1221 567 1165 514 1221 z m 426 1169 b 494 1096 468 1169 494 1136 b 426 1024 494 1056 468 1024 b 361 1094 388 1024 361 1058 b 425 1169 361 1135 385 1169 z "},"Ã":{"ha":850,"x_min":0,"x_max":0,"o":"m 589 294 l 689 0 l 818 0 l 499 936 l 353 936 l 35 0 l 160 0 l 257 294 z m 282 389 l 374 660 b 421 829 392 717 407 774 l 424 829 b 472 658 438 775 451 719 l 564 389 z m 324 993 b 360 1054 326 1031 338 1054 b 425 1028 379 1054 399 1042 b 510 1001 456 1013 481 1001 b 603 1136 574 1001 604 1049 l 539 1136 b 501 1082 535 1092 522 1082 b 435 1107 479 1082 457 1094 b 353 1135 406 1122 383 1135 b 258 993 292 1135 256 1078 z "},"Ç":{"ha":813,"x_min":0,"x_max":0,"o":"m 735 126 b 538 88 686 103 611 88 b 178 464 310 88 178 235 b 543 850 178 710 324 850 b 732 811 621 850 686 833 l 761 910 b 539 951 729 926 656 951 b 50 460 249 951 50 753 b 443 -10 50 178 215 17 l 385 -117 b 493 -175 450 -124 493 -139 b 433 -218 493 -206 465 -218 b 357 -200 406 -218 378 -211 l 338 -262 b 436 -286 361 -276 400 -286 b 579 -174 508 -286 579 -254 b 482 -69 579 -117 533 -79 l 515 -14 b 760 31 632 -12 717 8 z "},"É":{"ha":683,"x_min":0,"x_max":0,"o":"m 590 539 l 226 539 l 226 835 l 611 835 l 611 936 l 106 936 l 106 0 l 632 0 l 632 101 l 226 101 l 226 439 l 590 439 z m 419 1149 l 290 986 l 390 986 l 567 1149 z "},"Ê":{"ha":683,"x_min":0,"x_max":0,"o":"m 590 539 l 226 539 l 226 835 l 611 835 l 611 936 l 106 936 l 106 0 l 632 0 l 632 101 l 226 101 l 226 439 l 590 439 z m 311 1144 l 168 986 l 267 986 l 356 1082 l 358 1082 l 447 986 l 549 986 l 404 1144 z "},"Ë":{"ha":683,"x_min":0,"x_max":0,"o":"m 590 539 l 226 539 l 226 835 l 611 835 l 611 936 l 106 936 l 106 0 l 632 0 l 632 101 l 226 101 l 226 439 l 590 439 z m 226 1001 b 293 1072 267 1001 293 1033 b 226 1142 293 1111 265 1142 b 158 1072 188 1142 158 1110 b 225 1001 158 1033 185 1001 z m 483 1001 b 551 1072 525 1001 551 1033 b 485 1142 551 1111 524 1142 b 415 1072 444 1142 415 1110 b 482 1001 415 1033 443 1001 z "},"È":{"ha":683,"x_min":0,"x_max":0,"o":"m 590 539 l 226 539 l 226 835 l 611 835 l 611 936 l 106 936 l 106 0 l 632 0 l 632 101 l 226 101 l 226 439 l 590 439 z m 165 1149 l 342 988 l 442 988 l 313 1149 z "},"Í":{"ha":332,"x_min":0,"x_max":0,"o":"m 106 936 l 106 0 l 226 0 l 226 936 z m 222 1149 l 93 986 l 193 986 l 369 1149 z "},"Î":{"ha":332,"x_min":0,"x_max":0,"o":"m 106 936 l 106 0 l 226 0 l 226 936 z m 119 1144 l -24 986 l 75 986 l 164 1082 l 167 1082 l 256 986 l 357 986 l 213 1144 z "},"Ï":{"ha":332,"x_min":0,"x_max":0,"o":"m 106 936 l 106 0 l 226 0 l 226 936 z m 39 1001 b 106 1072 79 1001 106 1033 b 39 1142 106 1111 78 1142 b -29 1072 0 1142 -29 1110 b 38 1001 -29 1033 -3 1001 z m 296 1001 b 364 1072 338 1001 364 1033 b 297 1142 364 1111 336 1142 b 228 1072 257 1142 228 1110 b 294 1001 228 1033 256 1001 z "},"Ì":{"ha":332,"x_min":0,"x_max":0,"o":"m 106 936 l 106 0 l 226 0 l 226 936 z m -35 1149 l 142 988 l 242 988 l 113 1149 z "},"Ñ":{"ha":914,"x_min":0,"x_max":0,"o":"m 219 0 l 219 400 b 210 786 219 556 217 668 l 214 788 b 389 475 261 686 324 579 l 686 0 l 808 0 l 808 936 l 694 936 l 694 544 b 708 160 694 399 697 285 l 706 158 b 538 463 661 254 607 353 l 238 936 l 106 936 l 106 0 z m 357 993 b 393 1054 360 1031 371 1054 b 458 1028 413 1054 432 1042 b 543 1001 489 1013 514 1001 b 636 1136 607 1001 638 1049 l 572 1136 b 535 1082 568 1092 556 1082 b 468 1107 513 1082 490 1094 b 386 1135 439 1122 417 1135 b 292 993 325 1135 289 1078 z "},"Ó":{"ha":957,"x_min":0,"x_max":0,"o":"m 485 951 b 50 460 235 951 50 757 b 471 -15 50 176 224 -15 b 906 478 710 -15 906 156 b 485 951 906 756 740 951 z m 479 853 b 778 472 681 853 778 658 b 478 83 778 260 669 83 b 179 463 288 83 179 263 b 479 853 179 668 279 853 z m 533 1153 l 404 990 l 504 990 l 681 1153 z "},"Ô":{"ha":957,"x_min":0,"x_max":0,"o":"m 485 951 b 50 460 235 951 50 757 b 471 -15 50 176 224 -15 b 906 478 710 -15 906 156 b 485 951 906 756 740 951 z m 479 853 b 778 472 681 853 778 658 b 478 83 778 260 669 83 b 179 463 288 83 179 263 b 479 853 179 668 279 853 z m 431 1149 l 288 990 l 386 990 l 475 1086 l 478 1086 l 567 990 l 668 990 l 524 1149 z "},"Ö":{"ha":957,"x_min":0,"x_max":0,"o":"m 485 951 b 50 460 235 951 50 757 b 471 -15 50 176 224 -15 b 906 478 710 -15 906 156 b 485 951 906 756 740 951 z m 479 853 b 778 472 681 853 778 658 b 478 83 778 260 669 83 b 179 463 288 83 179 263 b 479 853 179 668 279 853 z m 350 1001 b 417 1072 390 1001 417 1033 b 350 1142 417 1111 389 1142 b 282 1072 311 1142 282 1110 b 349 1001 282 1033 308 1001 z m 607 1001 b 675 1072 649 1001 675 1033 b 608 1142 675 1111 647 1142 b 539 1072 568 1142 539 1110 b 606 1001 539 1033 567 1001 z "},"Ò":{"ha":957,"x_min":0,"x_max":0,"o":"m 485 951 b 50 460 235 951 50 757 b 471 -15 50 176 224 -15 b 906 478 710 -15 906 156 b 485 951 906 756 740 951 z m 479 853 b 778 472 681 853 778 658 b 478 83 778 260 669 83 b 179 463 288 83 179 263 b 479 853 179 668 279 853 z m 276 1153 l 453 992 l 553 992 l 424 1153 z "},"Õ":{"ha":957,"x_min":0,"x_max":0,"o":"m 485 951 b 50 460 235 951 50 757 b 471 -15 50 176 224 -15 b 906 478 710 -15 906 156 b 485 951 906 756 740 951 z m 479 853 b 778 472 681 853 778 658 b 478 83 778 260 669 83 b 179 463 288 83 179 263 b 479 853 179 668 279 853 z m 371 996 b 407 1057 374 1033 385 1057 b 472 1031 426 1057 446 1044 b 557 1004 503 1015 528 1004 b 650 1139 621 1004 651 1051 l 586 1139 b 549 1085 582 1094 569 1085 b 482 1110 526 1085 504 1097 b 400 1138 453 1125 431 1138 b 306 996 339 1138 303 1081 z "},"Š":{"ha":685,"x_min":0,"x_max":0,"o":"m 58 46 b 297 -15 108 13 207 -15 b 625 256 518 -15 625 111 b 386 531 625 393 544 469 b 200 711 257 581 200 624 b 376 851 200 775 249 851 b 554 807 461 851 524 824 l 588 906 b 381 951 546 929 476 951 b 78 697 199 951 78 843 b 325 432 78 565 172 486 b 501 246 451 383 501 333 b 306 86 501 151 429 86 b 89 147 222 86 143 114 z m 406 990 l 549 1149 l 449 1149 l 361 1053 l 358 1053 l 269 1149 l 167 1149 l 313 990 z "},"Ú":{"ha":899,"x_min":0,"x_max":0,"o":"m 104 936 l 104 385 b 440 -15 104 94 249 -15 b 794 390 643 -15 794 103 l 794 936 l 672 936 l 672 382 b 444 83 672 175 583 83 b 226 382 319 83 226 172 l 226 936 z m 510 1149 l 381 986 l 481 986 l 657 1149 z "},"Û":{"ha":899,"x_min":0,"x_max":0,"o":"m 104 936 l 104 385 b 440 -15 104 94 249 -15 b 794 390 643 -15 794 103 l 794 936 l 672 936 l 672 382 b 444 83 672 175 583 83 b 226 382 319 83 226 172 l 226 936 z m 411 1144 l 268 986 l 367 986 l 456 1082 l 458 1082 l 547 986 l 649 986 l 504 1144 z "},"Ü":{"ha":899,"x_min":0,"x_max":0,"o":"m 104 936 l 104 385 b 440 -15 104 94 249 -15 b 794 390 643 -15 794 103 l 794 936 l 672 936 l 672 382 b 444 83 672 175 583 83 b 226 382 319 83 226 172 l 226 936 z m 325 1001 b 392 1072 365 1001 392 1033 b 325 1142 392 1111 364 1142 b 257 1072 286 1142 257 1110 b 324 1001 257 1033 283 1001 z m 582 1001 b 650 1072 624 1001 650 1033 b 583 1142 650 1111 622 1142 b 514 1072 543 1142 514 1110 b 581 1001 514 1033 542 1001 z "},"Ù":{"ha":899,"x_min":0,"x_max":0,"o":"m 104 936 l 104 385 b 440 -15 104 94 249 -15 b 794 390 643 -15 794 103 l 794 936 l 672 936 l 672 382 b 444 83 672 175 583 83 b 226 382 319 83 226 172 l 226 936 z m 254 1149 l 431 988 l 531 988 l 401 1149 z "},"Ý":{"ha":751,"x_min":0,"x_max":0,"o":"m 436 0 l 436 399 l 750 936 l 613 936 l 478 678 b 383 485 442 607 410 546 l 381 485 b 288 678 351 550 324 607 l 156 936 l 18 936 l 314 397 l 314 0 z m 444 1142 l 315 979 l 415 979 l 592 1142 z "},"Ÿ":{"ha":751,"x_min":0,"x_max":0,"o":"m 436 0 l 436 399 l 750 936 l 613 936 l 478 678 b 383 485 442 607 410 546 l 381 485 b 288 678 351 550 324 607 l 156 936 l 18 936 l 314 397 l 314 0 z m 260 992 b 326 1063 300 992 326 1024 b 260 1132 326 1101 299 1132 b 192 1063 221 1132 192 1100 b 258 992 192 1024 218 992 z m 517 992 b 585 1063 558 992 585 1024 b 518 1132 585 1101 557 1132 b 449 1063 478 1132 449 1100 b 515 992 449 1024 476 992 z "},"Ž":{"ha":768,"x_min":0,"x_max":0,"o":"m 42 0 l 725 0 l 725 101 l 201 101 l 201 106 l 718 863 l 718 936 l 86 936 l 86 835 l 561 835 l 561 831 l 42 71 z m 444 986 l 588 1144 l 488 1144 l 400 1049 l 397 1049 l 308 1144 l 206 1144 l 351 986 z "},"á":{"ha":669,"x_min":0,"x_max":0,"o":"m 382 963 l 260 764 l 347 764 l 517 963 z m 574 413 b 318 688 574 547 524 688 b 97 628 233 688 153 664 l 125 547 b 300 597 172 578 238 597 b 453 442 438 597 453 497 l 453 428 b 49 178 193 429 49 340 b 254 -15 49 81 118 -15 b 460 85 350 -15 422 32 l 464 85 l 474 0 l 585 0 b 574 161 576 46 574 103 z m 456 226 b 449 188 456 214 453 200 b 286 75 429 131 374 75 b 171 192 224 75 171 113 b 456 343 171 322 322 346 z "},"â":{"ha":669,"x_min":0,"x_max":0,"o":"m 286 963 l 156 764 l 246 764 l 326 896 l 329 896 l 410 764 l 504 764 l 371 963 z m 574 413 b 318 688 574 547 524 688 b 97 628 233 688 153 664 l 125 547 b 300 597 172 578 238 597 b 453 442 438 597 453 497 l 453 428 b 49 178 193 429 49 340 b 254 -15 49 81 118 -15 b 460 85 350 -15 422 32 l 464 85 l 474 0 l 585 0 b 574 161 576 46 574 103 z m 456 226 b 449 188 456 214 453 200 b 286 75 429 131 374 75 b 171 192 224 75 171 113 b 456 343 171 322 322 346 z "},"ä":{"ha":669,"x_min":0,"x_max":0,"o":"m 207 792 b 275 863 247 792 275 825 b 207 933 275 903 246 933 b 136 863 168 933 136 901 b 206 792 136 825 165 792 z m 464 792 b 532 863 504 792 532 825 b 464 933 532 903 503 933 b 394 863 425 933 394 901 b 463 792 394 825 422 792 z m 574 413 b 318 688 574 547 524 688 b 97 628 233 688 153 664 l 125 547 b 300 597 172 578 238 597 b 453 442 438 597 453 497 l 453 428 b 49 178 193 429 49 340 b 254 -15 49 81 118 -15 b 460 85 350 -15 422 32 l 464 85 l 474 0 l 585 0 b 574 161 576 46 574 103 z m 456 226 b 449 188 456 214 453 200 b 286 75 429 131 374 75 b 171 192 224 75 171 113 b 456 343 171 322 322 346 z "},"à":{"ha":669,"x_min":0,"x_max":0,"o":"m 132 963 l 301 764 l 388 764 l 267 963 z m 574 413 b 318 688 574 547 524 688 b 97 628 233 688 153 664 l 125 547 b 300 597 172 578 238 597 b 453 442 438 597 453 497 l 453 428 b 49 178 193 429 49 340 b 254 -15 49 81 118 -15 b 460 85 350 -15 422 32 l 464 85 l 474 0 l 585 0 b 574 161 576 46 574 103 z m 456 226 b 449 188 456 214 453 200 b 286 75 429 131 374 75 b 171 192 224 75 171 113 b 456 343 171 322 322 346 z "},"å":{"ha":669,"x_min":0,"x_max":0,"o":"m 333 746 b 472 874 413 746 472 800 b 335 1004 472 947 418 1004 b 193 872 247 1004 193 946 b 333 746 193 801 250 746 z m 332 797 b 264 872 292 797 264 836 b 332 951 264 915 289 951 b 404 875 376 951 404 917 b 332 797 404 833 376 797 z m 574 413 b 318 688 574 547 524 688 b 97 628 233 688 153 664 l 125 547 b 300 597 172 578 238 597 b 453 442 438 597 453 497 l 453 428 b 49 178 193 429 49 340 b 254 -15 49 81 118 -15 b 460 85 350 -15 422 32 l 464 85 l 474 0 l 585 0 b 574 161 576 46 574 103 z m 456 226 b 449 188 456 214 453 200 b 286 75 429 131 374 75 b 171 192 224 75 171 113 b 456 343 171 322 322 346 z "},"ã":{"ha":669,"x_min":0,"x_max":0,"o":"m 226 788 b 263 850 229 826 240 850 b 322 825 279 850 294 842 b 407 797 351 810 378 797 b 503 938 472 797 504 844 l 438 938 b 399 878 435 890 421 878 b 340 901 382 878 363 889 b 254 932 308 919 285 932 b 160 788 194 932 157 878 z m 574 413 b 318 688 574 547 524 688 b 97 628 233 688 153 664 l 125 547 b 300 597 172 578 238 597 b 453 442 438 597 453 497 l 453 428 b 49 178 193 429 49 340 b 254 -15 49 81 118 -15 b 460 85 350 -15 422 32 l 464 85 l 474 0 l 585 0 b 574 161 576 46 574 103 z m 456 226 b 449 188 456 214 453 200 b 286 75 429 131 374 75 b 171 192 224 75 171 113 b 456 343 171 322 322 346 z "},"ç":{"ha":621,"x_min":0,"x_max":0,"o":"m 560 117 b 410 83 526 101 479 83 b 176 335 276 83 176 179 b 414 589 176 475 260 589 b 556 557 481 589 526 574 l 583 651 b 414 686 550 668 486 686 b 53 329 194 686 53 536 b 333 -10 53 143 163 11 l 275 -117 b 383 -175 340 -124 382 -137 b 324 -218 383 -208 356 -218 b 247 -200 296 -218 268 -212 l 226 -262 b 324 -286 253 -278 292 -286 b 468 -171 399 -286 468 -254 b 371 -69 468 -114 421 -79 l 406 -14 b 582 25 489 -12 553 10 z "},"é":{"ha":696,"x_min":0,"x_max":0,"o":"m 422 963 l 300 764 l 388 764 l 557 963 z m 642 314 b 646 371 643 326 646 346 b 368 688 646 494 588 688 b 53 325 172 688 53 528 b 383 -15 53 122 176 -15 b 607 28 490 -15 564 8 l 586 115 b 400 81 540 96 488 81 b 169 314 278 81 172 149 z m 171 401 b 358 600 181 486 235 600 b 528 401 496 600 529 479 z "},"ê":{"ha":696,"x_min":0,"x_max":0,"o":"m 322 963 l 192 764 l 282 764 l 363 896 l 365 896 l 446 764 l 540 764 l 407 963 z m 642 314 b 646 371 643 326 646 346 b 368 688 646 494 588 688 b 53 325 172 688 53 528 b 383 -15 53 122 176 -15 b 607 28 490 -15 564 8 l 586 115 b 400 81 540 96 488 81 b 169 314 278 81 172 149 z m 171 401 b 358 600 181 486 235 600 b 528 401 496 600 529 479 z "},"ë":{"ha":696,"x_min":0,"x_max":0,"o":"m 244 792 b 313 863 285 792 313 825 b 244 933 313 903 283 933 b 174 863 206 933 174 901 b 243 792 174 825 203 792 z m 501 792 b 569 863 542 792 569 825 b 501 933 569 903 540 933 b 432 863 463 933 432 901 b 500 792 432 825 460 792 z m 642 314 b 646 371 643 326 646 346 b 368 688 646 494 588 688 b 53 325 172 688 53 528 b 383 -15 53 122 176 -15 b 607 28 490 -15 564 8 l 586 115 b 400 81 540 96 488 81 b 169 314 278 81 172 149 z m 171 401 b 358 600 181 486 235 600 b 528 401 496 600 529 479 z "},"è":{"ha":696,"x_min":0,"x_max":0,"o":"m 188 963 l 357 764 l 443 764 l 322 963 z m 642 314 b 646 371 643 326 646 346 b 368 688 646 494 588 688 b 53 325 172 688 53 528 b 383 -15 53 122 176 -15 b 607 28 490 -15 564 8 l 586 115 b 400 81 540 96 488 81 b 169 314 278 81 172 149 z m 171 401 b 358 600 181 486 235 600 b 528 401 496 600 529 479 z "},"í":{"ha":325,"x_min":0,"x_max":0,"o":"m 215 963 l 93 764 l 181 764 l 350 963 z m 224 0 l 224 672 l 101 672 l 101 0 z "},"î":{"ha":325,"x_min":0,"x_max":0,"o":"m 119 963 l -11 764 l 79 764 l 160 896 l 163 896 l 243 764 l 338 764 l 204 963 z m 224 0 l 224 672 l 101 672 l 101 0 z "},"ï":{"ha":325,"x_min":0,"x_max":0,"o":"m 35 792 b 103 863 75 792 103 825 b 35 933 103 903 74 933 b -36 863 -4 933 -36 901 b 33 792 -36 825 -7 792 z m 292 792 b 360 863 332 792 360 825 b 292 933 360 903 331 933 b 222 863 253 933 222 901 b 290 792 222 825 250 792 z m 224 0 l 224 672 l 101 672 l 101 0 z "},"ì":{"ha":325,"x_min":0,"x_max":0,"o":"m -37 963 l 132 764 l 218 764 l 97 963 z m 224 0 l 224 672 l 101 672 l 101 0 z "},"ñ":{"ha":771,"x_min":0,"x_max":0,"o":"m 282 788 b 318 850 285 826 296 850 b 378 825 335 850 350 842 b 463 797 407 810 433 797 b 558 938 528 797 560 844 l 493 938 b 454 878 490 890 476 878 b 396 901 438 878 418 889 b 310 932 364 919 340 932 b 215 788 250 932 213 878 z m 101 0 l 224 0 l 224 404 b 232 461 224 425 226 446 b 396 586 253 529 315 586 b 551 388 511 586 551 496 l 551 0 l 674 0 l 674 401 b 436 688 674 632 529 688 b 214 561 325 688 247 625 l 211 561 l 204 672 l 96 672 b 101 490 100 617 101 560 z "},"ó":{"ha":763,"x_min":0,"x_max":0,"o":"m 429 963 l 307 764 l 394 764 l 564 963 z m 386 688 b 53 331 200 688 53 556 b 375 -15 53 118 193 -15 b 710 342 538 -15 710 93 b 386 688 710 547 579 688 z m 383 596 b 585 338 528 596 585 451 b 381 76 585 186 497 76 b 176 335 261 76 176 188 b 383 596 176 463 239 596 z "},"ô":{"ha":763,"x_min":0,"x_max":0,"o":"m 338 963 l 207 764 l 297 764 l 378 896 l 381 896 l 461 764 l 556 764 l 422 963 z m 386 688 b 53 331 200 688 53 556 b 375 -15 53 118 193 -15 b 710 342 538 -15 710 93 b 386 688 710 547 579 688 z m 383 596 b 585 338 528 596 585 451 b 381 76 585 186 497 76 b 176 335 261 76 176 188 b 383 596 176 463 239 596 z "},"ö":{"ha":763,"x_min":0,"x_max":0,"o":"m 253 792 b 321 863 293 792 321 825 b 253 933 321 903 292 933 b 182 863 214 933 182 901 b 251 792 182 825 211 792 z m 510 792 b 578 863 550 792 578 825 b 510 933 578 903 549 933 b 440 863 471 933 440 901 b 508 792 440 825 468 792 z m 386 688 b 53 331 200 688 53 556 b 375 -15 53 118 193 -15 b 710 342 538 -15 710 93 b 386 688 710 547 579 688 z m 383 596 b 585 338 528 596 585 451 b 381 76 585 186 497 76 b 176 335 261 76 176 188 b 383 596 176 463 239 596 z "},"ò":{"ha":763,"x_min":0,"x_max":0,"o":"m 201 963 l 371 764 l 457 764 l 336 963 z m 386 688 b 53 331 200 688 53 556 b 375 -15 53 118 193 -15 b 710 342 538 -15 710 93 b 386 688 710 547 579 688 z m 383 596 b 585 338 528 596 585 451 b 381 76 585 186 497 76 b 176 335 261 76 176 188 b 383 596 176 463 239 596 z "},"õ":{"ha":763,"x_min":0,"x_max":0,"o":"m 276 788 b 313 850 279 826 290 850 b 372 825 329 850 344 842 b 457 797 401 810 428 797 b 553 938 522 797 554 844 l 488 938 b 449 878 485 890 471 878 b 390 901 432 878 413 889 b 304 932 358 919 335 932 b 210 788 244 932 207 878 z m 386 688 b 53 331 200 688 53 556 b 375 -15 53 118 193 -15 b 710 342 538 -15 710 93 b 386 688 710 547 579 688 z m 383 596 b 585 338 528 596 585 451 b 381 76 585 186 497 76 b 176 335 261 76 176 188 b 383 596 176 463 239 596 z "},"š":{"ha":550,"x_min":0,"x_max":0,"o":"m 326 764 l 457 963 l 365 963 l 283 831 l 281 831 l 199 963 l 104 963 l 238 764 z m 54 32 b 243 -15 101 4 169 -15 b 494 188 403 -15 494 69 b 318 390 494 288 435 346 b 190 504 231 424 190 449 b 303 596 190 554 231 596 b 440 557 365 596 414 574 l 471 646 b 306 688 433 668 374 688 b 74 490 161 688 74 599 b 251 300 74 410 131 343 b 376 176 342 267 376 235 b 246 76 376 121 335 76 b 85 125 185 76 121 101 z "},"ú":{"ha":765,"x_min":0,"x_max":0,"o":"m 446 963 l 324 764 l 411 764 l 581 963 z m 664 672 l 542 672 l 542 260 b 531 197 542 238 538 215 b 369 86 508 143 451 86 b 219 300 258 86 219 172 l 219 672 l 97 672 l 97 279 b 329 -15 97 43 224 -15 b 551 110 449 -15 519 56 l 554 110 l 561 0 l 669 0 b 664 183 665 53 664 114 z "},"û":{"ha":765,"x_min":0,"x_max":0,"o":"m 339 963 l 208 764 l 299 764 l 379 896 l 382 896 l 463 764 l 557 764 l 424 963 z m 664 672 l 542 672 l 542 260 b 531 197 542 238 538 215 b 369 86 508 143 451 86 b 219 300 258 86 219 172 l 219 672 l 97 672 l 97 279 b 329 -15 97 43 224 -15 b 551 110 449 -15 519 56 l 554 110 l 561 0 l 669 0 b 664 183 665 53 664 114 z "},"ü":{"ha":765,"x_min":0,"x_max":0,"o":"m 258 792 b 326 863 299 792 326 825 b 258 933 326 903 297 933 b 188 863 219 933 188 901 b 257 792 188 825 217 792 z m 515 792 b 583 863 556 792 583 825 b 515 933 583 903 554 933 b 446 863 476 933 446 901 b 514 792 446 825 474 792 z m 664 672 l 542 672 l 542 260 b 531 197 542 238 538 215 b 369 86 508 143 451 86 b 219 300 258 86 219 172 l 219 672 l 97 672 l 97 279 b 329 -15 97 43 224 -15 b 551 110 449 -15 519 56 l 554 110 l 561 0 l 669 0 b 664 183 665 53 664 114 z "},"ù":{"ha":765,"x_min":0,"x_max":0,"o":"m 194 963 l 364 764 l 450 764 l 329 963 z m 664 672 l 542 672 l 542 260 b 531 197 542 238 538 215 b 369 86 508 143 451 86 b 219 300 258 86 219 172 l 219 672 l 97 672 l 97 279 b 329 -15 97 43 224 -15 b 551 110 449 -15 519 56 l 554 110 l 561 0 l 669 0 b 664 183 665 53 664 114 z "},"ý":{"ha":654,"x_min":0,"x_max":0,"o":"m 396 963 l 274 764 l 361 764 l 531 963 z m 13 672 l 261 53 b 269 21 267 38 269 28 b 260 -8 269 14 265 4 b 157 -144 232 -71 190 -118 b 50 -204 121 -175 81 -194 l 81 -307 b 231 -228 111 -301 171 -281 b 461 193 314 -156 374 -37 l 644 672 l 515 672 l 382 278 b 339 138 365 229 351 178 l 336 138 b 293 275 325 178 308 231 l 146 672 z "},"ÿ":{"ha":654,"x_min":0,"x_max":0,"o":"m 215 792 b 283 863 256 792 283 825 b 215 933 283 903 254 933 b 144 863 176 933 144 901 b 214 792 144 825 174 792 z m 472 792 b 540 863 513 792 540 825 b 472 933 540 903 511 933 b 403 863 433 933 403 901 b 471 792 403 825 431 792 z m 13 672 l 261 53 b 269 21 267 38 269 28 b 260 -8 269 14 265 4 b 157 -144 232 -71 190 -118 b 50 -204 121 -175 81 -194 l 81 -307 b 231 -228 111 -301 171 -281 b 461 193 314 -156 374 -37 l 644 672 l 515 672 l 382 278 b 339 138 365 229 351 178 l 336 138 b 293 275 325 178 308 231 l 146 672 z "},"ž":{"ha":594,"x_min":0,"x_max":0,"o":"m 360 764 l 490 963 l 399 963 l 317 831 l 314 831 l 232 963 l 138 963 l 271 764 z m 25 0 l 571 0 l 571 97 l 178 97 l 178 100 b 264 206 208 135 236 168 l 564 596 l 565 672 l 53 672 l 53 574 l 417 574 l 417 571 b 329 467 386 535 358 503 l 25 71 z "},"Đ":{"ha":932,"x_min":0,"x_max":0,"o":"m -3 426 l 113 426 l 113 0 b 332 -10 174 -7 244 -10 b 746 125 513 -10 658 38 b 881 490 833 213 881 336 b 749 831 881 644 832 754 b 369 947 667 907 542 947 b 113 926 274 947 186 939 l 113 524 l -3 524 z m 483 524 l 233 524 l 233 838 b 375 850 265 844 313 850 b 754 489 631 850 756 713 b 354 88 754 231 615 88 b 233 93 308 88 264 89 l 233 426 l 483 426 z "},"Ŋ":{"ha":914,"x_min":0,"x_max":0,"o":"m 219 0 l 219 400 b 210 786 219 556 217 668 l 214 788 b 389 475 261 686 324 579 l 692 -8 b 515 -182 682 -107 626 -160 l 540 -276 b 808 53 718 -250 808 -146 l 808 936 l 694 936 l 694 544 b 708 160 694 399 697 285 l 706 158 b 538 463 661 254 607 353 l 238 936 l 106 936 l 106 0 z "},"Ħ":{"ha":913,"x_min":0,"x_max":0,"o":"m 883 665 l 883 746 l 804 746 l 804 936 l 682 936 l 682 746 l 229 746 l 229 936 l 108 936 l 108 746 l 29 746 l 29 665 l 108 665 l 108 0 l 229 0 l 229 419 l 682 419 l 682 0 l 804 0 l 804 665 z m 682 524 l 229 524 l 229 665 l 682 665 z "},"Ŧ":{"ha":690,"x_min":0,"x_max":0,"o":"m 692 833 l 692 936 l -1 936 l -1 833 l 283 833 l 283 525 l 111 525 l 111 444 l 283 444 l 283 0 l 406 0 l 406 444 l 578 444 l 578 525 l 406 525 l 406 833 z "},"Ȝ":{"ha":667,"x_min":0,"x_max":0,"o":"m 88 -160 b 613 261 407 -122 613 47 b 364 515 613 410 504 501 l 364 519 b 535 747 458 563 535 643 b 281 951 535 868 432 951 b 43 886 186 951 88 914 l 68 804 b 258 854 103 822 183 854 b 413 728 349 854 413 803 b 133 497 413 618 290 533 l 150 411 b 281 436 197 426 251 436 b 485 253 411 438 485 356 b 72 -64 485 89 294 -31 z "},"đ":{"ha":783,"x_min":0,"x_max":0,"o":"m 789 767 l 789 843 l 682 843 l 682 986 l 560 986 l 560 843 l 286 843 l 286 767 l 560 767 l 560 585 l 557 585 b 354 688 526 639 457 688 b 53 326 190 688 51 550 b 340 -15 53 122 178 -15 b 569 117 450 -15 532 42 l 572 117 l 578 0 l 688 0 b 682 174 683 46 682 114 l 682 767 z m 560 282 b 554 229 560 263 558 246 b 375 83 532 138 457 83 b 176 332 243 83 176 196 b 378 592 176 481 251 592 b 554 450 469 592 536 528 b 560 399 558 435 560 414 z "},"ŋ":{"ha":771,"x_min":0,"x_max":0,"o":"m 101 0 l 224 0 l 224 404 b 232 461 224 425 226 446 b 396 586 253 529 315 586 b 551 388 511 586 551 496 l 551 71 b 386 -151 551 -58 496 -129 l 410 -249 b 674 82 558 -228 674 -132 l 674 401 b 436 688 674 632 529 688 b 214 561 325 688 247 625 l 211 561 l 204 672 l 96 672 b 101 490 100 617 101 560 z "},"ħ":{"ha":771,"x_min":0,"x_max":0,"o":"m 674 0 l 674 400 b 439 688 674 632 529 688 b 314 653 393 688 350 674 b 226 567 276 632 246 601 l 224 567 l 224 767 l 492 767 l 492 843 l 224 843 l 224 986 l 101 986 l 101 843 l -6 843 l -6 767 l 101 767 l 101 0 l 224 0 l 224 406 b 232 464 224 429 225 447 b 396 586 254 531 317 586 b 551 386 511 586 551 494 l 551 0 z "},"ĸ":{"ha":651,"x_min":0,"x_max":0,"o":"m 222 672 l 101 672 l 101 0 l 222 0 l 222 253 l 285 322 l 517 0 l 665 0 l 369 396 l 629 672 l 482 672 l 285 440 b 225 364 265 417 242 388 l 222 364 z "},"ŉ":{"ha":771,"x_min":0,"x_max":0,"o":"m 101 0 l 224 0 l 224 404 b 232 461 224 425 226 446 b 396 586 253 529 315 586 b 551 388 511 586 551 496 l 551 0 l 674 0 l 674 401 b 436 688 674 632 529 688 b 214 561 325 688 247 625 l 211 561 l 204 672 l 96 672 b 101 490 100 617 101 560 z m 78 744 b 171 904 100 761 171 811 b 122 1004 171 953 146 990 l 33 981 b 76 899 57 961 76 931 b 25 785 76 846 49 811 z "},"ŧ":{"ha":460,"x_min":0,"x_max":0,"o":"m 424 579 l 424 672 l 249 672 l 249 833 l 129 796 l 129 672 l 25 672 l 25 579 l 129 579 l 129 419 l 36 419 l 36 344 l 129 344 l 129 213 b 176 38 129 133 142 74 b 308 -15 206 4 251 -15 b 417 3 356 -15 393 -7 l 411 94 b 340 86 393 89 374 86 b 249 211 275 86 249 131 l 249 344 l 385 344 l 385 419 l 249 419 l 249 579 z "},"ȝ":{"ha":593,"x_min":0,"x_max":0,"o":"m 61 -290 b 556 79 383 -264 556 -101 b 340 297 556 201 468 283 l 340 301 b 488 496 428 336 488 404 b 254 688 488 613 394 688 b 28 619 164 688 79 653 l 53 539 b 225 592 86 557 154 592 b 369 475 314 592 369 547 b 113 283 369 374 261 318 l 131 196 b 253 217 168 207 214 217 b 431 65 376 217 431 147 b 49 -196 431 -150 101 -192 z "},"Ĳ":{"ha":846,"x_min":0,"x_max":0,"o":"m 106 936 l 106 0 l 226 0 l 226 936 z m 629 319 b 457 88 629 136 565 88 b 356 106 417 88 381 96 l 338 7 b 467 -15 368 -6 422 -15 b 750 310 628 -15 750 61 l 750 936 l 629 936 z "},"ﬀ":{"ha":810,"x_min":0,"x_max":0,"o":"m 639 0 l 639 579 l 800 579 l 800 672 l 638 672 l 638 708 b 768 903 638 811 665 903 b 847 888 804 903 828 896 l 863 982 b 758 1001 839 992 803 1001 b 596 939 703 1001 642 983 b 517 704 539 885 517 799 l 517 672 l 235 672 l 235 700 b 357 888 235 806 261 888 b 429 869 385 888 411 879 l 454 961 b 358 985 433 972 397 985 b 189 921 283 985 228 961 b 114 692 136 868 114 786 l 114 672 l 19 672 l 19 579 l 114 579 l 114 0 l 235 0 l 235 579 l 517 579 l 517 0 z "},"ﬃ":{"ha":1132,"x_min":0,"x_max":0,"o":"m 979 958 b 813 1001 943 983 874 1001 b 518 708 624 1001 518 886 l 518 672 l 235 672 l 235 696 b 279 853 235 756 246 817 b 367 888 300 875 328 888 b 451 864 399 888 431 876 l 485 954 b 367 985 460 968 413 985 b 194 919 292 985 233 958 b 114 696 136 863 114 779 l 114 672 l 19 672 l 19 579 l 114 579 l 114 0 l 235 0 l 235 579 l 518 579 l 518 0 l 640 0 l 640 579 l 908 579 l 908 0 l 1031 0 l 1031 672 l 639 672 l 639 706 b 807 903 639 813 678 903 b 943 867 863 903 913 886 z "},"":{"ha":1124,"x_min":0,"x_max":0,"o":"m 979 958 b 813 1001 943 983 874 1001 b 518 708 624 1001 518 886 l 518 672 l 235 672 l 235 696 b 279 853 235 756 246 817 b 367 888 300 875 328 888 b 451 864 399 888 431 876 l 485 954 b 367 985 460 968 413 985 b 194 919 292 985 233 958 b 114 696 136 863 114 779 l 114 672 l 19 672 l 19 579 l 114 579 l 114 0 l 235 0 l 235 579 l 518 579 l 518 0 l 640 0 l 640 579 l 908 579 l 908 107 b 863 -146 908 -54 896 -108 b 729 -197 833 -178 785 -193 l 742 -293 b 950 -217 807 -293 896 -271 b 1031 60 1010 -156 1031 -71 l 1031 672 l 639 672 l 639 706 b 807 903 639 813 678 903 b 943 867 863 903 913 886 z "},"ﬄ":{"ha":1132,"x_min":0,"x_max":0,"o":"m 485 958 b 374 985 464 969 418 985 b 192 917 297 985 235 960 b 114 688 133 860 114 774 l 114 672 l 19 672 l 19 579 l 114 579 l 114 0 l 235 0 l 235 579 l 518 579 l 518 0 l 640 0 l 640 579 l 797 579 l 797 672 l 639 672 l 639 706 b 808 907 639 814 682 907 b 910 889 857 907 888 900 l 910 0 l 1031 0 l 1031 957 b 829 1001 979 985 907 1001 b 614 933 735 1001 665 978 b 518 701 551 878 518 794 l 518 672 l 235 672 l 235 697 b 279 851 235 760 246 817 b 369 888 300 875 329 888 b 453 867 399 888 428 881 z "},"ﬁ":{"ha":726,"x_min":0,"x_max":0,"o":"m 235 0 l 235 579 l 504 579 l 504 0 l 625 0 l 625 672 l 235 672 l 235 706 b 401 903 235 813 272 903 b 543 864 461 903 514 885 l 578 957 b 407 1001 543 982 469 1001 b 114 708 218 1001 114 886 l 114 672 l 19 672 l 19 579 l 114 579 l 114 0 z "},"":{"ha":725,"x_min":0,"x_max":0,"o":"m 235 0 l 235 579 l 504 579 l 504 107 b 457 -146 504 -54 490 -108 b 324 -197 428 -178 381 -193 l 336 -293 b 544 -217 401 -293 492 -271 b 625 60 604 -156 625 -71 l 625 672 l 235 672 l 235 706 b 401 903 235 813 272 903 b 543 864 461 903 514 885 l 578 957 b 407 1001 543 982 469 1001 b 114 708 218 1001 114 886 l 114 672 l 19 672 l 19 579 l 114 579 l 114 0 z "},"ﬂ":{"ha":726,"x_min":0,"x_max":0,"o":"m 235 0 l 235 579 l 392 579 l 392 672 l 235 672 l 235 706 b 404 907 235 814 276 907 b 504 889 451 907 483 900 l 504 0 l 625 0 l 625 957 b 424 1001 575 985 501 1001 b 208 933 331 1001 261 978 b 114 701 146 878 114 794 l 114 672 l 19 672 l 19 579 l 114 579 l 114 0 z "},"ĳ":{"ha":663,"x_min":0,"x_max":0,"o":"m 224 0 l 224 672 l 101 672 l 101 0 z m 163 938 b 86 861 118 938 86 904 b 160 786 86 819 117 786 b 238 861 208 786 239 819 b 163 938 238 904 208 938 z m 275 -293 b 483 -217 340 -293 429 -271 b 564 60 543 -156 564 -71 l 564 672 l 442 672 l 442 107 b 396 -146 442 -54 429 -108 b 263 -197 367 -178 318 -193 z m 504 938 b 426 861 458 938 426 904 b 501 786 426 821 456 786 b 578 861 550 786 579 821 b 504 938 578 904 549 938 z "},"":{"ha":713,"x_min":0,"x_max":0,"o":"m 203 233 b 168 456 179 293 168 368 b 357 824 169 678 243 824 b 482 753 413 824 454 797 z m 515 668 b 544 456 535 608 544 536 b 354 79 544 225 481 79 b 235 147 306 79 265 103 z m 658 901 l 596 942 l 540 850 b 364 918 494 896 435 918 b 50 449 181 918 49 753 b 129 113 50 304 79 190 l 64 10 l 125 -33 l 176 54 b 350 -15 225 7 285 -15 b 663 461 549 -15 663 154 b 589 792 663 600 638 713 z "},"€":{"ha":713,"x_min":0,"x_max":0,"o":"m 665 131 b 496 85 633 113 569 85 b 300 165 421 85 351 111 b 224 347 263 207 235 267 l 617 347 l 617 415 l 214 415 b 214 440 214 425 214 432 b 217 499 214 460 215 481 l 617 499 l 617 568 l 229 568 b 313 744 243 642 271 704 b 496 821 360 794 421 821 b 651 782 558 821 617 801 l 679 874 b 494 918 640 894 576 918 b 219 803 381 918 290 876 b 106 568 164 746 122 665 l 14 568 l 14 499 l 96 499 b 93 436 94 479 93 458 b 93 415 93 429 93 422 l 14 415 l 14 347 l 100 347 b 200 108 113 247 147 167 b 482 -15 269 28 369 -15 b 689 43 574 -15 646 14 z "},"№":{"ha":1272,"x_min":0,"x_max":0,"o":"m 1011 889 b 790 643 892 889 790 800 b 1010 406 790 492 886 406 b 1229 650 1121 406 1229 476 b 1013 889 1229 794 1146 889 z m 1010 819 b 1129 647 1096 819 1129 728 b 1010 474 1129 546 1083 474 b 890 644 944 474 890 546 b 1008 819 890 728 928 819 z m 1193 274 l 1193 346 l 828 346 l 828 274 z m 211 0 l 211 374 b 203 760 211 533 208 643 l 207 761 b 349 456 249 658 297 556 l 588 0 l 711 0 l 711 908 l 603 908 l 603 539 b 615 157 603 394 606 283 l 614 156 b 472 457 575 250 528 350 l 236 908 l 103 908 l 103 0 z "},"℮":{"ha":1135,"x_min":0,"x_max":0,"o":"m 1086 439 b 1086 451 1086 443 1086 447 b 568 918 1086 710 854 918 b 49 451 282 918 49 710 b 568 -15 49 193 282 -15 b 979 167 735 -15 885 57 l 903 167 b 569 13 822 72 703 13 b 251 150 444 13 331 65 b 239 179 244 158 239 168 l 239 433 b 246 439 239 438 242 439 z m 897 472 b 890 465 897 468 894 465 l 246 465 b 239 472 242 465 239 468 l 239 722 b 253 754 239 735 244 746 b 569 890 333 838 444 890 b 883 758 692 890 803 839 b 897 728 892 750 897 740 z "},"":{"ha":736,"x_min":0,"x_max":0,"o":"m 368 -15 b 681 338 542 -15 681 117 b 368 689 681 561 540 689 b 56 338 196 689 56 556 b 367 -15 56 113 196 -15 z m 368 78 b 174 338 246 78 174 188 b 368 596 174 486 246 596 b 563 338 490 596 563 486 b 369 78 563 188 492 78 z "},"":{"ha":503,"x_min":0,"x_max":0,"o":"m 365 0 l 365 674 l 264 674 l 36 571 l 58 481 l 246 567 l 249 567 l 249 0 z "},"":{"ha":622,"x_min":0,"x_max":0,"o":"m 583 0 l 583 97 l 331 97 b 218 92 296 97 251 96 l 218 96 l 289 147 b 535 475 435 250 535 346 b 293 692 535 613 435 692 b 42 607 182 692 90 643 l 74 528 b 263 594 122 561 190 594 b 413 458 349 594 413 549 b 100 114 413 346 310 251 l 33 67 l 33 0 z "},"":{"ha":601,"x_min":0,"x_max":0,"o":"m 24 -132 b 200 -160 56 -144 128 -160 b 550 106 388 -160 550 -54 b 346 307 550 224 456 292 l 346 310 b 510 503 440 338 510 408 b 268 689 510 618 410 689 b 46 626 176 689 89 656 l 71 546 b 242 593 104 564 171 593 b 388 482 332 593 388 557 b 161 335 388 396 290 344 l 135 333 l 138 243 b 214 246 154 244 182 246 b 425 104 342 246 425 192 b 190 -64 425 3 328 -64 b 39 -40 132 -64 74 -53 z "},"":{"ha":697,"x_min":0,"x_max":0,"o":"m 671 69 l 671 163 l 544 163 l 544 683 l 413 683 l 25 149 l 25 69 l 431 69 l 431 -162 l 544 -162 l 544 69 z m 431 163 l 149 163 l 146 167 l 354 442 b 429 572 381 482 407 529 l 435 572 b 431 440 431 528 431 486 z "},"":{"ha":613,"x_min":0,"x_max":0,"o":"m 50 -135 b 208 -160 85 -149 147 -160 b 558 124 415 -160 558 -47 b 494 281 558 183 536 240 b 188 367 421 351 303 368 l 229 574 l 531 574 l 546 674 l 147 674 l 75 275 b 392 215 228 286 338 269 b 435 114 418 189 435 154 b 207 -65 435 -3 325 -65 b 65 -47 154 -65 97 -57 z "},"":{"ha":722,"x_min":0,"x_max":0,"o":"m 600 842 b 65 326 267 824 65 614 b 374 -15 65 122 189 -15 b 663 281 518 -15 663 94 b 403 547 663 446 544 547 b 200 446 307 547 235 496 l 196 446 b 608 751 228 604 358 736 z m 374 78 b 188 286 261 78 188 174 b 233 400 188 332 199 365 b 372 460 258 428 310 460 b 542 275 474 460 542 388 b 375 78 542 143 456 78 z "},"":{"ha":594,"x_min":0,"x_max":0,"o":"m 563 674 l 25 674 l 25 572 l 438 572 l 438 569 b 56 -136 364 375 169 28 l 169 -158 b 563 596 310 60 476 369 z "},"":{"ha":713,"x_min":0,"x_max":0,"o":"m 476 444 b 624 633 575 492 624 553 b 364 843 624 750 521 843 b 90 618 210 843 90 751 b 231 439 90 531 151 472 l 231 435 b 57 215 128 389 57 317 b 353 -15 57 81 178 -15 b 656 231 519 -15 656 81 b 476 440 656 329 582 403 z m 363 760 b 510 628 438 760 510 715 b 375 478 510 550 450 500 b 208 628 271 506 208 553 b 361 760 208 708 278 760 z m 354 72 b 179 228 246 72 179 138 b 333 399 179 304 242 368 b 531 219 460 365 531 307 b 356 72 531 132 453 72 z "},"":{"ha":722,"x_min":0,"x_max":0,"o":"m 114 -158 b 656 358 435 -149 656 47 b 361 692 656 571 525 692 b 60 396 192 692 60 564 b 319 129 60 229 179 129 b 518 224 414 129 490 176 l 521 222 b 106 -68 483 58 343 -58 z m 350 215 b 182 404 260 215 182 276 b 356 597 182 535 271 597 b 535 389 453 597 535 515 b 514 306 535 356 526 325 b 351 215 488 257 421 215 z "},"":{"ha":1136,"x_min":0,"x_max":0,"o":"m 256 838 b 38 556 136 838 38 736 b 249 283 39 374 136 283 b 465 568 365 283 465 378 b 257 838 465 740 382 838 z m 253 764 b 368 563 338 764 368 672 b 251 357 368 443 333 357 b 135 560 176 357 133 446 b 251 764 135 674 176 764 z m 363 -17 l 850 844 l 774 844 l 285 -17 z m 889 544 b 671 261 769 544 669 443 b 882 -10 671 81 769 -10 b 1097 275 997 -10 1097 85 b 890 544 1097 447 1015 544 z m 885 471 b 1001 269 969 471 1001 379 b 885 64 1001 150 965 64 b 767 267 810 64 765 151 b 883 471 768 381 808 471 z "},"":{"ha":713,"x_min":0,"x_max":0,"o":"m 364 918 b 50 449 181 918 50 751 b 349 -15 53 150 172 -15 b 663 461 549 -15 663 154 b 364 918 663 749 554 918 z m 357 824 b 540 456 483 824 540 678 b 356 79 540 225 481 79 b 172 447 244 79 172 213 b 357 824 172 693 250 824 z "},"":{"ha":453,"x_min":0,"x_max":0,"o":"m 210 0 l 328 0 l 328 903 l 224 903 l 26 797 l 50 704 l 207 789 l 210 789 z "},"":{"ha":621,"x_min":0,"x_max":0,"o":"m 581 0 l 581 101 l 175 101 l 175 104 l 247 171 b 558 656 438 354 558 489 b 282 918 558 785 476 918 b 26 826 178 918 89 879 l 65 740 b 257 817 107 775 175 817 b 436 640 392 817 436 732 b 100 168 435 504 331 388 l 4 75 l 4 0 z "},"":{"ha":625,"x_min":0,"x_max":0,"o":"m 10 46 b 244 -15 54 17 143 -15 b 574 256 461 -15 574 111 b 372 488 574 382 483 465 l 372 490 b 539 703 483 531 539 610 b 281 918 539 813 458 918 b 44 849 183 918 92 883 l 76 760 b 257 819 115 788 185 819 b 415 683 369 819 415 756 b 214 531 415 576 303 531 l 146 531 l 146 439 l 214 439 b 447 258 332 439 446 385 b 243 83 449 183 400 83 b 43 140 158 83 78 118 z "},"":{"ha":699,"x_min":0,"x_max":0,"o":"m 550 0 l 550 246 l 676 246 l 676 342 l 550 342 l 550 903 l 418 903 l 15 326 l 15 246 l 435 246 l 435 0 z m 139 342 l 139 344 l 360 651 b 435 785 385 693 407 732 l 439 785 b 435 643 436 738 435 690 l 435 342 z "},"":{"ha":639,"x_min":0,"x_max":0,"o":"m 564 903 l 132 903 l 74 469 b 199 479 107 474 147 479 b 458 279 379 479 457 396 b 244 83 458 158 360 83 b 51 133 163 83 89 111 l 21 40 b 246 -15 64 13 147 -15 b 582 293 442 -15 582 117 b 453 525 582 407 524 485 b 258 574 397 558 328 574 b 185 568 225 574 206 571 l 219 800 l 564 800 z "},"":{"ha":715,"x_min":0,"x_max":0,"o":"m 581 917 b 492 910 558 917 528 915 b 203 776 378 896 278 850 b 50 369 114 688 50 547 b 369 -15 50 135 176 -15 b 669 303 557 -15 669 138 b 397 594 669 479 557 594 b 179 490 297 594 222 547 l 175 490 b 489 811 196 639 297 779 b 581 817 524 817 556 818 z m 369 79 b 171 338 242 79 174 189 b 185 392 171 360 176 378 b 360 503 218 457 286 503 b 546 296 472 503 546 425 b 371 79 546 167 475 79 z "},"":{"ha":572,"x_min":0,"x_max":0,"o":"m 1 903 l 1 801 l 443 801 l 443 799 l 51 0 l 178 0 l 571 822 l 571 903 z "},"":{"ha":713,"x_min":0,"x_max":0,"o":"m 231 471 b 51 229 119 424 51 343 b 354 -15 51 97 165 -15 b 661 247 526 -15 661 90 b 479 481 661 357 592 436 l 479 485 b 628 696 590 538 628 619 b 365 918 628 808 540 918 b 86 678 207 918 86 821 b 229 475 86 600 129 522 z m 357 74 b 176 246 242 74 172 154 b 339 432 176 332 233 401 b 538 235 461 397 538 344 b 357 74 538 143 467 74 z m 358 831 b 511 683 468 831 511 756 b 374 519 511 601 451 546 b 201 686 269 547 201 596 b 358 831 201 764 257 831 z "},"":{"ha":718,"x_min":0,"x_max":0,"o":"m 133 -14 b 246 -7 163 -15 201 -14 b 508 114 343 4 439 46 b 664 538 597 200 664 339 b 365 918 664 768 550 918 b 57 597 181 918 57 768 b 324 321 57 443 161 321 b 536 418 414 321 486 357 l 540 418 b 421 178 524 311 481 232 b 232 90 369 129 303 100 b 133 86 190 86 160 83 z m 356 825 b 540 553 483 825 540 707 b 529 508 540 533 536 519 b 351 414 497 454 433 414 b 178 606 246 414 178 493 b 354 825 178 733 251 825 z "},"":{"ha":713,"x_min":0,"x_max":0,"o":"m 203 233 b 168 456 179 293 168 368 b 357 824 169 678 243 824 b 482 753 413 824 454 797 z m 515 668 b 544 456 535 608 544 536 b 354 79 544 225 481 79 b 235 147 306 79 265 103 z m 658 901 l 596 942 l 540 850 b 364 918 494 896 435 918 b 50 449 181 918 49 753 b 129 113 50 304 79 190 l 64 10 l 125 -33 l 176 54 b 350 -15 225 7 285 -15 b 663 461 549 -15 663 154 b 589 792 663 600 638 713 z "},"":{"ha":736,"x_min":0,"x_max":0,"o":"m 368 -15 b 681 338 542 -15 681 117 b 368 689 681 561 540 689 b 56 338 196 689 56 556 b 367 -15 56 113 196 -15 z m 368 78 b 174 338 246 78 174 188 b 368 596 174 486 246 596 b 563 338 490 596 563 486 b 369 78 563 188 492 78 z "},"":{"ha":736,"x_min":0,"x_max":0,"o":"m 508 0 l 508 674 l 407 674 l 108 546 l 129 456 l 388 569 l 390 569 l 390 0 z "},"":{"ha":736,"x_min":0,"x_max":0,"o":"m 642 0 l 642 97 l 389 97 b 276 92 354 97 310 96 l 276 96 l 347 147 b 593 475 493 250 593 346 b 351 692 593 613 493 692 b 100 607 240 692 149 643 l 132 528 b 321 594 181 561 249 594 b 471 458 407 594 471 549 b 158 114 471 346 368 251 l 92 67 l 92 0 z "},"":{"ha":736,"x_min":0,"x_max":0,"o":"m 85 -132 b 261 -160 117 -144 189 -160 b 611 106 449 -160 611 -54 b 407 307 611 224 517 292 l 407 310 b 571 503 501 338 571 408 b 329 689 571 618 471 689 b 107 626 238 689 150 656 l 132 546 b 303 593 165 564 232 593 b 449 482 393 593 449 557 b 222 335 449 396 351 344 l 196 333 l 199 243 b 275 246 215 244 243 246 b 486 104 403 246 486 192 b 251 -64 486 3 389 -64 b 100 -40 193 -64 135 -53 z "},"":{"ha":736,"x_min":0,"x_max":0,"o":"m 690 69 l 690 163 l 564 163 l 564 683 l 432 683 l 44 149 l 44 69 l 450 69 l 450 -162 l 564 -162 l 564 69 z m 450 163 l 168 163 l 165 167 l 374 442 b 449 572 400 482 426 529 l 454 572 b 450 440 450 528 450 486 z "},"":{"ha":736,"x_min":0,"x_max":0,"o":"m 108 -135 b 267 -160 143 -149 206 -160 b 617 124 474 -160 617 -47 b 553 281 617 183 594 240 b 246 367 479 351 361 368 l 288 574 l 589 574 l 604 674 l 206 674 l 133 275 b 450 215 286 286 396 269 b 493 114 476 189 493 154 b 265 -65 493 -3 383 -65 b 124 -47 213 -65 156 -57 z "},"":{"ha":736,"x_min":0,"x_max":0,"o":"m 613 842 b 78 326 279 824 78 614 b 386 -15 78 122 201 -15 b 675 281 531 -15 675 94 b 415 547 675 446 557 547 b 213 446 319 547 247 496 l 208 446 b 621 751 240 604 371 736 z m 386 78 b 200 286 274 78 200 174 b 246 400 200 332 211 365 b 385 460 271 428 322 460 b 554 275 486 460 554 388 b 388 78 554 143 468 78 z "},"":{"ha":736,"x_min":0,"x_max":0,"o":"m 631 674 l 93 674 l 93 572 l 506 572 l 506 569 b 124 -136 432 375 238 28 l 238 -158 b 631 596 378 60 544 369 z "},"":{"ha":736,"x_min":0,"x_max":0,"o":"m 486 444 b 633 633 585 492 633 553 b 374 843 633 750 531 843 b 100 618 219 843 100 751 b 240 439 100 531 161 472 l 240 435 b 67 215 138 389 67 317 b 363 -15 67 81 188 -15 b 665 231 529 -15 665 81 b 486 440 665 329 592 403 z m 372 760 b 519 628 447 760 519 715 b 385 478 519 550 460 500 b 218 628 281 506 218 553 b 371 760 218 708 288 760 z m 364 72 b 189 228 256 72 189 138 b 343 399 189 304 251 368 b 540 219 469 365 540 307 b 365 72 540 132 463 72 z "},"":{"ha":736,"x_min":0,"x_max":0,"o":"m 124 -158 b 665 358 444 -149 665 47 b 371 692 665 571 535 692 b 69 396 201 692 69 564 b 329 129 69 229 189 129 b 528 224 424 129 500 176 l 531 222 b 115 -68 493 58 353 -58 z m 360 215 b 192 404 269 215 192 276 b 365 597 192 535 281 597 b 544 389 463 597 544 515 b 524 306 544 356 536 325 b 361 215 497 257 431 215 z "},"":{"ha":736,"x_min":0,"x_max":0,"o":"m 410 -112 l 410 1 b 617 193 543 21 617 106 b 414 388 617 283 553 343 b 263 503 294 428 263 453 b 396 588 263 554 321 588 b 557 546 463 588 525 565 l 590 629 b 418 674 556 649 493 671 l 418 789 l 339 789 l 339 669 b 140 494 221 656 140 586 b 353 303 140 400 210 351 b 492 186 451 269 492 242 b 344 88 492 125 425 88 b 158 138 278 88 199 110 l 125 53 b 331 -1 172 22 256 0 l 331 -112 z "},"":{"ha":736,"x_min":0,"x_max":0,"o":"m 560 179 b 418 151 531 167 483 151 b 229 344 314 151 229 218 b 424 540 229 461 307 540 b 554 515 481 540 526 531 l 576 599 b 440 626 549 611 496 626 l 440 718 l 364 718 l 364 624 b 113 339 214 601 113 489 b 364 65 113 181 214 82 l 364 -36 l 440 -36 l 440 64 b 579 97 501 67 556 85 z "},"":{"ha":736,"x_min":0,"x_max":0,"o":"m 647 115 b 490 79 615 99 558 79 b 315 147 421 79 365 99 b 261 247 290 172 271 207 l 608 247 l 608 315 l 247 315 b 246 357 246 332 246 344 b 249 397 246 367 247 382 l 608 397 l 608 464 l 263 464 b 319 572 269 507 292 544 b 490 639 368 619 429 639 b 635 606 557 639 603 622 l 663 692 b 492 731 626 710 574 731 b 229 626 396 731 300 697 b 142 464 188 585 157 528 l 53 464 l 53 397 l 132 397 b 128 349 129 379 128 363 b 131 315 128 340 129 331 l 53 315 l 53 247 l 140 247 b 225 82 153 182 183 124 b 474 -15 292 15 382 -15 b 664 31 558 -15 632 10 z "},"":{"ha":736,"x_min":0,"x_max":0,"o":"m 178 392 l 306 392 l 278 150 b 143 -69 261 7 228 -68 b 65 -53 114 -68 89 -64 l 43 -140 b 150 -162 65 -153 104 -162 b 392 139 314 -164 371 -40 l 422 392 l 600 392 l 600 472 l 432 472 l 442 554 b 589 747 453 657 494 747 b 661 733 618 747 640 740 l 685 822 b 589 843 665 832 631 843 b 324 546 403 844 340 683 l 315 472 l 178 472 z "},"":{"ha":736,"x_min":0,"x_max":0,"o":"m 665 0 l 665 99 l 260 99 l 260 101 b 347 263 310 135 346 190 b 344 308 347 276 346 293 l 536 308 l 536 385 l 329 385 b 319 469 324 411 319 440 b 471 644 319 576 369 644 b 596 615 526 644 571 631 l 622 706 b 471 740 592 724 540 740 b 204 471 311 740 204 631 b 215 385 204 443 210 414 l 96 385 l 96 308 l 231 308 b 236 246 235 288 236 267 b 88 69 236 172 179 108 l 88 0 z "},"":{"ha":736,"x_min":0,"x_max":0,"o":"m 422 0 l 422 160 l 636 160 l 636 228 l 422 228 l 422 311 l 636 311 l 636 379 l 460 379 l 682 715 l 556 715 l 431 506 b 372 393 408 465 388 428 l 368 393 b 314 503 354 426 336 460 l 196 715 l 65 715 l 274 379 l 96 379 l 96 311 l 308 311 l 308 228 l 96 228 l 96 160 l 308 160 l 308 0 z "},"":{"ha":736,"x_min":0,"x_max":0,"o":"m 285 314 l 311 515 l 454 515 l 429 314 z m 242 -4 l 272 232 l 417 232 l 385 -4 l 468 -4 l 500 232 l 632 232 l 632 314 l 513 314 l 538 515 l 664 515 l 664 597 l 550 597 l 579 826 l 497 826 l 467 597 l 322 597 l 353 826 l 271 826 l 240 597 l 108 597 l 108 515 l 228 515 l 201 314 l 75 314 l 75 232 l 189 232 l 158 -4 z "},"⁰":{"ha":467,"x_min":0,"x_max":0,"o":"m 231 608 b 435 890 367 608 435 721 b 236 1164 435 1058 364 1164 b 32 885 111 1164 32 1057 b 229 608 32 713 108 608 z m 232 679 b 129 889 169 679 129 754 b 233 1093 129 1018 171 1093 b 338 889 303 1093 338 1018 b 233 679 338 757 301 679 z "},"¹":{"ha":339,"x_min":0,"x_max":0,"o":"m 246 615 l 246 1157 l 161 1157 l 31 1096 l 46 1024 l 146 1072 l 149 1072 l 149 615 z "},"²":{"ha":432,"x_min":0,"x_max":0,"o":"m 17 615 l 392 615 l 392 692 l 154 692 l 154 694 l 197 733 b 382 1007 303 826 382 903 b 197 1164 382 1082 328 1164 b 28 1106 128 1164 65 1138 l 57 1043 b 174 1086 83 1061 125 1086 b 279 989 246 1086 279 1042 b 104 749 279 918 219 853 l 17 667 z "},"³":{"ha":424,"x_min":0,"x_max":0,"o":"m 63 1056 b 181 1092 85 1071 131 1092 b 268 1024 243 1092 268 1057 b 142 935 267 958 193 935 l 103 935 l 103 871 l 140 871 b 288 774 214 871 288 843 b 167 681 289 731 251 681 b 38 717 114 681 60 701 l 13 647 b 171 608 43 626 104 608 b 390 771 313 608 390 685 b 261 906 390 842 338 894 l 261 908 b 368 1033 328 931 368 978 b 199 1164 368 1100 318 1164 b 39 1121 131 1164 71 1142 z "},"⁴":{"ha":482,"x_min":0,"x_max":0,"o":"m 378 615 l 378 758 l 456 758 l 456 826 l 378 826 l 378 1157 l 268 1157 l 22 814 l 22 758 l 285 758 l 285 615 z m 285 826 l 119 826 l 118 829 l 239 993 b 286 1075 256 1018 269 1043 l 289 1074 b 285 988 288 1047 285 1018 z "},"⁵":{"ha":428,"x_min":0,"x_max":0,"o":"m 372 1154 l 92 1154 l 56 888 b 135 894 76 890 103 894 b 292 785 247 894 292 849 b 169 679 292 718 232 679 b 46 710 117 679 69 696 l 26 640 b 171 607 54 624 111 607 b 388 793 300 607 388 686 b 310 932 388 861 353 908 b 182 963 274 954 228 963 b 139 960 164 963 150 961 l 157 1078 l 372 1078 z "},"⁶":{"ha":461,"x_min":0,"x_max":0,"o":"m 371 1163 b 315 1160 357 1164 338 1163 b 126 1081 238 1153 174 1126 b 32 840 69 1028 32 943 b 238 608 32 706 108 608 b 429 801 349 608 429 694 b 260 975 429 906 360 975 b 129 918 201 975 156 949 l 128 918 b 315 1088 142 1001 204 1072 b 371 1089 335 1090 356 1090 z m 236 679 b 124 817 163 679 124 742 b 131 846 124 829 126 838 b 229 908 149 882 186 908 b 335 796 294 908 335 864 b 238 679 335 729 294 679 z "},"⁷":{"ha":408,"x_min":0,"x_max":0,"o":"m 26 1154 l 26 1078 l 293 1078 l 293 1076 l 56 615 l 154 615 l 392 1094 l 392 1154 z "},"⁸":{"ha":456,"x_min":0,"x_max":0,"o":"m 232 1164 b 53 1018 131 1164 53 1104 b 139 897 53 969 81 925 l 139 894 b 33 756 74 867 33 822 b 225 608 33 679 100 608 b 422 768 340 608 422 672 b 314 904 422 835 376 881 l 314 907 b 401 1029 376 935 401 983 b 233 1164 401 1097 346 1164 z m 228 674 b 126 767 164 674 126 718 b 218 867 126 813 160 850 b 328 761 283 849 328 821 b 229 674 328 711 289 674 z m 229 1100 b 314 1019 289 1100 314 1058 b 238 932 314 975 281 944 b 140 1022 178 947 140 974 b 228 1100 140 1064 171 1100 z "},"⁹":{"ha":454,"x_min":0,"x_max":0,"o":"m 81 610 b 144 613 96 608 121 608 b 326 685 215 618 281 642 b 422 935 382 736 422 819 b 228 1164 422 1068 353 1164 b 32 972 113 1164 32 1075 b 200 806 32 875 101 806 b 325 858 254 806 296 825 l 326 858 b 256 731 317 803 292 760 b 139 683 224 704 182 689 b 81 682 117 682 96 681 z m 224 1094 b 328 950 297 1094 328 1029 b 322 922 328 939 326 929 b 224 872 304 894 269 872 b 125 976 163 872 125 918 b 222 1094 125 1043 167 1094 z "},"":{"ha":182,"x_min":0,"x_max":0,"o":"m 90 607 b 151 669 128 607 151 635 b 92 732 151 707 128 732 b 29 669 56 732 29 707 b 89 607 29 635 54 607 z "},"":{"ha":182,"x_min":0,"x_max":0,"o":"m 67 522 b 157 739 97 572 135 663 l 54 732 b 0 517 44 664 22 576 z "},"":{"ha":440,"x_min":0,"x_max":0,"o":"m 249 544 l 249 629 b 389 775 340 644 389 707 b 253 928 389 850 346 894 b 147 1014 175 957 147 976 b 232 1078 147 1044 168 1078 b 346 1047 289 1078 328 1058 l 368 1115 b 253 1146 343 1129 304 1144 l 253 1224 l 190 1224 l 190 1142 b 57 1003 107 1128 57 1074 b 203 856 57 926 111 889 b 297 767 268 831 297 808 b 201 696 297 725 260 696 b 72 733 151 696 106 713 l 49 663 b 186 626 81 643 133 626 l 186 544 z "},"":{"ha":438,"x_min":0,"x_max":0,"o":"m 286 604 l 286 686 b 378 710 325 689 360 700 l 363 775 b 269 757 342 767 313 757 b 143 892 200 757 143 804 b 271 1026 143 968 193 1026 b 357 1007 313 1026 339 1015 l 375 1075 b 286 1096 353 1086 321 1096 l 286 1175 l 222 1175 l 222 1093 b 50 886 114 1076 50 992 b 97 749 50 829 68 781 b 222 688 128 715 167 694 l 222 604 z "},"":{"ha":265,"x_min":0,"x_max":0,"o":"m 25 904 l 25 838 l 240 838 l 240 904 z "},"⁽":{"ha":250,"x_min":0,"x_max":0,"o":"m 163 1206 b 56 868 113 1139 56 1031 b 163 535 56 708 113 601 l 233 535 b 133 868 179 615 133 721 b 233 1206 133 1018 178 1126 z "},"⁾":{"ha":250,"x_min":0,"x_max":0,"o":"m 89 535 b 196 871 139 603 196 710 b 89 1206 196 1032 139 1139 l 18 1206 b 118 871 72 1125 118 1018 b 18 535 118 722 72 615 z "},"₀":{"ha":467,"x_min":0,"x_max":0,"o":"m 231 -211 b 435 71 367 -211 435 -99 b 236 344 435 239 364 344 b 32 65 111 344 32 238 b 229 -211 32 -107 108 -211 z m 232 -140 b 129 69 169 -140 129 -65 b 233 274 129 199 171 274 b 338 69 303 274 338 199 b 233 -140 338 -62 301 -140 z "},"₁":{"ha":339,"x_min":0,"x_max":0,"o":"m 246 -204 l 246 338 l 161 338 l 31 276 l 46 204 l 146 253 l 149 253 l 149 -204 z "},"₂":{"ha":432,"x_min":0,"x_max":0,"o":"m 17 -204 l 392 -204 l 392 -128 l 154 -128 l 154 -125 l 197 -86 b 382 188 303 7 382 83 b 197 344 382 263 328 344 b 28 286 128 344 65 318 l 57 224 b 174 267 83 242 125 267 b 279 169 246 267 279 222 b 104 -71 279 99 219 33 l 17 -153 z "},"₃":{"ha":424,"x_min":0,"x_max":0,"o":"m 63 236 b 181 272 85 251 131 272 b 268 204 243 272 268 238 b 142 115 267 139 193 115 l 103 115 l 103 51 l 140 51 b 288 -46 214 51 288 24 b 167 -139 289 -89 251 -139 b 38 -103 114 -139 60 -118 l 13 -172 b 171 -211 43 -193 104 -211 b 390 -49 313 -211 390 -135 b 261 86 390 22 338 75 l 261 89 b 368 214 328 111 368 158 b 199 344 368 281 318 344 b 39 301 131 344 71 322 z "},"₄":{"ha":482,"x_min":0,"x_max":0,"o":"m 378 -204 l 378 -61 l 456 -61 l 456 7 l 378 7 l 378 338 l 268 338 l 22 -6 l 22 -61 l 285 -61 l 285 -204 z m 285 7 l 119 7 l 118 10 l 239 174 b 286 256 256 199 269 224 l 289 254 b 285 168 288 228 285 199 z "},"₅":{"ha":428,"x_min":0,"x_max":0,"o":"m 372 335 l 92 335 l 56 68 b 135 75 76 71 103 75 b 292 -35 247 75 292 29 b 169 -140 292 -101 232 -140 b 46 -110 117 -140 69 -124 l 26 -179 b 171 -212 54 -196 111 -212 b 388 -26 300 -212 388 -133 b 310 113 388 42 353 89 b 182 143 274 135 228 143 b 139 140 164 143 150 142 l 157 258 l 372 258 z "},"₆":{"ha":461,"x_min":0,"x_max":0,"o":"m 371 343 b 315 340 357 344 338 343 b 126 261 238 333 174 307 b 32 21 69 208 32 124 b 238 -211 32 -114 108 -211 b 429 -18 349 -211 429 -125 b 260 156 429 86 360 156 b 129 99 201 156 156 129 l 128 99 b 315 268 142 182 204 253 b 371 269 335 271 356 271 z m 236 -140 b 124 -3 163 -140 124 -78 b 131 26 124 10 126 18 b 229 89 149 63 186 89 b 335 -24 294 89 335 44 b 238 -140 335 -90 294 -140 z "},"₇":{"ha":408,"x_min":0,"x_max":0,"o":"m 26 335 l 26 258 l 293 258 l 293 257 l 56 -204 l 154 -204 l 392 275 l 392 335 z "},"₈":{"ha":456,"x_min":0,"x_max":0,"o":"m 232 344 b 53 199 131 344 53 285 b 139 78 53 150 81 106 l 139 75 b 33 -64 74 47 33 3 b 225 -211 33 -140 100 -211 b 422 -51 340 -211 422 -147 b 314 85 422 15 376 61 l 314 88 b 401 210 376 115 401 164 b 233 344 401 278 346 344 z m 228 -146 b 126 -53 164 -146 126 -101 b 218 47 126 -7 160 31 b 328 -58 283 29 328 1 b 229 -146 328 -108 289 -146 z m 229 281 b 314 200 289 281 314 239 b 238 113 314 156 281 125 b 140 203 178 128 140 154 b 228 281 140 244 171 281 z "},"₉":{"ha":454,"x_min":0,"x_max":0,"o":"m 81 -210 b 144 -207 96 -211 121 -211 b 326 -135 215 -201 281 -178 b 422 115 382 -83 422 0 b 228 344 422 249 353 344 b 32 153 113 344 32 256 b 200 -14 32 56 101 -14 b 325 39 254 -14 296 6 l 326 39 b 256 -89 317 -17 292 -60 b 139 -136 224 -115 182 -131 b 81 -137 117 -137 96 -139 z m 224 275 b 328 131 297 275 328 210 b 322 103 328 119 326 110 b 224 53 304 75 269 53 b 125 157 163 53 125 99 b 222 275 125 224 167 275 z "},"":{"ha":182,"x_min":0,"x_max":0,"o":"m 90 -212 b 151 -150 128 -212 151 -185 b 92 -87 151 -112 128 -87 b 29 -150 56 -87 29 -112 b 89 -212 29 -185 54 -212 z "},"":{"ha":182,"x_min":0,"x_max":0,"o":"m 67 -297 b 157 -81 97 -247 135 -157 l 54 -87 b 0 -303 44 -156 22 -243 z "},"":{"ha":440,"x_min":0,"x_max":0,"o":"m 249 -275 l 249 -190 b 389 -44 340 -175 389 -112 b 253 108 389 31 346 75 b 147 194 175 138 147 157 b 232 258 147 225 168 258 b 346 228 289 258 328 239 l 368 296 b 253 326 343 310 304 325 l 253 404 l 190 404 l 190 322 b 57 183 107 308 57 254 b 203 36 57 107 111 69 b 297 -53 268 11 297 -11 b 201 -124 297 -94 260 -124 b 72 -86 151 -124 106 -107 l 49 -157 b 186 -193 81 -176 133 -193 l 186 -275 z "},"":{"ha":438,"x_min":0,"x_max":0,"o":"m 286 -215 l 286 -133 b 378 -110 325 -131 360 -119 l 363 -44 b 269 -62 342 -53 313 -62 b 143 72 200 -62 143 -15 b 271 207 143 149 193 207 b 357 188 313 207 339 196 l 375 256 b 286 276 353 267 321 276 l 286 356 l 222 356 l 222 274 b 50 67 114 257 50 172 b 97 -71 50 10 68 -39 b 222 -132 128 -104 167 -125 l 222 -215 z "},"":{"ha":265,"x_min":0,"x_max":0,"o":"m 25 85 l 25 18 l 240 18 l 240 85 z "},"₍":{"ha":250,"x_min":0,"x_max":0,"o":"m 163 386 b 56 49 113 319 56 211 b 163 -285 56 -111 113 -218 l 233 -285 b 133 49 179 -204 133 -99 b 233 386 133 199 178 307 z "},"₎":{"ha":250,"x_min":0,"x_max":0,"o":"m 89 -285 b 196 51 139 -217 196 -110 b 89 386 196 213 139 319 l 18 386 b 118 51 72 306 118 199 b 18 -285 118 -97 72 -204 z "},"":{"ha":467,"x_min":0,"x_max":0,"o":"m 231 363 b 435 644 367 363 435 475 b 236 918 435 813 364 918 b 32 639 111 918 32 811 b 229 363 32 467 108 363 z m 232 433 b 129 643 169 433 129 508 b 233 847 129 772 171 847 b 338 643 303 847 338 772 b 233 433 338 511 301 433 z "},"":{"ha":339,"x_min":0,"x_max":0,"o":"m 246 369 l 246 911 l 161 911 l 31 850 l 46 778 l 146 826 l 149 826 l 149 369 z "},"":{"ha":432,"x_min":0,"x_max":0,"o":"m 17 369 l 392 369 l 392 446 l 154 446 l 154 449 l 197 488 b 382 761 303 581 382 657 b 197 918 382 836 328 918 b 28 860 128 918 65 892 l 57 797 b 174 840 83 815 125 840 b 279 743 246 840 279 796 b 104 503 279 672 219 607 l 17 421 z "},"":{"ha":424,"x_min":0,"x_max":0,"o":"m 63 810 b 181 846 85 825 131 846 b 268 778 243 846 268 811 b 142 689 267 713 193 689 l 103 689 l 103 625 l 140 625 b 288 528 214 625 288 597 b 167 435 289 485 251 435 b 38 471 114 435 60 456 l 13 401 b 171 363 43 381 104 363 b 390 525 313 363 390 439 b 261 660 390 596 338 649 l 261 663 b 368 788 328 685 368 732 b 199 918 368 854 318 918 b 39 875 131 918 71 896 z "},"":{"ha":482,"x_min":0,"x_max":0,"o":"m 378 369 l 378 513 l 456 513 l 456 581 l 378 581 l 378 911 l 268 911 l 22 568 l 22 513 l 285 513 l 285 369 z m 285 581 l 119 581 l 118 583 l 239 747 b 286 829 256 772 269 797 l 289 828 b 285 742 288 801 285 772 z "},"":{"ha":428,"x_min":0,"x_max":0,"o":"m 372 908 l 92 908 l 56 642 b 135 649 76 644 103 649 b 292 539 247 649 292 603 b 169 433 292 472 232 433 b 46 464 117 433 69 450 l 26 394 b 171 361 54 378 111 361 b 388 547 300 361 388 440 b 310 686 388 615 353 663 b 182 717 274 708 228 717 b 139 714 164 717 150 715 l 157 832 l 372 832 z "},"":{"ha":461,"x_min":0,"x_max":0,"o":"m 371 917 b 315 914 357 918 338 917 b 126 835 238 907 174 881 b 32 594 69 782 32 697 b 238 363 32 460 108 363 b 429 556 349 363 429 449 b 260 729 429 660 360 729 b 129 672 201 729 156 703 l 128 672 b 315 842 142 756 204 826 b 371 843 335 844 356 844 z m 236 433 b 124 571 163 433 124 496 b 131 600 124 583 126 592 b 229 663 149 636 186 663 b 335 550 294 663 335 618 b 238 433 335 483 294 433 z "},"":{"ha":408,"x_min":0,"x_max":0,"o":"m 26 908 l 26 832 l 293 832 l 293 831 l 56 369 l 154 369 l 392 849 l 392 908 z "},"":{"ha":456,"x_min":0,"x_max":0,"o":"m 232 918 b 53 772 131 918 53 858 b 139 651 53 724 81 679 l 139 649 b 33 510 74 621 33 576 b 225 363 33 433 100 363 b 422 522 340 363 422 426 b 314 658 422 589 376 635 l 314 661 b 401 783 376 689 401 738 b 233 918 401 851 346 918 z m 228 428 b 126 521 164 428 126 472 b 218 621 126 567 160 604 b 328 515 283 603 328 575 b 229 428 328 465 289 428 z m 229 854 b 314 774 289 854 314 813 b 238 686 314 729 281 699 b 140 776 178 701 140 728 b 228 854 140 818 171 854 z "},"":{"ha":454,"x_min":0,"x_max":0,"o":"m 81 364 b 144 367 96 363 121 363 b 326 439 215 372 281 396 b 422 689 382 490 422 574 b 228 918 422 822 353 918 b 32 726 113 918 32 829 b 200 560 32 629 101 560 b 325 613 254 560 296 579 l 326 613 b 256 485 317 557 292 514 b 139 438 224 458 182 443 b 81 436 117 436 96 435 z m 224 849 b 328 704 297 849 328 783 b 322 676 328 693 326 683 b 224 626 304 649 269 626 b 125 731 163 626 125 672 b 222 849 125 797 167 849 z "},"":{"ha":182,"x_min":0,"x_max":0,"o":"m 90 361 b 151 424 128 361 151 389 b 92 486 151 461 128 486 b 29 424 56 486 29 461 b 89 361 29 389 54 361 z "},"":{"ha":182,"x_min":0,"x_max":0,"o":"m 67 276 b 157 493 97 326 135 417 l 54 486 b 0 271 44 418 22 331 z "},"":{"ha":440,"x_min":0,"x_max":0,"o":"m 249 299 l 249 383 b 389 529 340 399 389 461 b 253 682 389 604 346 649 b 147 768 175 711 147 731 b 232 832 147 799 168 832 b 346 801 289 832 328 813 l 368 869 b 253 900 343 883 304 899 l 253 978 l 190 978 l 190 896 b 57 757 107 882 57 828 b 203 610 57 681 111 643 b 297 521 268 585 297 563 b 201 450 297 479 260 450 b 72 488 151 450 106 467 l 49 417 b 186 381 81 397 133 381 l 186 299 z "},"":{"ha":438,"x_min":0,"x_max":0,"o":"m 286 358 l 286 440 b 378 464 325 443 360 454 l 363 529 b 269 511 342 521 313 511 b 143 646 200 511 143 558 b 271 781 143 722 193 781 b 357 761 313 781 339 769 l 375 829 b 286 850 353 840 321 850 l 286 929 l 222 929 l 222 847 b 50 640 114 831 50 746 b 97 503 50 583 68 535 b 222 442 128 469 167 449 l 222 358 z "},"":{"ha":265,"x_min":0,"x_max":0,"o":"m 25 658 l 25 592 l 240 592 l 240 658 z "},"":{"ha":250,"x_min":0,"x_max":0,"o":"m 163 960 b 56 622 113 893 56 785 b 163 289 56 463 113 356 l 233 289 b 133 622 179 369 133 475 b 233 960 133 772 178 881 z "},"":{"ha":250,"x_min":0,"x_max":0,"o":"m 89 289 b 196 625 139 357 196 464 b 89 960 196 786 139 893 l 18 960 b 118 625 72 879 118 772 b 18 289 118 476 72 369 z "},"":{"ha":467,"x_min":0,"x_max":0,"o":"m 231 -7 b 435 275 367 -7 435 106 b 236 549 435 443 364 549 b 32 269 111 549 32 442 b 229 -7 32 97 108 -7 z m 232 64 b 129 274 169 64 129 139 b 233 478 129 403 171 478 b 338 274 303 478 338 403 b 233 64 338 142 301 64 z "},"":{"ha":339,"x_min":0,"x_max":0,"o":"m 246 0 l 246 542 l 161 542 l 31 481 l 46 408 l 146 457 l 149 457 l 149 0 z "},"":{"ha":432,"x_min":0,"x_max":0,"o":"m 17 0 l 392 0 l 392 76 l 154 76 l 154 79 l 197 118 b 382 392 303 211 382 288 b 197 549 382 467 328 549 b 28 490 128 549 65 522 l 57 428 b 174 471 83 446 125 471 b 279 374 246 471 279 426 b 104 133 279 303 219 238 l 17 51 z "},"":{"ha":424,"x_min":0,"x_max":0,"o":"m 63 440 b 181 476 85 456 131 476 b 268 408 243 476 268 442 b 142 319 267 343 193 319 l 103 319 l 103 256 l 140 256 b 288 158 214 256 288 228 b 167 65 289 115 251 65 b 38 101 114 65 60 86 l 13 32 b 171 -7 43 11 104 -7 b 390 156 313 -7 390 69 b 261 290 390 226 338 279 l 261 293 b 368 418 328 315 368 363 b 199 549 368 485 318 549 b 39 506 131 549 71 526 z "},"":{"ha":482,"x_min":0,"x_max":0,"o":"m 378 0 l 378 143 l 456 143 l 456 211 l 378 211 l 378 542 l 268 542 l 22 199 l 22 143 l 285 143 l 285 0 z m 285 211 l 119 211 l 118 214 l 239 378 b 286 460 256 403 269 428 l 289 458 b 285 372 288 432 285 403 z "},"":{"ha":428,"x_min":0,"x_max":0,"o":"m 372 539 l 92 539 l 56 272 b 135 279 76 275 103 279 b 292 169 247 279 292 233 b 169 64 292 103 232 64 b 46 94 117 64 69 81 l 26 25 b 171 -8 54 8 111 -8 b 388 178 300 -8 388 71 b 310 317 388 246 353 293 b 182 347 274 339 228 347 b 139 344 164 347 150 346 l 157 463 l 372 463 z "},"":{"ha":461,"x_min":0,"x_max":0,"o":"m 371 547 b 315 544 357 549 338 547 b 126 465 238 538 174 511 b 32 225 69 413 32 328 b 238 -7 32 90 108 -7 b 429 186 349 -7 429 79 b 260 360 429 290 360 360 b 129 303 201 360 156 333 l 128 303 b 315 472 142 386 204 457 b 371 474 335 475 356 475 z m 236 64 b 124 201 163 64 124 126 b 131 231 124 214 126 222 b 229 293 149 267 186 293 b 335 181 294 293 335 249 b 238 64 335 114 294 64 z "},"":{"ha":408,"x_min":0,"x_max":0,"o":"m 26 539 l 26 463 l 293 463 l 293 461 l 56 0 l 154 0 l 392 479 l 392 539 z "},"":{"ha":456,"x_min":0,"x_max":0,"o":"m 232 549 b 53 403 131 549 53 489 b 139 282 53 354 81 310 l 139 279 b 33 140 74 251 33 207 b 225 -7 33 64 100 -7 b 422 153 340 -7 422 57 b 314 289 422 219 376 265 l 314 292 b 401 414 376 319 401 368 b 233 549 401 482 346 549 z m 228 58 b 126 151 164 58 126 103 b 218 251 126 197 160 235 b 328 146 283 233 328 206 b 229 58 328 96 289 58 z m 229 485 b 314 404 289 485 314 443 b 238 317 314 360 281 329 b 140 407 178 332 140 358 b 228 485 140 449 171 485 z "},"":{"ha":454,"x_min":0,"x_max":0,"o":"m 81 -6 b 144 -3 96 -7 121 -7 b 326 69 215 3 281 26 b 422 319 382 121 422 204 b 228 549 422 453 353 549 b 32 357 113 549 32 460 b 200 190 32 260 101 190 b 325 243 254 190 296 210 l 326 243 b 256 115 317 188 292 144 b 139 68 224 89 182 74 b 81 67 117 67 96 65 z m 224 479 b 328 335 297 479 328 414 b 322 307 328 324 326 314 b 224 257 304 279 269 257 b 125 361 163 257 125 303 b 222 479 125 428 167 479 z "},"":{"ha":182,"x_min":0,"x_max":0,"o":"m 90 -8 b 151 54 128 -8 151 19 b 92 117 151 92 128 117 b 29 54 56 117 29 92 b 89 -8 29 19 54 -8 z "},"":{"ha":182,"x_min":0,"x_max":0,"o":"m 67 -93 b 157 124 97 -43 135 47 l 54 117 b 0 -99 44 49 22 -39 z "},"":{"ha":440,"x_min":0,"x_max":0,"o":"m 249 -71 l 249 14 b 389 160 340 29 389 92 b 253 313 389 235 346 279 b 147 399 175 342 147 361 b 232 463 147 429 168 463 b 346 432 289 463 328 443 l 368 500 b 253 531 343 514 304 529 l 253 608 l 190 608 l 190 526 b 57 388 107 513 57 458 b 203 240 57 311 111 274 b 297 151 268 215 297 193 b 201 81 297 110 260 81 b 72 118 151 81 106 97 l 49 47 b 186 11 81 28 133 11 l 186 -71 z "},"":{"ha":438,"x_min":0,"x_max":0,"o":"m 286 -11 l 286 71 b 378 94 325 74 360 85 l 363 160 b 269 142 342 151 313 142 b 143 276 200 142 143 189 b 271 411 143 353 193 411 b 357 392 313 411 339 400 l 375 460 b 286 481 353 471 321 481 l 286 560 l 222 560 l 222 478 b 50 271 114 461 50 376 b 97 133 50 214 68 165 b 222 72 128 100 167 79 l 222 -11 z "},"":{"ha":265,"x_min":0,"x_max":0,"o":"m 25 289 l 25 222 l 240 222 l 240 289 z "},"":{"ha":250,"x_min":0,"x_max":0,"o":"m 163 590 b 56 253 113 524 56 415 b 163 -81 56 93 113 -14 l 233 -81 b 133 253 179 0 133 106 b 233 590 133 403 178 511 z "},"":{"ha":250,"x_min":0,"x_max":0,"o":"m 89 -81 b 196 256 139 -12 196 94 b 89 590 196 417 139 524 l 18 590 b 118 256 72 510 118 403 b 18 -81 118 107 72 0 z "},"":{"ha":1024,"x_min":0,"x_max":0,"o":"m 622 483 b 453 294 607 397 533 294 b 361 400 392 294 361 339 b 582 650 361 535 460 650 b 651 640 614 650 638 644 z m 706 99 b 496 50 649 67 575 50 b 139 426 290 50 139 194 b 556 889 139 708 329 889 b 892 542 771 889 892 743 b 742 288 892 381 813 286 b 700 443 696 289 679 338 l 747 694 b 599 724 711 711 658 724 b 269 394 406 724 269 567 b 419 219 269 285 339 219 b 615 342 503 219 567 260 l 621 342 b 724 219 617 257 668 219 b 971 550 854 219 971 342 b 567 953 971 782 808 953 b 60 418 258 953 60 704 b 481 -17 60 150 253 -17 b 728 39 574 -17 651 -1 z "},"":{"ha":1389,"x_min":0,"x_max":0,"o":"m 42 499 l 42 415 l 1347 415 l 1347 499 z "},"":{"ha":694,"x_min":0,"x_max":0,"o":"m 42 499 l 42 415 l 653 415 l 653 499 z "},"":{"ha":319,"x_min":0,"x_max":0,"o":"m 228 0 l 207 663 l 113 663 l 93 0 z m 161 949 b 78 863 113 949 78 913 b 160 776 78 814 111 776 b 242 863 210 776 242 814 b 163 949 242 913 210 949 z "},"":{"ha":582,"x_min":0,"x_max":0,"o":"m 322 710 l 224 710 l 40 454 l 224 199 l 322 199 l 136 454 z m 550 710 l 451 710 l 268 454 l 451 199 l 550 199 l 364 454 z "},"":{"ha":582,"x_min":0,"x_max":0,"o":"m 218 454 l 33 199 l 131 199 l 315 454 l 131 710 l 32 710 z m 444 454 l 260 199 l 357 199 l 542 454 l 357 710 l 258 710 z "},"":{"ha":354,"x_min":0,"x_max":0,"o":"m 322 710 l 224 710 l 40 454 l 224 199 l 322 199 l 136 454 z "},"":{"ha":354,"x_min":0,"x_max":0,"o":"m 218 454 l 32 199 l 131 199 l 315 454 l 129 710 l 32 710 z "},"":{"ha":426,"x_min":0,"x_max":0,"o":"m 42 525 l 42 435 l 385 435 l 385 525 z "},"":{"ha":564,"x_min":0,"x_max":0,"o":"m 329 949 b 247 861 281 949 247 913 b 329 775 247 813 279 775 b 411 861 379 775 411 813 b 331 949 411 913 379 949 z m 274 668 l 275 632 b 197 426 279 561 257 500 b 76 186 129 349 76 279 b 308 -19 76 79 150 -19 b 508 36 382 -19 461 4 l 475 125 b 335 81 439 97 383 81 b 203 201 246 82 203 129 b 299 392 203 263 236 317 b 386 632 368 475 394 557 l 382 668 z "},"":{"ha":394,"x_min":0,"x_max":0,"o":"m 39 418 b 151 315 138 418 151 358 b 140 203 151 278 146 240 b 129 89 135 165 129 126 b 331 -101 129 -51 215 -101 l 360 -101 l 360 -25 l 335 -25 b 225 96 257 -24 225 18 b 235 196 225 129 229 161 b 244 301 240 229 244 264 b 144 453 246 390 207 438 l 144 456 b 244 606 207 472 246 517 b 235 711 244 643 240 678 b 225 811 229 744 225 778 b 335 931 225 886 253 929 l 360 931 l 360 1007 l 331 1007 b 129 825 213 1007 129 953 b 140 708 129 786 135 747 b 151 593 146 669 151 631 b 39 489 151 543 138 489 z "},"":{"ha":394,"x_min":0,"x_max":0,"o":"m 356 489 b 243 593 257 489 243 543 b 254 708 243 631 249 669 b 265 825 260 747 265 786 b 63 1007 265 953 181 1007 l 35 1007 l 35 931 l 60 931 b 169 811 140 929 169 886 b 160 711 169 778 164 744 b 149 606 154 678 149 643 b 249 456 149 517 188 472 l 249 453 b 149 301 188 438 149 390 b 160 196 149 264 154 229 b 169 96 164 161 169 129 b 58 -25 169 18 136 -24 l 35 -25 l 35 -101 l 64 -101 b 265 89 178 -101 265 -51 b 254 203 265 126 260 165 b 243 315 249 240 243 278 b 356 418 243 358 257 418 z "},"":{"ha":394,"x_min":0,"x_max":0,"o":"m 368 -101 l 368 -25 l 208 -25 l 208 931 l 368 931 l 368 1007 l 114 1007 l 114 -101 z "},"":{"ha":394,"x_min":0,"x_max":0,"o":"m 26 1007 l 26 931 l 186 931 l 186 -25 l 26 -25 l 26 -101 l 281 -101 l 281 1007 z "},"":{"ha":394,"x_min":0,"x_max":0,"o":"m 271 1018 b 89 450 183 901 90 724 b 271 -114 89 179 183 1 l 367 -114 b 192 450 268 25 192 203 b 367 1018 192 701 265 882 z "},"":{"ha":394,"x_min":0,"x_max":0,"o":"m 122 -114 b 304 453 211 4 304 181 b 122 1018 304 726 211 904 l 28 1018 b 203 454 128 881 203 703 b 28 -114 203 204 126 24 z "},"":{"ha":288,"x_min":0,"x_max":0,"o":"m 143 382 b 226 469 193 382 226 419 b 144 557 225 521 193 557 b 61 469 96 557 61 519 b 142 382 60 419 94 382 z "},"≤":{"ha":828,"x_min":0,"x_max":0,"o":"m 736 138 l 736 231 l 206 444 l 206 447 l 736 663 l 736 754 l 92 488 l 92 406 z m 736 0 l 736 81 l 94 81 l 94 0 z "},"≥":{"ha":828,"x_min":0,"x_max":0,"o":"m 736 406 l 736 488 l 92 754 l 92 663 l 622 447 l 622 444 l 92 231 l 92 138 z m 733 0 l 733 81 l 92 81 l 92 0 z "},"≈":{"ha":828,"x_min":0,"x_max":0,"o":"m 740 578 b 579 497 706 542 643 497 b 422 544 510 497 464 526 b 244 594 376 563 326 594 b 32 488 157 594 76 540 l 81 429 b 244 511 118 468 181 511 b 403 464 314 511 361 481 b 581 413 447 444 500 413 b 792 521 667 413 747 465 z m 747 303 b 585 221 713 263 650 221 b 428 268 517 221 469 251 b 250 318 382 288 332 318 b 39 213 164 318 82 265 l 86 153 b 249 235 124 193 188 235 b 408 188 319 235 367 204 b 585 138 454 169 506 138 b 797 247 671 138 753 190 z "},"≠":{"ha":828,"x_min":0,"x_max":0,"o":"m 772 194 l 772 278 l 396 278 l 518 469 l 772 469 l 772 553 l 571 553 l 681 722 l 590 722 l 485 553 l 56 553 l 56 469 l 432 469 l 308 278 l 56 278 l 56 194 l 256 194 l 146 25 l 236 25 l 342 194 z "},"∞":{"ha":1011,"x_min":0,"x_max":0,"o":"m 751 161 b 963 367 874 161 963 257 b 763 572 963 486 881 572 b 506 424 650 572 576 494 b 260 572 439 490 363 572 b 49 367 138 572 49 476 b 249 161 49 247 132 161 b 506 310 361 161 435 239 b 750 161 572 243 649 161 z m 753 244 b 561 367 672 244 615 317 b 757 489 614 421 678 489 b 875 367 825 489 875 438 b 754 244 875 301 822 244 z m 254 244 b 136 367 186 244 136 296 b 258 489 136 432 189 489 b 450 367 339 489 396 417 b 256 244 397 313 333 244 z "},"◊":{"ha":725,"x_min":0,"x_max":0,"o":"m 663 451 l 410 944 l 314 944 l 63 451 l 314 -43 l 410 -43 z m 557 449 l 379 83 b 365 51 375 74 369 61 l 363 51 b 349 83 360 61 353 74 l 167 453 l 344 819 b 358 851 350 828 356 840 l 361 851 b 376 819 365 840 371 828 z "},"∫":{"ha":439,"x_min":0,"x_max":0,"o":"m 425 1094 b 363 1104 411 1100 389 1104 b 239 1053 315 1104 272 1089 b 167 781 189 999 167 921 b 183 119 167 576 183 331 b 140 -94 183 -14 164 -65 b 79 -124 124 -115 101 -124 b 31 -115 60 -124 42 -119 l 14 -196 b 89 -208 26 -203 57 -208 b 221 -142 142 -208 190 -186 b 279 119 254 -97 279 -17 b 263 772 279 329 263 571 b 304 992 263 896 276 957 b 368 1022 319 1013 343 1022 b 410 1017 382 1022 397 1019 z "},"∂":{"ha":521,"x_min":0,"x_max":0,"o":"m 119 853 b 310 908 157 879 219 908 b 569 540 440 908 569 785 b 568 494 569 525 569 508 l 567 494 b 340 615 538 549 456 615 b 36 276 169 615 36 465 b 313 -15 36 129 125 -15 b 686 517 508 -15 686 164 b 321 1008 686 836 513 1008 b 81 935 203 1008 126 968 z m 322 85 b 158 279 225 85 158 157 b 360 518 158 415 249 518 b 556 385 456 518 529 453 b 324 85 536 226 447 85 z "},"∏":{"ha":854,"x_min":0,"x_max":0,"o":"m 840 801 l 840 903 l 13 903 l 13 801 l 142 801 l 142 -125 l 257 -125 l 257 801 l 596 801 l 596 -125 l 711 -125 l 711 801 z "},"√":{"ha":781,"x_min":0,"x_max":0,"o":"m 804 1149 l 713 1149 l 454 85 b 436 -6 447 54 440 18 l 433 -6 b 407 83 428 21 418 54 l 236 564 l 44 483 l 71 418 l 175 463 l 396 -132 l 485 -132 z "},"∑":{"ha":704,"x_min":0,"x_max":0,"o":"m 714 -125 l 714 -24 l 169 -24 l 169 -19 l 494 390 l 186 797 l 186 803 l 671 803 l 671 903 l 31 903 l 31 821 l 361 386 l 13 -53 l 13 -125 z "},"∆":{"ha":790,"x_min":0,"x_max":0,"o":"m 756 0 l 756 69 l 465 911 l 329 911 l 36 68 l 36 0 z m 626 100 l 158 100 l 329 601 b 389 801 351 667 376 753 l 393 801 b 461 582 410 742 439 650 z "},"Ω":{"ha":979,"x_min":0,"x_max":0,"o":"m 733 101 b 918 508 826 179 918 317 b 496 951 918 756 756 951 b 60 497 247 951 60 764 b 243 101 60 317 150 178 l 243 96 l 42 96 l 42 0 l 394 0 l 394 76 b 186 488 283 146 186 313 b 493 853 186 671 296 853 b 793 489 692 853 793 660 b 586 76 793 301 697 153 l 586 0 l 938 0 l 938 96 l 733 96 z "},"π":{"ha":771,"x_min":0,"x_max":0,"o":"m 722 576 l 736 672 l 211 672 b 18 636 104 672 49 657 l 35 564 b 172 576 69 574 118 576 b 78 0 167 399 128 132 l 194 0 b 289 576 243 111 283 400 l 510 576 l 510 188 b 531 0 510 81 519 21 l 649 0 b 629 200 639 35 629 90 l 629 576 z "},"ℓ":{"ha":700,"x_min":0,"x_max":0,"o":"m 269 710 b 365 906 269 849 315 906 b 451 776 415 906 451 868 b 269 411 451 653 383 528 z m 600 210 b 411 89 565 160 501 89 b 269 275 329 89 272 136 l 269 294 b 553 778 453 457 553 608 b 372 992 553 907 483 992 b 153 688 249 992 153 904 l 153 321 b 43 239 118 292 81 265 l 79 171 b 156 222 104 188 129 204 b 156 211 156 219 156 215 b 382 -14 169 81 239 -14 b 660 154 501 -14 594 40 z "},"Ă":{"ha":850,"x_min":0,"x_max":0,"o":"m 589 294 l 689 0 l 818 0 l 499 936 l 353 936 l 35 0 l 160 0 l 257 294 z m 282 389 l 374 660 b 421 829 392 717 407 774 l 424 829 b 472 658 438 775 451 719 l 564 389 z m 251 1135 b 422 988 254 1051 304 988 b 596 1135 542 988 593 1053 l 525 1135 b 424 1067 518 1099 492 1067 b 324 1135 356 1067 331 1103 z "},"Ā":{"ha":850,"x_min":0,"x_max":0,"o":"m 589 294 l 689 0 l 818 0 l 499 936 l 353 936 l 35 0 l 160 0 l 257 294 z m 282 389 l 374 660 b 421 829 392 717 407 774 l 424 829 b 472 658 438 775 451 719 l 564 389 z m 257 1094 l 257 1018 l 589 1018 l 589 1094 z "},"Ą":{"ha":850,"x_min":0,"x_max":0,"o":"m 499 936 l 353 936 l 35 0 l 160 0 l 257 294 l 589 294 l 688 6 b 606 -165 654 -32 606 -97 b 735 -285 606 -243 657 -285 b 847 -253 769 -285 818 -275 l 828 -190 b 765 -204 811 -199 789 -204 b 694 -132 724 -204 694 -176 b 768 -3 694 -82 746 -25 l 818 0 z m 282 389 l 374 660 b 421 829 392 717 407 774 l 424 829 b 472 658 438 775 451 719 l 564 389 z "},"Ǻ":{"ha":850,"x_min":0,"x_max":0,"o":"m 433 961 b 558 1068 508 961 558 1007 b 435 1178 558 1129 513 1178 b 307 1068 354 1178 307 1128 b 433 961 307 1008 356 961 z m 432 1013 b 372 1068 396 1013 372 1038 b 431 1128 372 1100 393 1128 b 493 1069 469 1128 493 1101 b 432 1013 493 1035 469 1013 z m 508 1322 l 361 1203 l 468 1203 l 667 1322 z m 589 294 l 689 0 l 818 0 l 499 936 l 353 936 l 35 0 l 160 0 l 257 294 z m 282 389 l 374 660 b 421 829 392 717 407 774 l 424 829 b 472 658 438 775 451 719 l 564 389 z "},"Ć":{"ha":806,"x_min":0,"x_max":0,"o":"m 735 126 b 538 88 686 103 611 88 b 178 464 310 88 178 235 b 543 850 178 710 324 850 b 732 811 621 850 686 833 l 761 910 b 539 951 729 926 656 951 b 50 460 249 951 50 753 b 513 -15 50 153 249 -15 b 760 31 626 -15 715 8 z m 556 1151 l 426 989 l 526 989 l 703 1151 z "},"Č":{"ha":806,"x_min":0,"x_max":0,"o":"m 735 126 b 538 88 686 103 611 88 b 178 464 310 88 178 235 b 543 850 178 710 324 850 b 732 811 621 850 686 833 l 761 910 b 539 951 729 926 656 951 b 50 460 249 951 50 753 b 513 -15 50 153 249 -15 b 760 31 626 -15 715 8 z m 536 990 l 679 1149 l 579 1149 l 492 1053 l 489 1053 l 400 1149 l 297 1149 l 443 990 z "},"Ĉ":{"ha":806,"x_min":0,"x_max":0,"o":"m 735 126 b 538 88 686 103 611 88 b 178 464 310 88 178 235 b 543 850 178 710 324 850 b 732 811 621 850 686 833 l 761 910 b 539 951 729 926 656 951 b 50 460 249 951 50 753 b 513 -15 50 153 249 -15 b 760 31 626 -15 715 8 z m 436 1150 l 293 992 l 392 992 l 481 1088 l 483 1088 l 572 992 l 674 992 l 529 1150 z "},"Ċ":{"ha":806,"x_min":0,"x_max":0,"o":"m 735 126 b 538 88 686 103 611 88 b 178 464 310 88 178 235 b 543 850 178 710 324 850 b 732 811 621 850 686 833 l 761 910 b 539 951 729 926 656 951 b 50 460 249 951 50 753 b 513 -15 50 153 249 -15 b 760 31 626 -15 715 8 z m 483 999 b 551 1069 522 999 551 1033 b 485 1139 551 1106 522 1139 b 414 1069 444 1139 414 1106 b 482 999 414 1033 444 999 z "},"Ď":{"ha":925,"x_min":0,"x_max":0,"o":"m 106 3 b 325 -8 167 -4 239 -8 b 739 126 507 -8 651 39 b 874 490 826 213 874 338 b 742 826 874 642 825 750 b 363 943 660 903 536 943 b 106 924 267 943 179 935 z m 226 835 b 368 847 258 842 306 847 b 747 486 624 847 749 707 b 349 89 747 233 607 89 b 226 96 301 89 257 90 z m 475 989 l 618 1147 l 518 1147 l 431 1051 l 428 1051 l 339 1147 l 236 1147 l 382 989 z "},"Ĕ":{"ha":683,"x_min":0,"x_max":0,"o":"m 590 539 l 226 539 l 226 835 l 611 835 l 611 936 l 106 936 l 106 0 l 632 0 l 632 101 l 226 101 l 226 439 l 590 439 z m 181 1146 b 351 999 183 1063 233 999 b 525 1146 471 999 522 1064 l 454 1146 b 353 1078 447 1110 421 1078 b 253 1146 285 1078 260 1114 z "},"Ě":{"ha":683,"x_min":0,"x_max":0,"o":"m 590 539 l 226 539 l 226 835 l 611 835 l 611 936 l 106 936 l 106 0 l 632 0 l 632 101 l 226 101 l 226 439 l 590 439 z m 404 986 l 547 1144 l 447 1144 l 360 1049 l 357 1049 l 268 1144 l 165 1144 l 311 986 z "},"Ė":{"ha":683,"x_min":0,"x_max":0,"o":"m 590 539 l 226 539 l 226 835 l 611 835 l 611 936 l 106 936 l 106 0 l 632 0 l 632 101 l 226 101 l 226 439 l 590 439 z m 349 1001 b 417 1072 388 1001 417 1036 b 350 1142 417 1108 388 1142 b 279 1072 310 1142 279 1108 b 347 1001 279 1036 310 1001 z "},"Ē":{"ha":683,"x_min":0,"x_max":0,"o":"m 590 539 l 226 539 l 226 835 l 611 835 l 611 936 l 106 936 l 106 0 l 632 0 l 632 101 l 226 101 l 226 439 l 590 439 z m 194 1094 l 194 1018 l 526 1018 l 526 1094 z "},"Ę":{"ha":683,"x_min":0,"x_max":0,"o":"m 621 -192 b 560 -203 600 -200 581 -203 b 496 -147 522 -203 496 -183 b 611 -1 496 -96 553 -37 b 632 0 618 -1 626 0 l 632 101 l 226 101 l 226 439 l 590 439 l 590 539 l 226 539 l 226 835 l 611 835 l 611 936 l 106 936 l 106 0 l 511 0 b 400 -174 461 -33 400 -99 b 528 -286 400 -246 449 -286 b 639 -257 569 -286 607 -276 z "},"Ğ":{"ha":897,"x_min":0,"x_max":0,"o":"m 818 492 l 510 492 l 510 394 l 700 394 l 700 115 b 539 90 672 101 618 90 b 178 468 321 90 178 231 b 554 844 178 703 326 844 b 761 804 649 844 711 826 l 790 903 b 557 946 750 922 665 946 b 50 463 243 946 51 742 b 181 114 50 317 100 192 b 531 -10 272 26 389 -10 b 818 42 657 -10 764 22 z m 319 1149 b 490 1001 322 1065 372 1001 b 664 1149 610 1001 661 1067 l 593 1149 b 492 1081 586 1113 560 1081 b 392 1149 424 1081 399 1117 z "},"Ĝ":{"ha":897,"x_min":0,"x_max":0,"o":"m 818 492 l 510 492 l 510 394 l 700 394 l 700 115 b 539 90 672 101 618 90 b 178 468 321 90 178 231 b 554 844 178 703 326 844 b 761 804 649 844 711 826 l 790 903 b 557 946 750 922 665 946 b 50 463 243 946 51 742 b 181 114 50 317 100 192 b 531 -10 272 26 389 -10 b 818 42 657 -10 764 22 z m 453 1149 l 310 990 l 408 990 l 497 1086 l 500 1086 l 589 990 l 690 990 l 546 1149 z "},"Ģ":{"ha":897,"x_min":0,"x_max":0,"o":"m 818 492 l 510 492 l 510 394 l 700 394 l 700 115 b 539 90 672 101 618 90 b 178 468 321 90 178 231 b 554 844 178 703 326 844 b 761 804 649 844 711 826 l 790 903 b 557 946 750 922 665 946 b 50 463 243 946 51 742 b 181 114 50 317 100 192 b 531 -10 272 26 389 -10 b 818 42 657 -10 764 22 z m 414 -308 b 593 -158 500 -303 593 -261 b 538 -57 593 -112 565 -75 l 447 -76 b 494 -160 472 -96 494 -128 b 390 -251 494 -215 444 -242 z "},"Ġ":{"ha":897,"x_min":0,"x_max":0,"o":"m 818 492 l 510 492 l 510 394 l 700 394 l 700 115 b 539 90 672 101 618 90 b 178 468 321 90 178 231 b 554 844 178 703 326 844 b 761 804 649 844 711 826 l 790 903 b 557 946 750 922 665 946 b 50 463 243 946 51 742 b 181 114 50 317 100 192 b 531 -10 272 26 389 -10 b 818 42 657 -10 764 22 z m 503 999 b 571 1069 542 999 571 1033 b 504 1139 571 1106 542 1139 b 433 1069 464 1139 433 1106 b 501 999 433 1033 464 999 z "},"":{"ha":897,"x_min":0,"x_max":0,"o":"m 818 492 l 510 492 l 510 394 l 700 394 l 700 115 b 539 90 672 101 618 90 b 178 468 321 90 178 231 b 554 844 178 703 326 844 b 761 804 649 844 711 826 l 790 903 b 557 946 750 922 665 946 b 50 463 243 946 51 742 b 181 114 50 317 100 192 b 531 -10 272 26 389 -10 b 818 42 657 -10 764 22 z m 404 993 b 440 1054 407 1031 418 1054 b 506 1028 460 1054 479 1042 b 590 1001 536 1013 561 1001 b 683 1136 654 1001 685 1049 l 619 1136 b 582 1082 615 1092 603 1082 b 515 1107 560 1082 538 1094 b 433 1135 486 1122 464 1135 b 339 993 372 1135 336 1078 z "},"Ĥ":{"ha":906,"x_min":0,"x_max":0,"o":"m 106 936 l 106 0 l 226 0 l 226 439 l 679 439 l 679 0 l 801 0 l 801 936 l 679 936 l 679 544 l 226 544 l 226 936 z m 407 1144 l 264 986 l 363 986 l 451 1082 l 454 1082 l 543 986 l 644 986 l 500 1144 z "},"Ĭ":{"ha":332,"x_min":0,"x_max":0,"o":"m 106 936 l 106 0 l 226 0 l 226 936 z m -6 1143 b 165 996 -3 1060 47 996 b 339 1143 285 996 336 1061 l 268 1143 b 167 1075 261 1107 235 1075 b 67 1143 99 1075 74 1111 z "},"İ":{"ha":332,"x_min":0,"x_max":0,"o":"m 106 936 l 106 0 l 226 0 l 226 936 z m 168 1001 b 236 1072 207 1001 236 1036 b 169 1142 236 1108 207 1142 b 99 1072 129 1142 99 1108 b 167 1001 99 1036 129 1001 z "},"Ī":{"ha":332,"x_min":0,"x_max":0,"o":"m 106 936 l 106 0 l 226 0 l 226 936 z m 1 1094 l 1 1018 l 333 1018 l 333 1094 z "},"Į":{"ha":332,"x_min":0,"x_max":0,"o":"m 226 936 l 106 936 l 106 0 b 39 -171 81 -37 39 -103 b 168 -290 39 -249 92 -290 b 281 -258 203 -290 251 -281 l 261 -196 b 199 -208 246 -203 225 -208 b 128 -136 158 -208 128 -183 b 185 0 128 -86 164 -29 l 226 0 z "},"Ĩ":{"ha":332,"x_min":0,"x_max":0,"o":"m 106 936 l 106 0 l 226 0 l 226 936 z m 60 993 b 96 1054 63 1031 74 1054 b 161 1028 115 1054 135 1042 b 246 1001 192 1013 217 1001 b 339 1136 310 1001 340 1049 l 275 1136 b 238 1082 271 1092 258 1082 b 171 1107 215 1082 193 1094 b 89 1135 142 1122 119 1135 b -6 993 28 1135 -8 1078 z "},"Ĵ":{"ha":514,"x_min":0,"x_max":0,"o":"m 297 319 b 125 88 297 136 233 88 b 24 106 85 88 49 96 l 6 7 b 135 -15 36 -6 90 -15 b 418 310 296 -15 418 61 l 418 936 l 297 936 z m 306 1144 l 163 986 l 261 986 l 350 1082 l 353 1082 l 442 986 l 543 986 l 399 1144 z "},"Ķ":{"ha":753,"x_min":0,"x_max":0,"o":"m 106 0 l 226 0 l 226 357 l 315 460 l 624 0 l 767 0 l 401 539 l 740 936 l 590 936 l 304 585 b 231 485 281 554 256 521 l 226 485 l 226 936 l 106 936 z m 299 -306 b 478 -156 385 -300 478 -258 b 422 -54 478 -110 450 -72 l 332 -74 b 379 -157 357 -93 379 -125 b 275 -249 379 -212 329 -239 z "},"Ĺ":{"ha":656,"x_min":0,"x_max":0,"o":"m 106 0 l 626 0 l 626 101 l 226 101 l 226 936 l 106 936 z m 249 1149 l 119 986 l 219 986 l 396 1149 z "},"Ľ":{"ha":656,"x_min":0,"x_max":0,"o":"m 106 0 l 626 0 l 626 101 l 226 101 l 226 936 l 106 936 z m 361 700 b 540 850 447 706 540 747 b 485 951 540 896 513 933 l 394 932 b 442 849 419 913 442 881 b 338 757 442 793 392 767 z "},"Ļ":{"ha":656,"x_min":0,"x_max":0,"o":"m 106 0 l 626 0 l 626 101 l 226 101 l 226 936 l 106 936 z m 260 -308 b 439 -158 346 -303 439 -261 b 383 -57 439 -112 411 -75 l 293 -76 b 340 -160 318 -96 340 -128 b 236 -251 340 -215 290 -242 z "},"Ŀ":{"ha":656,"x_min":0,"x_max":0,"o":"m 106 0 l 626 0 l 626 101 l 226 101 l 226 936 l 106 936 z m 474 444 b 542 515 513 444 542 479 b 475 585 542 551 513 585 b 404 515 435 585 404 551 b 472 444 404 479 435 444 z "},"":{"ha":1117,"x_min":0,"x_max":0,"o":"m 918 0 l 1036 0 l 978 936 l 824 936 l 657 483 b 558 168 615 365 582 263 l 554 168 b 460 483 531 265 499 368 l 300 936 l 146 936 l 81 0 l 196 0 l 221 401 b 239 815 229 542 236 699 l 242 815 b 350 451 268 704 306 583 l 501 6 l 593 6 l 758 460 b 876 815 806 588 844 706 l 881 815 b 894 411 879 699 888 542 z m 511 1144 l 368 986 l 467 986 l 556 1082 l 558 1082 l 647 986 l 749 986 l 604 1144 z "},"Ń":{"ha":914,"x_min":0,"x_max":0,"o":"m 219 0 l 219 400 b 210 786 219 556 217 668 l 214 788 b 389 475 261 686 324 579 l 686 0 l 808 0 l 808 936 l 694 936 l 694 544 b 708 160 694 399 697 285 l 706 158 b 538 463 661 254 607 353 l 238 936 l 106 936 l 106 0 z m 515 1149 l 386 986 l 486 986 l 663 1149 z "},"Ň":{"ha":914,"x_min":0,"x_max":0,"o":"m 219 0 l 219 400 b 210 786 219 556 217 668 l 214 788 b 389 475 261 686 324 579 l 686 0 l 808 0 l 808 936 l 694 936 l 694 544 b 708 160 694 399 697 285 l 706 158 b 538 463 661 254 607 353 l 238 936 l 106 936 l 106 0 z m 506 979 l 649 1138 l 549 1138 l 461 1042 l 458 1042 l 369 1138 l 267 1138 l 413 979 z "},"":{"ha":914,"x_min":0,"x_max":0,"o":"m 219 0 l 219 400 b 210 786 219 556 217 668 l 214 788 b 389 475 261 686 324 579 l 686 0 l 808 0 l 808 936 l 694 936 l 694 544 b 708 160 694 399 697 285 l 706 158 b 538 463 661 254 607 353 l 238 936 l 106 936 l 106 0 z m 410 1144 l 267 986 l 365 986 l 454 1082 l 457 1082 l 546 986 l 647 986 l 503 1144 z "},"Ņ":{"ha":914,"x_min":0,"x_max":0,"o":"m 219 0 l 219 400 b 210 786 219 556 217 668 l 214 788 b 389 475 261 686 324 579 l 686 0 l 808 0 l 808 936 l 694 936 l 694 544 b 708 160 694 399 697 285 l 706 158 b 538 463 661 254 607 353 l 238 936 l 106 936 l 106 0 z m 375 -307 b 554 -157 461 -301 554 -260 b 499 -56 554 -111 526 -74 l 408 -75 b 456 -158 433 -94 456 -126 b 351 -250 456 -214 406 -240 z "},"Ŏ":{"ha":957,"x_min":0,"x_max":0,"o":"m 485 951 b 50 460 235 951 50 757 b 471 -15 50 176 224 -15 b 906 478 710 -15 906 156 b 485 951 906 756 740 951 z m 479 853 b 778 472 681 853 778 658 b 478 83 778 260 669 83 b 179 463 288 83 179 263 b 479 853 179 668 279 853 z m 306 1153 b 476 1006 308 1069 358 1006 b 650 1153 596 1006 647 1071 l 579 1153 b 478 1085 572 1117 546 1085 b 378 1153 410 1085 385 1121 z "},"Ő":{"ha":957,"x_min":0,"x_max":0,"o":"m 485 951 b 50 460 235 951 50 757 b 471 -15 50 176 224 -15 b 906 478 710 -15 906 156 b 485 951 906 756 740 951 z m 479 853 b 778 472 681 853 778 658 b 478 83 778 260 669 83 b 179 463 288 83 179 263 b 479 853 179 668 279 853 z m 443 1153 l 332 997 l 421 997 l 575 1153 z m 647 1153 l 536 997 l 625 997 l 781 1153 z "},"Ō":{"ha":957,"x_min":0,"x_max":0,"o":"m 485 951 b 50 460 235 951 50 757 b 471 -15 50 176 224 -15 b 906 478 710 -15 906 156 b 485 951 906 756 740 951 z m 479 853 b 778 472 681 853 778 658 b 478 83 778 260 669 83 b 179 463 288 83 179 263 b 479 853 179 668 279 853 z m 313 1101 l 313 1025 l 644 1025 l 644 1101 z "},"Ǿ":{"ha":957,"x_min":0,"x_max":0,"o":"m 156 -60 l 243 60 b 481 -15 310 11 392 -15 b 906 476 704 -15 906 150 b 785 821 906 614 863 736 l 871 940 l 797 990 l 715 878 b 482 951 649 926 568 951 b 50 463 238 951 50 758 b 174 117 50 324 96 200 l 88 -6 z m 244 219 l 243 218 b 174 469 201 290 174 365 b 481 854 174 665 276 854 b 656 789 550 854 608 829 z m 713 715 l 717 715 b 782 472 765 636 782 551 b 478 82 782 261 674 82 b 303 149 403 82 349 106 z m 544 1160 l 415 997 l 515 997 l 692 1160 z "},"Ŕ":{"ha":747,"x_min":0,"x_max":0,"o":"m 106 0 l 226 0 l 226 406 l 340 406 b 528 224 450 401 500 353 b 590 0 554 107 575 28 l 715 0 b 643 257 696 36 674 126 b 506 446 621 354 578 421 l 506 450 b 682 689 604 483 682 565 b 608 867 682 761 656 825 b 338 943 550 919 467 943 b 106 924 254 943 167 936 z m 226 839 b 346 850 246 844 288 850 b 561 675 474 849 561 796 b 350 497 561 568 479 497 l 226 497 z m 419 1153 l 290 990 l 390 990 l 567 1153 z "},"Ř":{"ha":747,"x_min":0,"x_max":0,"o":"m 106 0 l 226 0 l 226 406 l 340 406 b 528 224 450 401 500 353 b 590 0 554 107 575 28 l 715 0 b 643 257 696 36 674 126 b 506 446 621 354 578 421 l 506 450 b 682 689 604 483 682 565 b 608 867 682 761 656 825 b 338 943 550 919 467 943 b 106 924 254 943 167 936 z m 226 839 b 346 850 246 844 288 850 b 561 675 474 849 561 796 b 350 497 561 568 479 497 l 226 497 z m 413 990 l 556 1149 l 456 1149 l 368 1053 l 365 1053 l 276 1149 l 174 1149 l 319 990 z "},"Ŗ":{"ha":747,"x_min":0,"x_max":0,"o":"m 106 0 l 226 0 l 226 406 l 340 406 b 528 224 450 401 500 353 b 590 0 554 107 575 28 l 715 0 b 643 257 696 36 674 126 b 506 446 621 354 578 421 l 506 450 b 682 689 604 483 682 565 b 608 867 682 761 656 825 b 338 943 550 919 467 943 b 106 924 254 943 167 936 z m 226 839 b 346 850 246 844 288 850 b 561 675 474 849 561 796 b 350 497 561 568 479 497 l 226 497 z m 294 -299 b 474 -149 381 -293 474 -251 b 418 -47 474 -103 446 -65 l 328 -67 b 375 -150 353 -86 375 -118 b 271 -242 375 -206 325 -232 z "},"Ś":{"ha":685,"x_min":0,"x_max":0,"o":"m 58 46 b 297 -15 108 13 207 -15 b 625 256 518 -15 625 111 b 386 531 625 393 544 469 b 200 711 257 581 200 624 b 376 851 200 775 249 851 b 554 807 461 851 524 824 l 588 906 b 381 951 546 929 476 951 b 78 697 199 951 78 843 b 325 432 78 565 172 486 b 501 246 451 383 501 333 b 306 86 501 151 429 86 b 89 147 222 86 143 114 z m 415 1153 l 286 990 l 386 990 l 563 1153 z "},"Ş":{"ha":685,"x_min":0,"x_max":0,"o":"m 58 46 b 293 -15 111 11 213 -15 b 303 -15 296 -15 300 -15 l 247 -112 b 356 -171 313 -119 356 -136 b 297 -215 356 -201 328 -215 b 221 -194 268 -215 243 -207 l 200 -254 b 297 -278 224 -268 260 -278 b 440 -167 372 -278 440 -246 b 343 -69 440 -115 396 -76 l 382 -7 b 625 256 546 22 625 132 b 386 531 625 393 544 469 b 200 711 257 581 200 624 b 376 851 200 775 249 851 b 554 807 461 851 524 824 l 588 906 b 381 951 546 929 476 951 b 78 697 199 951 78 843 b 325 432 78 565 172 486 b 501 246 451 383 501 333 b 306 86 501 151 429 86 b 89 147 222 86 143 114 z "},"Ŝ":{"ha":685,"x_min":0,"x_max":0,"o":"m 58 46 b 297 -15 108 13 207 -15 b 625 256 518 -15 625 111 b 386 531 625 393 544 469 b 200 711 257 581 200 624 b 376 851 200 775 249 851 b 554 807 461 851 524 824 l 588 906 b 381 951 546 929 476 951 b 78 697 199 951 78 843 b 325 432 78 565 172 486 b 501 246 451 383 501 333 b 306 86 501 151 429 86 b 89 147 222 86 143 114 z m 297 1149 l 154 990 l 253 990 l 342 1086 l 344 1086 l 433 990 l 535 990 l 390 1149 z "},"Ș":{"ha":685,"x_min":0,"x_max":0,"o":"m 58 46 b 297 -15 108 13 207 -15 b 625 256 518 -15 625 111 b 386 531 625 393 544 469 b 200 711 257 581 200 624 b 376 851 200 775 249 851 b 554 807 461 851 524 824 l 588 906 b 381 951 546 929 476 951 b 78 697 199 951 78 843 b 325 432 78 565 172 486 b 501 246 451 383 501 333 b 306 86 501 151 429 86 b 89 147 222 86 143 114 z m 257 -308 b 436 -158 343 -303 436 -261 b 381 -57 436 -112 408 -75 l 290 -76 b 338 -160 315 -96 338 -128 b 233 -251 338 -215 288 -242 z "},"Ť":{"ha":690,"x_min":0,"x_max":0,"o":"m 283 0 l 406 0 l 406 833 l 692 833 l 692 936 l -1 936 l -1 833 l 283 833 z m 392 986 l 535 1144 l 435 1144 l 347 1049 l 344 1049 l 256 1144 l 153 1144 l 299 986 z "},"Ţ":{"ha":690,"x_min":0,"x_max":0,"o":"m 283 0 l 406 0 l 406 833 l 692 833 l 692 936 l -1 936 l -1 833 l 283 833 z m 250 -308 b 429 -158 336 -303 429 -261 b 374 -57 429 -112 401 -75 l 283 -76 b 331 -160 308 -96 331 -128 b 226 -251 331 -215 281 -242 z "},"Ŭ":{"ha":899,"x_min":0,"x_max":0,"o":"m 104 936 l 104 385 b 440 -15 104 94 249 -15 b 794 390 643 -15 794 103 l 794 936 l 672 936 l 672 382 b 444 83 672 175 583 83 b 226 382 319 83 226 172 l 226 936 z m 276 1149 b 447 1001 279 1065 329 1001 b 621 1149 567 1001 618 1067 l 550 1149 b 449 1081 543 1113 517 1081 b 349 1149 381 1081 356 1117 z "},"Ű":{"ha":899,"x_min":0,"x_max":0,"o":"m 104 936 l 104 385 b 440 -15 104 94 249 -15 b 794 390 643 -15 794 103 l 794 936 l 672 936 l 672 382 b 444 83 672 175 583 83 b 226 382 319 83 226 172 l 226 936 z m 393 1149 l 282 993 l 371 993 l 525 1149 z m 597 1149 l 486 993 l 575 993 l 731 1149 z "},"Ū":{"ha":899,"x_min":0,"x_max":0,"o":"m 104 936 l 104 385 b 440 -15 104 94 249 -15 b 794 390 643 -15 794 103 l 794 936 l 672 936 l 672 382 b 444 83 672 175 583 83 b 226 382 319 83 226 172 l 226 936 z m 283 1094 l 283 1018 l 615 1018 l 615 1094 z "},"Ų":{"ha":899,"x_min":0,"x_max":0,"o":"m 578 -187 b 514 -201 558 -196 536 -201 b 451 -142 479 -201 451 -181 b 536 -1 451 -92 499 -36 b 794 390 688 29 794 151 l 794 936 l 672 936 l 672 382 b 444 83 672 175 583 83 b 226 382 319 83 226 172 l 226 936 l 104 936 l 104 385 b 428 -15 104 100 243 -8 b 436 -14 431 -15 433 -14 b 357 -172 399 -54 357 -111 b 482 -283 357 -242 404 -283 b 596 -250 519 -283 567 -271 z "},"Ů":{"ha":899,"x_min":0,"x_max":0,"o":"m 104 936 l 104 385 b 440 -15 104 94 249 -15 b 794 390 643 -15 794 103 l 794 936 l 672 936 l 672 382 b 444 83 672 175 583 83 b 226 382 319 83 226 172 l 226 936 z m 451 1213 b 311 1086 365 1213 311 1156 b 451 964 311 1018 367 964 b 589 1086 532 964 589 1017 b 453 1213 589 1157 536 1213 z m 449 1161 b 517 1088 490 1161 517 1128 b 449 1015 517 1047 490 1015 b 383 1086 410 1015 383 1050 b 447 1161 383 1126 407 1161 z "},"Ũ":{"ha":899,"x_min":0,"x_max":0,"o":"m 104 936 l 104 385 b 440 -15 104 94 249 -15 b 794 390 643 -15 794 103 l 794 936 l 672 936 l 672 382 b 444 83 672 175 583 83 b 226 382 319 83 226 172 l 226 936 z m 342 993 b 378 1054 344 1031 356 1054 b 443 1028 397 1054 417 1042 b 528 1001 474 1013 499 1001 b 621 1136 592 1001 622 1049 l 557 1136 b 519 1082 553 1092 540 1082 b 453 1107 497 1082 475 1094 b 371 1135 424 1122 401 1135 b 276 993 310 1135 274 1078 z "},"Ẃ":{"ha":1175,"x_min":0,"x_max":0,"o":"m 385 0 l 518 488 b 590 793 553 608 574 700 l 593 793 b 654 488 606 699 625 607 l 772 0 l 899 0 l 1164 936 l 1040 936 l 917 464 b 842 140 888 347 861 243 l 839 140 b 774 461 825 239 800 350 l 660 936 l 533 936 l 408 464 b 332 139 376 343 347 232 l 329 139 b 260 463 313 229 288 346 l 149 936 l 21 936 l 258 0 z m 663 1149 l 533 986 l 633 986 l 810 1149 z "},"Ŵ":{"ha":1175,"x_min":0,"x_max":0,"o":"m 385 0 l 518 488 b 590 793 553 608 574 700 l 593 793 b 654 488 606 699 625 607 l 772 0 l 899 0 l 1164 936 l 1040 936 l 917 464 b 842 140 888 347 861 243 l 839 140 b 774 461 825 239 800 350 l 660 936 l 533 936 l 408 464 b 332 139 376 343 347 232 l 329 139 b 260 463 313 229 288 346 l 149 936 l 21 936 l 258 0 z m 543 1144 l 400 986 l 499 986 l 588 1082 l 590 1082 l 679 986 l 781 986 l 636 1144 z "},"Ẅ":{"ha":1175,"x_min":0,"x_max":0,"o":"m 385 0 l 518 488 b 590 793 553 608 574 700 l 593 793 b 654 488 606 699 625 607 l 772 0 l 899 0 l 1164 936 l 1040 936 l 917 464 b 842 140 888 347 861 243 l 839 140 b 774 461 825 239 800 350 l 660 936 l 533 936 l 408 464 b 332 139 376 343 347 232 l 329 139 b 260 463 313 229 288 346 l 149 936 l 21 936 l 258 0 z m 464 1001 b 531 1072 504 1001 531 1033 b 464 1142 531 1111 503 1142 b 396 1072 425 1142 396 1110 b 463 1001 396 1033 422 1001 z m 721 1001 b 789 1072 763 1001 789 1033 b 722 1142 789 1111 761 1142 b 653 1072 682 1142 653 1110 b 719 1001 653 1033 681 1001 z "},"Ẁ":{"ha":1175,"x_min":0,"x_max":0,"o":"m 385 0 l 518 488 b 590 793 553 608 574 700 l 593 793 b 654 488 606 699 625 607 l 772 0 l 899 0 l 1164 936 l 1040 936 l 917 464 b 842 140 888 347 861 243 l 839 140 b 774 461 825 239 800 350 l 660 936 l 533 936 l 408 464 b 332 139 376 343 347 232 l 329 139 b 260 463 313 229 288 346 l 149 936 l 21 936 l 258 0 z m 379 1149 l 556 988 l 656 988 l 526 1149 z "},"Ŷ":{"ha":751,"x_min":0,"x_max":0,"o":"m 436 0 l 436 399 l 750 936 l 613 936 l 478 678 b 383 485 442 607 410 546 l 381 485 b 288 678 351 550 324 607 l 156 936 l 18 936 l 314 397 l 314 0 z m 329 1144 l 186 986 l 285 986 l 374 1082 l 376 1082 l 465 986 l 567 986 l 422 1144 z "},"Ỳ":{"ha":751,"x_min":0,"x_max":0,"o":"m 436 0 l 436 399 l 750 936 l 613 936 l 478 678 b 383 485 442 607 410 546 l 381 485 b 288 678 351 550 324 607 l 156 936 l 18 936 l 314 397 l 314 0 z m 182 1139 l 358 978 l 458 978 l 329 1139 z "},"Ȳ":{"ha":751,"x_min":0,"x_max":0,"o":"m 436 0 l 436 399 l 750 936 l 613 936 l 478 678 b 383 485 442 607 410 546 l 381 485 b 288 678 351 550 324 607 l 156 936 l 18 936 l 314 397 l 314 0 z m 210 1094 l 210 1018 l 542 1018 l 542 1094 z "},"Ź":{"ha":768,"x_min":0,"x_max":0,"o":"m 42 0 l 725 0 l 725 101 l 201 101 l 201 106 l 718 863 l 718 936 l 86 936 l 86 835 l 561 835 l 561 831 l 42 71 z m 451 1149 l 322 986 l 422 986 l 599 1149 z "},"Ż":{"ha":768,"x_min":0,"x_max":0,"o":"m 42 0 l 725 0 l 725 101 l 201 101 l 201 106 l 718 863 l 718 936 l 86 936 l 86 835 l 561 835 l 561 831 l 42 71 z m 390 1000 b 458 1071 429 1000 458 1035 b 392 1140 458 1107 429 1140 b 321 1071 351 1140 321 1107 b 389 1000 321 1035 351 1000 z "},"Ǽ":{"ha":1094,"x_min":0,"x_max":0,"o":"m 124 0 l 274 331 l 561 331 l 603 0 l 1049 0 l 1050 101 l 707 101 l 665 436 l 999 436 l 999 536 l 650 536 l 614 835 l 1013 835 l 1013 936 l 426 936 l -1 0 z m 314 428 l 435 701 b 494 849 456 751 478 804 l 500 849 b 517 697 503 801 511 742 l 547 428 z m 678 1149 l 549 986 l 649 986 l 825 1149 z "},"ă":{"ha":669,"x_min":0,"x_max":0,"o":"m 163 947 b 335 775 163 861 213 775 b 507 947 439 775 507 844 l 435 947 b 335 851 431 901 400 851 b 235 947 278 851 243 893 z m 574 413 b 318 688 574 547 524 688 b 97 628 233 688 153 664 l 125 547 b 300 597 172 578 238 597 b 453 442 438 597 453 497 l 453 428 b 49 178 193 429 49 340 b 254 -15 49 81 118 -15 b 460 85 350 -15 422 32 l 464 85 l 474 0 l 585 0 b 574 161 576 46 574 103 z m 456 226 b 449 188 456 214 453 200 b 286 75 429 131 374 75 b 171 192 224 75 171 113 b 456 343 171 322 322 346 z "},"ā":{"ha":669,"x_min":0,"x_max":0,"o":"m 179 893 l 179 814 l 492 814 l 492 893 z m 574 413 b 318 688 574 547 524 688 b 97 628 233 688 153 664 l 125 547 b 300 597 172 578 238 597 b 453 442 438 597 453 497 l 453 428 b 49 178 193 429 49 340 b 254 -15 49 81 118 -15 b 460 85 350 -15 422 32 l 464 85 l 474 0 l 585 0 b 574 161 576 46 574 103 z m 456 226 b 449 188 456 214 453 200 b 286 75 429 131 374 75 b 171 192 224 75 171 113 b 456 343 171 322 322 346 z "},"ą":{"ha":669,"x_min":0,"x_max":0,"o":"m 574 413 b 318 688 574 547 524 688 b 97 628 233 688 153 664 l 125 547 b 300 597 172 578 238 597 b 453 442 438 597 453 497 l 453 428 b 49 178 193 429 49 340 b 254 -15 49 81 118 -15 b 460 85 350 -15 422 32 l 464 85 l 474 4 b 407 -168 449 -35 407 -99 b 531 -286 407 -244 460 -286 b 646 -253 568 -286 614 -276 l 626 -189 b 563 -203 608 -197 589 -203 b 496 -133 524 -203 496 -179 b 550 0 496 -85 529 -28 l 585 0 b 574 161 576 44 574 99 z m 456 226 b 449 188 456 214 453 200 b 286 75 429 131 374 75 b 171 192 224 75 171 113 b 456 343 171 322 322 346 z "},"ǻ":{"ha":669,"x_min":0,"x_max":0,"o":"m 413 1158 l 264 1011 l 350 1011 l 549 1158 z m 574 413 b 318 688 574 547 524 688 b 97 628 233 688 153 664 l 125 547 b 300 597 172 578 238 597 b 453 442 438 597 453 497 l 453 428 b 49 178 193 429 49 340 b 254 -15 49 81 118 -15 b 460 85 350 -15 422 32 l 464 85 l 474 0 l 585 0 b 574 161 576 46 574 103 z m 456 226 b 449 188 456 214 453 200 b 286 75 429 131 374 75 b 171 192 224 75 171 113 b 456 343 171 322 322 346 z m 335 722 b 474 850 414 722 474 776 b 336 981 474 924 419 981 b 194 849 249 981 194 922 b 335 722 194 778 251 722 z m 333 774 b 265 849 293 774 265 813 b 333 928 265 892 290 928 b 406 851 378 928 406 893 b 333 774 406 810 378 774 z "},"ć":{"ha":622,"x_min":0,"x_max":0,"o":"m 419 963 l 297 764 l 385 764 l 554 963 z m 560 117 b 410 83 525 101 479 83 b 176 335 276 83 176 179 b 414 589 176 475 260 589 b 556 557 481 589 526 574 l 583 651 b 414 686 550 668 486 686 b 53 329 194 686 53 536 b 388 -15 53 124 185 -15 b 581 25 478 -15 549 8 z "},"č":{"ha":622,"x_min":0,"x_max":0,"o":"m 408 764 l 539 963 l 447 963 l 365 831 l 363 831 l 281 963 l 186 963 l 319 764 z m 560 117 b 410 83 525 101 479 83 b 176 335 276 83 176 179 b 414 589 176 475 260 589 b 556 557 481 589 526 574 l 583 651 b 414 686 550 668 486 686 b 53 329 194 686 53 536 b 388 -15 53 124 185 -15 b 581 25 478 -15 549 8 z "},"ĉ":{"ha":622,"x_min":0,"x_max":0,"o":"m 318 963 l 188 764 l 278 764 l 358 896 l 361 896 l 442 764 l 536 764 l 403 963 z m 560 117 b 410 83 525 101 479 83 b 176 335 276 83 176 179 b 414 589 176 475 260 589 b 556 557 481 589 526 574 l 583 651 b 414 686 550 668 486 686 b 53 329 194 686 53 536 b 388 -15 53 124 185 -15 b 581 25 478 -15 549 8 z "},"ċ":{"ha":622,"x_min":0,"x_max":0,"o":"m 368 792 b 436 863 408 792 436 825 b 368 935 436 903 407 935 b 297 863 328 935 297 903 b 367 792 297 825 326 792 z m 560 117 b 410 83 525 101 479 83 b 176 335 276 83 176 179 b 414 589 176 475 260 589 b 556 557 481 589 526 574 l 583 651 b 414 686 550 668 486 686 b 53 329 194 686 53 536 b 388 -15 53 124 185 -15 b 581 25 478 -15 549 8 z "},"ď":{"ha":797,"x_min":0,"x_max":0,"o":"m 560 986 l 560 585 l 557 585 b 354 688 526 639 457 688 b 53 326 190 688 51 550 b 340 -15 53 122 178 -15 b 569 117 450 -15 532 42 l 572 117 l 578 0 l 688 0 b 682 174 683 46 682 114 l 682 986 z m 560 282 b 554 229 560 263 558 246 b 375 83 532 138 457 83 b 176 332 243 83 176 196 b 378 592 176 481 251 592 b 554 450 469 592 536 528 b 560 399 558 435 560 414 z m 794 725 b 888 897 815 742 888 793 b 838 999 888 943 863 983 l 750 979 b 793 889 774 958 793 924 b 743 765 793 832 765 792 z "},"ĕ":{"ha":696,"x_min":0,"x_max":0,"o":"m 179 947 b 351 775 179 861 229 775 b 524 947 456 775 524 844 l 451 947 b 351 851 447 901 417 851 b 251 947 294 851 260 893 z m 642 314 b 646 371 643 326 646 346 b 368 688 646 494 588 688 b 53 325 172 688 53 528 b 383 -15 53 122 176 -15 b 607 28 490 -15 564 8 l 586 115 b 400 81 540 96 488 81 b 169 314 278 81 172 149 z m 171 401 b 358 600 181 486 235 600 b 528 401 496 600 529 479 z "},"ě":{"ha":696,"x_min":0,"x_max":0,"o":"m 397 764 l 528 963 l 436 963 l 354 831 l 351 831 l 269 963 l 175 963 l 308 764 z m 642 314 b 646 371 643 326 646 346 b 368 688 646 494 588 688 b 53 325 172 688 53 528 b 383 -15 53 122 176 -15 b 607 28 490 -15 564 8 l 586 115 b 400 81 540 96 488 81 b 169 314 278 81 172 149 z m 171 401 b 358 600 181 486 235 600 b 528 401 496 600 529 479 z "},"ė":{"ha":696,"x_min":0,"x_max":0,"o":"m 354 792 b 422 863 394 792 422 825 b 354 935 422 903 393 935 b 283 863 314 935 283 903 b 353 792 283 825 313 792 z m 642 314 b 646 371 643 326 646 346 b 368 688 646 494 588 688 b 53 325 172 688 53 528 b 383 -15 53 122 176 -15 b 607 28 490 -15 564 8 l 586 115 b 400 81 540 96 488 81 b 169 314 278 81 172 149 z m 171 401 b 358 600 181 486 235 600 b 528 401 496 600 529 479 z "},"ē":{"ha":696,"x_min":0,"x_max":0,"o":"m 196 893 l 196 814 l 508 814 l 508 893 z m 642 314 b 646 371 643 326 646 346 b 368 688 646 494 588 688 b 53 325 172 688 53 528 b 383 -15 53 122 176 -15 b 607 28 490 -15 564 8 l 586 115 b 400 81 540 96 488 81 b 169 314 278 81 172 149 z m 171 401 b 358 600 181 486 235 600 b 528 401 496 600 529 479 z "},"ę":{"ha":696,"x_min":0,"x_max":0,"o":"m 535 -189 b 469 -203 515 -197 489 -203 b 413 -144 440 -203 413 -185 b 543 4 413 -87 489 -19 b 607 28 556 8 586 18 l 586 115 b 400 81 540 96 488 81 b 169 314 278 81 172 149 l 642 314 b 646 371 643 326 646 346 b 368 688 646 494 588 688 b 53 325 172 688 53 528 b 381 -15 53 124 176 -14 b 418 -12 394 -15 406 -14 l 418 -14 b 317 -175 374 -46 317 -107 b 442 -285 317 -244 367 -285 b 554 -251 483 -285 524 -274 z m 171 401 b 358 600 181 486 235 600 b 528 401 496 600 529 479 z "},"ğ":{"ha":776,"x_min":0,"x_max":0,"o":"m 206 947 b 378 775 206 861 256 775 b 550 947 482 775 550 844 l 478 947 b 378 851 474 901 443 851 b 278 947 321 851 286 893 z m 675 488 b 681 672 675 569 678 624 l 574 672 l 568 571 l 565 571 b 356 688 536 626 472 688 b 53 331 201 688 53 558 b 339 3 53 144 172 3 b 553 115 443 3 515 53 l 556 115 l 556 40 b 339 -194 556 -129 464 -194 b 142 -142 256 -194 186 -169 l 111 -235 b 335 -290 165 -271 254 -290 b 579 -210 419 -290 514 -271 b 675 97 644 -151 675 -57 z m 554 286 b 544 221 554 265 551 242 b 375 96 518 143 450 96 b 176 338 243 96 176 206 b 376 592 176 493 260 592 b 547 463 465 592 525 533 b 554 407 553 446 554 428 z "},"ĝ":{"ha":776,"x_min":0,"x_max":0,"o":"m 344 967 l 214 768 l 304 768 l 385 900 l 388 900 l 468 768 l 563 768 l 429 967 z m 675 488 b 681 672 675 569 678 624 l 574 672 l 568 571 l 565 571 b 356 688 536 626 472 688 b 53 331 201 688 53 558 b 339 3 53 144 172 3 b 553 115 443 3 515 53 l 556 115 l 556 40 b 339 -194 556 -129 464 -194 b 142 -142 256 -194 186 -169 l 111 -235 b 335 -290 165 -271 254 -290 b 579 -210 419 -290 514 -271 b 675 97 644 -151 675 -57 z m 554 286 b 544 221 554 265 551 242 b 375 96 518 143 450 96 b 176 338 243 96 176 206 b 376 592 176 493 260 592 b 547 463 465 592 525 533 b 554 407 553 446 554 428 z "},"ģ":{"ha":776,"x_min":0,"x_max":0,"o":"m 675 488 b 681 672 675 569 678 624 l 574 672 l 568 571 l 565 571 b 356 688 536 626 472 688 b 53 331 201 688 53 558 b 339 3 53 144 172 3 b 553 115 443 3 515 53 l 556 115 l 556 40 b 339 -194 556 -129 464 -194 b 142 -142 256 -194 186 -169 l 111 -235 b 335 -290 165 -271 254 -290 b 579 -210 419 -290 514 -271 b 675 97 644 -151 675 -57 z m 554 286 b 544 221 554 265 551 242 b 375 96 518 143 450 96 b 176 338 243 96 176 206 b 376 592 176 493 260 592 b 547 463 465 592 525 533 b 554 407 553 446 554 428 z m 469 985 b 290 842 385 981 290 940 b 346 743 290 799 318 761 l 433 761 b 385 843 408 782 385 811 b 493 933 385 899 436 925 z "},"ġ":{"ha":776,"x_min":0,"x_max":0,"o":"m 388 796 b 456 867 428 796 456 829 b 388 939 456 907 426 939 b 317 867 347 939 317 907 b 386 796 317 829 346 796 z m 675 488 b 681 672 675 569 678 624 l 574 672 l 568 571 l 565 571 b 356 688 536 626 472 688 b 53 331 201 688 53 558 b 339 3 53 144 172 3 b 553 115 443 3 515 53 l 556 115 l 556 40 b 339 -194 556 -129 464 -194 b 142 -142 256 -194 186 -169 l 111 -235 b 335 -290 165 -271 254 -290 b 579 -210 419 -290 514 -271 b 675 97 644 -151 675 -57 z m 554 286 b 544 221 554 265 551 242 b 375 96 518 143 450 96 b 176 338 243 96 176 206 b 376 592 176 493 260 592 b 547 463 465 592 525 533 b 554 407 553 446 554 428 z "},"":{"ha":776,"x_min":0,"x_max":0,"o":"m 658 488 b 664 672 658 569 661 624 l 557 672 l 551 571 l 549 571 b 339 688 519 626 456 688 b 36 331 185 688 36 558 b 322 3 36 144 156 3 b 536 115 426 3 499 53 l 539 115 l 539 40 b 322 -194 539 -129 447 -194 b 125 -142 239 -194 169 -169 l 94 -235 b 318 -290 149 -271 238 -290 b 563 -210 403 -290 497 -271 b 658 97 628 -151 658 -57 z m 538 286 b 528 221 538 265 535 242 b 358 96 501 143 433 96 b 160 338 226 96 160 206 b 360 592 160 493 243 592 b 531 463 449 592 508 533 b 538 407 536 446 538 428 z m 285 788 b 321 850 288 826 299 850 b 381 825 338 850 353 842 b 465 797 410 810 436 797 b 561 938 531 797 563 844 l 496 938 b 457 878 493 890 479 878 b 399 901 440 878 421 889 b 313 932 367 919 343 932 b 218 788 253 932 215 878 z "},"ĥ":{"ha":771,"x_min":0,"x_max":0,"o":"m 101 0 l 224 0 l 224 406 b 232 464 224 429 225 447 b 396 586 254 531 317 586 b 551 386 511 586 551 494 l 551 0 l 674 0 l 674 400 b 439 688 674 632 529 688 b 314 653 393 688 350 674 b 226 567 276 632 246 601 l 224 567 l 224 986 l 101 986 z m 121 1171 l -22 1013 l 76 1013 l 165 1108 l 168 1108 l 257 1013 l 358 1013 l 214 1171 z "},"ĭ":{"ha":325,"x_min":0,"x_max":0,"o":"m -6 947 b 167 775 -6 861 44 775 b 339 947 271 775 339 844 l 267 947 b 167 851 263 901 232 851 b 67 947 110 851 75 893 z m 224 0 l 224 672 l 101 672 l 101 0 z "},"ī":{"ha":325,"x_min":0,"x_max":0,"o":"m 7 893 l 7 814 l 319 814 l 319 893 z m 224 0 l 224 672 l 101 672 l 101 0 z "},"į":{"ha":325,"x_min":0,"x_max":0,"o":"m 161 792 b 240 869 210 792 240 828 b 163 947 240 913 210 947 b 85 869 117 947 85 913 b 160 792 85 828 115 792 z m 224 672 l 101 672 l 101 0 b 36 -171 76 -37 36 -103 b 164 -290 36 -249 88 -290 b 276 -258 200 -290 247 -281 l 258 -196 b 194 -208 242 -203 222 -208 b 124 -136 154 -208 124 -183 b 182 0 124 -86 161 -29 l 224 0 z "},"ĩ":{"ha":325,"x_min":0,"x_max":0,"o":"m 58 788 b 94 850 61 826 72 850 b 154 825 111 850 126 842 b 239 797 183 810 210 797 b 335 938 304 797 336 844 l 269 938 b 231 878 267 890 253 878 b 172 901 214 878 194 889 b 86 932 140 919 117 932 b -8 788 26 932 -11 878 z m 224 0 l 224 672 l 101 672 l 101 0 z "},"ĵ":{"ha":338,"x_min":0,"x_max":0,"o":"m -50 -293 b 158 -217 15 -293 104 -271 b 239 60 218 -156 239 -71 l 239 672 l 117 672 l 117 107 b 71 -146 117 -54 104 -108 b -62 -197 42 -178 -7 -193 z m 126 953 l -4 754 l 86 754 l 167 886 l 169 886 l 250 754 l 344 754 l 211 953 z "},"ķ":{"ha":651,"x_min":0,"x_max":0,"o":"m 222 986 l 101 986 l 101 0 l 222 0 l 222 253 l 285 322 l 517 0 l 665 0 l 369 396 l 629 672 l 482 672 l 285 440 b 225 364 265 417 242 388 l 222 364 z m 246 -308 b 425 -158 332 -303 425 -261 b 369 -57 425 -114 397 -75 l 279 -76 b 326 -160 304 -96 326 -128 b 222 -251 326 -215 276 -243 z "},"ĺ":{"ha":328,"x_min":0,"x_max":0,"o":"m 101 0 l 224 0 l 224 986 l 101 986 z m 214 1189 l 85 1026 l 185 1026 l 361 1189 z "},"ľ":{"ha":339,"x_min":0,"x_max":0,"o":"m 101 0 l 224 0 l 224 986 l 101 986 z m 333 725 b 422 894 354 743 422 793 b 374 999 422 943 397 983 l 286 979 b 329 889 310 958 329 924 b 279 765 329 832 301 793 z "},"ļ":{"ha":328,"x_min":0,"x_max":0,"o":"m 101 0 l 224 0 l 224 986 l 101 986 z m 72 -308 b 251 -158 158 -303 251 -261 b 196 -57 251 -114 224 -75 l 106 -76 b 153 -160 131 -96 153 -128 b 49 -251 153 -215 103 -243 z "},"ŀ":{"ha":378,"x_min":0,"x_max":0,"o":"m 101 0 l 224 0 l 224 986 l 101 986 z m 351 474 b 415 543 389 474 415 507 b 351 613 415 583 388 613 b 285 543 314 613 285 582 b 350 474 285 507 313 474 z "},"":{"ha":1158,"x_min":0,"x_max":0,"o":"m 536 963 l 406 764 l 496 764 l 576 896 l 579 896 l 660 764 l 754 764 l 621 963 z m 101 0 l 221 0 l 221 406 b 231 465 221 426 224 447 b 382 588 250 526 306 588 b 522 403 475 588 522 510 l 522 0 l 642 0 l 642 415 b 651 476 642 438 646 460 b 796 588 672 536 726 588 b 942 381 894 588 942 510 l 942 0 l 1061 0 l 1061 396 b 840 688 1061 629 929 688 b 692 640 776 688 732 671 b 617 553 664 619 638 590 l 614 553 b 424 688 585 632 515 688 b 213 564 313 688 250 628 l 208 564 l 203 672 l 96 672 b 101 490 100 617 101 560 z "},"ń":{"ha":771,"x_min":0,"x_max":0,"o":"m 442 963 l 319 764 l 407 764 l 576 963 z m 101 0 l 224 0 l 224 404 b 232 461 224 425 226 446 b 396 586 253 529 315 586 b 551 388 511 586 551 496 l 551 0 l 674 0 l 674 401 b 436 688 674 632 529 688 b 214 561 325 688 247 625 l 211 561 l 204 672 l 96 672 b 101 490 100 617 101 560 z "},"ň":{"ha":771,"x_min":0,"x_max":0,"o":"m 431 764 l 561 963 l 469 963 l 388 831 l 385 831 l 303 963 l 208 963 l 342 764 z m 101 0 l 224 0 l 224 404 b 232 461 224 425 226 446 b 396 586 253 529 315 586 b 551 388 511 586 551 496 l 551 0 l 674 0 l 674 401 b 436 688 674 632 529 688 b 214 561 325 688 247 625 l 211 561 l 204 672 l 96 672 b 101 490 100 617 101 560 z "},"":{"ha":771,"x_min":0,"x_max":0,"o":"m 342 963 l 211 764 l 301 764 l 382 896 l 385 896 l 465 764 l 560 764 l 426 963 z m 101 0 l 224 0 l 224 404 b 232 461 224 425 226 446 b 396 586 253 529 315 586 b 551 388 511 586 551 496 l 551 0 l 674 0 l 674 401 b 436 688 674 632 529 688 b 214 561 325 688 247 625 l 211 561 l 204 672 l 96 672 b 101 490 100 617 101 560 z "},"ņ":{"ha":771,"x_min":0,"x_max":0,"o":"m 101 0 l 224 0 l 224 404 b 232 461 224 425 226 446 b 396 586 253 529 315 586 b 551 388 511 586 551 496 l 551 0 l 674 0 l 674 401 b 436 688 674 632 529 688 b 214 561 325 688 247 625 l 211 561 l 204 672 l 96 672 b 101 490 100 617 101 560 z m 307 -307 b 486 -157 393 -301 486 -260 b 431 -56 486 -112 458 -74 l 340 -75 b 388 -158 365 -94 388 -126 b 283 -250 388 -214 338 -242 z "},"ŏ":{"ha":763,"x_min":0,"x_max":0,"o":"m 208 947 b 381 775 208 861 258 775 b 553 947 485 775 553 844 l 481 947 b 381 851 476 901 446 851 b 281 947 324 851 289 893 z m 386 688 b 53 331 200 688 53 556 b 375 -15 53 118 193 -15 b 710 342 538 -15 710 93 b 386 688 710 547 579 688 z m 383 596 b 585 338 528 596 585 451 b 381 76 585 186 497 76 b 176 335 261 76 176 188 b 383 596 176 463 239 596 z "},"ő":{"ha":763,"x_min":0,"x_max":0,"o":"m 331 963 l 221 772 l 297 772 l 450 963 z m 531 963 l 421 772 l 497 772 l 650 963 z m 386 688 b 53 331 200 688 53 556 b 375 -15 53 118 193 -15 b 710 342 538 -15 710 93 b 386 688 710 547 579 688 z m 383 596 b 585 338 528 596 585 451 b 381 76 585 186 497 76 b 176 335 261 76 176 188 b 383 596 176 463 239 596 z "},"ō":{"ha":763,"x_min":0,"x_max":0,"o":"m 225 893 l 225 814 l 538 814 l 538 893 z m 386 688 b 53 331 200 688 53 556 b 375 -15 53 118 193 -15 b 710 342 538 -15 710 93 b 386 688 710 547 579 688 z m 383 596 b 585 338 528 596 585 451 b 381 76 585 186 497 76 b 176 335 261 76 176 188 b 383 596 176 463 239 596 z "},"ǿ":{"ha":763,"x_min":0,"x_max":0,"o":"m 438 963 l 315 764 l 403 764 l 572 963 z m 383 688 b 53 332 200 688 53 556 b 157 72 53 222 92 133 l 99 -11 l 150 -53 l 210 32 b 382 -15 258 0 319 -15 b 710 342 539 -15 710 94 b 608 599 710 446 674 536 l 667 685 l 613 722 l 554 640 b 385 688 504 671 444 688 z m 224 165 l 221 167 b 171 335 186 215 171 276 b 381 596 171 457 231 596 b 499 556 429 596 468 581 z m 540 501 l 543 501 b 590 338 579 449 590 383 b 378 76 590 186 506 76 b 265 115 336 76 297 88 z "},"ŕ":{"ha":454,"x_min":0,"x_max":0,"o":"m 300 963 l 178 764 l 265 764 l 435 963 z m 101 0 l 222 0 l 222 358 b 228 415 222 379 225 399 b 392 572 244 507 306 572 b 433 568 408 572 421 571 l 433 683 b 399 688 422 686 413 688 b 213 540 317 688 243 631 l 207 540 l 203 672 l 96 672 b 101 463 100 610 101 542 z "},"ř":{"ha":454,"x_min":0,"x_max":0,"o":"m 297 764 l 428 963 l 336 963 l 254 831 l 251 831 l 169 963 l 75 963 l 208 764 z m 101 0 l 222 0 l 222 358 b 228 415 222 379 225 399 b 392 572 244 507 306 572 b 433 568 408 572 421 571 l 433 683 b 399 688 422 686 413 688 b 213 540 317 688 243 631 l 207 540 l 203 672 l 96 672 b 101 463 100 610 101 542 z "},"ŗ":{"ha":454,"x_min":0,"x_max":0,"o":"m 101 0 l 222 0 l 222 358 b 228 415 222 379 225 399 b 392 572 244 507 306 572 b 433 568 408 572 421 571 l 433 683 b 399 688 422 686 413 688 b 213 540 317 688 243 631 l 207 540 l 203 672 l 96 672 b 101 463 100 610 101 542 z m 83 -308 b 263 -158 169 -303 263 -261 b 207 -57 263 -114 235 -75 l 117 -76 b 164 -160 142 -96 164 -128 b 60 -251 164 -215 114 -243 z "},"ś":{"ha":550,"x_min":0,"x_max":0,"o":"m 339 963 l 217 764 l 304 764 l 474 963 z m 54 32 b 243 -15 101 4 169 -15 b 494 188 403 -15 494 69 b 318 390 494 288 435 346 b 190 504 231 424 190 449 b 303 596 190 554 231 596 b 440 557 365 596 414 574 l 471 646 b 306 688 433 668 374 688 b 74 490 161 688 74 599 b 251 300 74 410 131 343 b 376 176 342 267 376 235 b 246 76 376 121 335 76 b 85 125 185 76 121 101 z "},"ş":{"ha":550,"x_min":0,"x_max":0,"o":"m 54 32 b 232 -14 108 1 178 -14 l 238 -14 l 182 -112 b 290 -171 247 -118 289 -135 b 231 -215 290 -204 261 -215 b 156 -194 206 -215 178 -208 l 135 -254 b 229 -278 158 -268 196 -278 b 374 -165 307 -278 374 -247 b 276 -69 374 -112 328 -76 l 315 -8 b 494 188 431 14 494 89 b 318 390 494 288 435 346 b 190 504 231 424 190 449 b 303 596 190 554 231 596 b 440 557 365 596 414 574 l 471 646 b 306 688 433 668 374 688 b 74 490 161 688 74 599 b 251 300 74 410 131 343 b 376 176 342 267 376 235 b 246 76 376 121 335 76 b 85 125 185 76 121 101 z "},"ŝ":{"ha":550,"x_min":0,"x_max":0,"o":"m 235 963 l 104 764 l 194 764 l 275 896 l 278 896 l 358 764 l 453 764 l 319 963 z m 54 32 b 243 -15 101 4 169 -15 b 494 188 403 -15 494 69 b 318 390 494 288 435 346 b 190 504 231 424 190 449 b 303 596 190 554 231 596 b 440 557 365 596 414 574 l 471 646 b 306 688 433 668 374 688 b 74 490 161 688 74 599 b 251 300 74 410 131 343 b 376 176 342 267 376 235 b 246 76 376 121 335 76 b 85 125 185 76 121 101 z "},"ș":{"ha":550,"x_min":0,"x_max":0,"o":"m 54 32 b 243 -15 101 4 169 -15 b 494 188 403 -15 494 69 b 318 390 494 288 435 346 b 190 504 231 424 190 449 b 303 596 190 554 231 596 b 440 557 365 596 414 574 l 471 646 b 306 688 433 668 374 688 b 74 490 161 688 74 599 b 251 300 74 410 131 343 b 376 176 342 267 376 235 b 246 76 376 121 335 76 b 85 125 185 76 121 101 z m 189 -308 b 368 -158 275 -303 368 -261 b 313 -57 368 -114 340 -75 l 222 -76 b 269 -160 247 -96 269 -128 b 165 -251 269 -215 219 -243 z "},"ť":{"ha":471,"x_min":0,"x_max":0,"o":"m 129 796 l 129 672 l 25 672 l 25 579 l 129 579 l 129 213 b 176 38 129 133 142 74 b 308 -15 206 4 251 -15 b 417 3 356 -15 393 -7 l 411 94 b 340 86 393 89 374 86 b 249 217 272 86 249 133 l 249 579 l 424 579 l 424 672 l 249 672 l 249 833 z m 385 751 b 496 907 418 765 496 813 b 447 1003 496 951 471 988 l 360 985 b 401 903 382 965 401 935 b 349 800 401 853 372 818 z "},"ţ":{"ha":460,"x_min":0,"x_max":0,"o":"m 129 796 l 129 672 l 25 672 l 25 579 l 129 579 l 129 213 b 176 38 129 133 142 74 b 308 -15 206 4 251 -15 b 417 3 356 -15 393 -7 l 411 94 b 340 86 393 89 374 86 b 249 217 272 86 249 133 l 249 579 l 424 579 l 424 672 l 249 672 l 249 833 z m 169 -315 b 349 -165 256 -310 349 -268 b 293 -64 349 -121 321 -82 l 203 -83 b 250 -167 228 -103 250 -135 b 146 -258 250 -222 200 -250 z "},"ŭ":{"ha":765,"x_min":0,"x_max":0,"o":"m 210 947 b 382 775 210 861 260 775 b 554 947 486 775 554 844 l 482 947 b 382 851 478 901 447 851 b 282 947 325 851 290 893 z m 664 672 l 542 672 l 542 260 b 531 197 542 238 538 215 b 369 86 508 143 451 86 b 219 300 258 86 219 172 l 219 672 l 97 672 l 97 279 b 329 -15 97 43 224 -15 b 551 110 449 -15 519 56 l 554 110 l 561 0 l 669 0 b 664 183 665 53 664 114 z "},"ű":{"ha":765,"x_min":0,"x_max":0,"o":"m 342 963 l 232 772 l 308 772 l 461 963 z m 542 963 l 432 772 l 508 772 l 661 963 z m 664 672 l 542 672 l 542 260 b 531 197 542 238 538 215 b 369 86 508 143 451 86 b 219 300 258 86 219 172 l 219 672 l 97 672 l 97 279 b 329 -15 97 43 224 -15 b 551 110 449 -15 519 56 l 554 110 l 561 0 l 669 0 b 664 183 665 53 664 114 z "},"ū":{"ha":765,"x_min":0,"x_max":0,"o":"m 226 893 l 226 814 l 539 814 l 539 893 z m 664 672 l 542 672 l 542 260 b 531 197 542 238 538 215 b 369 86 508 143 451 86 b 219 300 258 86 219 172 l 219 672 l 97 672 l 97 279 b 329 -15 97 43 224 -15 b 551 110 449 -15 519 56 l 554 110 l 561 0 l 669 0 b 664 183 665 53 664 114 z "},"ų":{"ha":765,"x_min":0,"x_max":0,"o":"m 664 672 l 542 672 l 542 260 b 531 197 542 238 538 215 b 369 86 508 143 451 86 b 219 300 258 86 219 172 l 219 672 l 97 672 l 97 279 b 329 -15 97 43 224 -15 b 551 110 449 -15 519 56 l 554 110 l 561 4 b 494 -167 536 -33 494 -99 b 624 -286 494 -244 547 -286 b 736 -254 660 -286 707 -276 l 717 -192 b 654 -204 701 -199 681 -204 b 583 -132 614 -204 583 -178 b 642 4 583 -82 619 -25 l 669 0 b 664 183 665 51 664 114 z "},"ů":{"ha":765,"x_min":0,"x_max":0,"o":"m 383 746 b 522 874 463 746 522 800 b 385 1004 522 947 468 1004 b 243 872 297 1004 243 946 b 383 746 243 801 300 746 z m 382 797 b 314 872 342 797 314 836 b 382 951 314 915 339 951 b 454 875 426 951 454 917 b 382 797 454 833 426 797 z m 664 672 l 542 672 l 542 260 b 531 197 542 238 538 215 b 369 86 508 143 451 86 b 219 300 258 86 219 172 l 219 672 l 97 672 l 97 279 b 329 -15 97 43 224 -15 b 551 110 449 -15 519 56 l 554 110 l 561 0 l 669 0 b 664 183 665 53 664 114 z "},"ũ":{"ha":765,"x_min":0,"x_max":0,"o":"m 278 788 b 314 850 281 826 292 850 b 374 825 331 850 346 842 b 458 797 403 810 429 797 b 554 938 524 797 556 844 l 489 938 b 450 878 486 890 472 878 b 392 901 433 878 414 889 b 306 932 360 919 336 932 b 211 788 246 932 208 878 z m 664 672 l 542 672 l 542 260 b 531 197 542 238 538 215 b 369 86 508 143 451 86 b 219 300 258 86 219 172 l 219 672 l 97 672 l 97 279 b 329 -15 97 43 224 -15 b 551 110 449 -15 519 56 l 554 110 l 561 0 l 669 0 b 664 183 665 53 664 114 z "},"ẃ":{"ha":1022,"x_min":0,"x_max":0,"o":"m 571 963 l 449 764 l 536 764 l 706 963 z m 25 672 l 228 0 l 339 0 l 447 319 b 508 542 471 392 492 461 l 511 542 b 571 321 528 463 547 396 l 674 0 l 785 0 l 1001 672 l 881 672 l 785 335 b 733 117 763 256 744 185 l 729 117 b 669 336 714 185 694 256 l 565 672 l 463 672 l 353 331 b 293 117 331 257 308 185 l 289 117 b 239 331 276 186 258 256 l 150 672 z "},"ŵ":{"ha":1022,"x_min":0,"x_max":0,"o":"m 468 963 l 338 764 l 428 764 l 508 896 l 511 896 l 592 764 l 686 764 l 553 963 z m 25 672 l 228 0 l 339 0 l 447 319 b 508 542 471 392 492 461 l 511 542 b 571 321 528 463 547 396 l 674 0 l 785 0 l 1001 672 l 881 672 l 785 335 b 733 117 763 256 744 185 l 729 117 b 669 336 714 185 694 256 l 565 672 l 463 672 l 353 331 b 293 117 331 257 308 185 l 289 117 b 239 331 276 186 258 256 l 150 672 z "},"ẅ":{"ha":1022,"x_min":0,"x_max":0,"o":"m 383 792 b 451 863 424 792 451 825 b 383 933 451 903 422 933 b 313 863 344 933 313 901 b 382 792 313 825 342 792 z m 640 792 b 708 863 681 792 708 825 b 640 933 708 903 679 933 b 571 863 601 933 571 901 b 639 792 571 825 599 792 z m 25 672 l 228 0 l 339 0 l 447 319 b 508 542 471 392 492 461 l 511 542 b 571 321 528 463 547 396 l 674 0 l 785 0 l 1001 672 l 881 672 l 785 335 b 733 117 763 256 744 185 l 729 117 b 669 336 714 185 694 256 l 565 672 l 463 672 l 353 331 b 293 117 331 257 308 185 l 289 117 b 239 331 276 186 258 256 l 150 672 z "},"ẁ":{"ha":1022,"x_min":0,"x_max":0,"o":"m 329 963 l 499 764 l 585 764 l 464 963 z m 25 672 l 228 0 l 339 0 l 447 319 b 508 542 471 392 492 461 l 511 542 b 571 321 528 463 547 396 l 674 0 l 785 0 l 1001 672 l 881 672 l 785 335 b 733 117 763 256 744 185 l 729 117 b 669 336 714 185 694 256 l 565 672 l 463 672 l 353 331 b 293 117 331 257 308 185 l 289 117 b 239 331 276 186 258 256 l 150 672 z "},"ŷ":{"ha":654,"x_min":0,"x_max":0,"o":"m 288 963 l 157 764 l 247 764 l 328 896 l 331 896 l 411 764 l 506 764 l 372 963 z m 13 672 l 261 53 b 269 21 267 38 269 28 b 260 -8 269 14 265 4 b 157 -144 232 -71 190 -118 b 50 -204 121 -175 81 -194 l 81 -307 b 231 -228 111 -301 171 -281 b 461 193 314 -156 374 -37 l 644 672 l 515 672 l 382 278 b 339 138 365 229 351 178 l 336 138 b 293 275 325 178 308 231 l 146 672 z "},"ỳ":{"ha":654,"x_min":0,"x_max":0,"o":"m 150 963 l 319 764 l 406 764 l 285 963 z m 13 672 l 261 53 b 269 21 267 38 269 28 b 260 -8 269 14 265 4 b 157 -144 232 -71 190 -118 b 50 -204 121 -175 81 -194 l 81 -307 b 231 -228 111 -301 171 -281 b 461 193 314 -156 374 -37 l 644 672 l 515 672 l 382 278 b 339 138 365 229 351 178 l 336 138 b 293 275 325 178 308 231 l 146 672 z "},"ȳ":{"ha":654,"x_min":0,"x_max":0,"o":"m 172 893 l 172 814 l 485 814 l 485 893 z m 13 672 l 261 53 b 269 21 267 38 269 28 b 260 -8 269 14 265 4 b 157 -144 232 -71 190 -118 b 50 -204 121 -175 81 -194 l 81 -307 b 231 -228 111 -301 171 -281 b 461 193 314 -156 374 -37 l 644 672 l 515 672 l 382 278 b 339 138 365 229 351 178 l 336 138 b 293 275 325 178 308 231 l 146 672 z "},"ź":{"ha":594,"x_min":0,"x_max":0,"o":"m 361 963 l 239 764 l 326 764 l 496 963 z m 25 0 l 571 0 l 571 97 l 178 97 l 178 100 b 264 206 208 135 236 168 l 564 596 l 565 672 l 53 672 l 53 574 l 417 574 l 417 571 b 329 467 386 535 358 503 l 25 71 z "},"ż":{"ha":594,"x_min":0,"x_max":0,"o":"m 301 792 b 369 863 342 792 369 825 b 301 935 369 903 340 935 b 231 863 261 935 231 903 b 300 792 231 825 260 792 z m 25 0 l 571 0 l 571 97 l 178 97 l 178 100 b 264 206 208 135 236 168 l 564 596 l 565 672 l 53 672 l 53 574 l 417 574 l 417 571 b 329 467 386 535 358 503 l 25 71 z "},"ǽ":{"ha":1074,"x_min":0,"x_max":0,"o":"m 596 963 l 474 764 l 561 764 l 731 963 z m 1019 324 b 1024 378 1022 336 1024 357 b 761 688 1024 489 967 688 b 526 546 656 688 572 633 l 524 546 b 307 688 496 631 428 688 b 97 626 240 688 157 664 l 126 546 b 299 597 167 574 235 597 b 456 447 435 597 456 481 l 456 419 b 50 176 194 422 50 332 b 260 -15 50 79 119 -15 b 510 133 375 -15 467 40 l 513 133 b 768 -15 551 39 654 -15 b 989 32 857 -15 935 3 l 967 118 b 783 79 929 100 876 79 b 569 324 657 79 565 164 z m 457 239 b 450 190 457 222 456 206 b 288 75 431 129 375 75 b 171 186 224 75 171 115 b 457 338 171 318 328 340 z m 568 411 b 749 600 572 488 628 600 b 906 411 872 600 910 479 z "},"":{"ha":417,"x_min":0,"x_max":0,"o":"m 129 -308 b 308 -158 215 -303 308 -261 b 253 -57 308 -114 281 -75 l 163 -76 b 210 -160 188 -96 210 -128 b 106 -251 210 -215 160 -243 z "},"":{"ha":417,"x_min":0,"x_max":0,"o":"m 275 1149 l 146 986 l 246 986 l 422 1149 z "},"":{"ha":417,"x_min":0,"x_max":0,"o":"m 36 1156 b 207 1008 39 1072 89 1008 b 381 1156 326 1008 378 1074 l 310 1156 b 208 1088 303 1119 276 1088 b 108 1156 140 1088 115 1124 z "},"":{"ha":417,"x_min":0,"x_max":0,"o":"m 256 986 l 399 1144 l 299 1144 l 211 1049 l 208 1049 l 119 1144 l 17 1144 l 163 986 z "},"":{"ha":417,"x_min":0,"x_max":0,"o":"m 189 3 l 125 -117 b 233 -176 190 -124 233 -139 b 175 -218 233 -206 207 -218 b 97 -200 144 -218 118 -211 l 78 -262 b 176 -286 101 -276 140 -286 b 319 -174 249 -286 319 -254 b 221 -69 319 -117 274 -79 l 265 3 z "},"":{"ha":417,"x_min":0,"x_max":0,"o":"m 161 1144 l 18 986 l 117 986 l 206 1082 l 208 1082 l 297 986 l 399 986 l 254 1144 z "},"":{"ha":417,"x_min":0,"x_max":0,"o":"m 129 -308 b 308 -158 215 -303 308 -261 b 253 -57 308 -112 281 -75 l 163 -76 b 210 -160 188 -96 210 -128 b 106 -251 210 -215 160 -242 z "},"":{"ha":417,"x_min":0,"x_max":0,"o":"m 81 1001 b 147 1072 121 1001 147 1033 b 81 1142 147 1111 119 1142 b 13 1072 42 1142 13 1110 b 79 1001 13 1033 39 1001 z m 338 1001 b 406 1072 379 1001 406 1033 b 339 1142 406 1111 378 1142 b 269 1072 299 1142 269 1110 b 336 1001 269 1033 297 1001 z "},"":{"ha":417,"x_min":0,"x_max":0,"o":"m 210 1001 b 278 1072 249 1001 278 1036 b 211 1142 278 1108 249 1142 b 140 1072 171 1142 140 1108 b 208 1001 140 1036 171 1001 z "},"":{"ha":417,"x_min":0,"x_max":0,"o":"m -3 1149 l 174 988 l 274 988 l 144 1149 z "},"":{"ha":417,"x_min":0,"x_max":0,"o":"m 163 1149 l 51 993 l 140 993 l 294 1149 z m 367 1149 l 256 993 l 344 993 l 500 1149 z "},"":{"ha":417,"x_min":0,"x_max":0,"o":"m 43 1094 l 43 1018 l 375 1018 l 375 1094 z "},"":{"ha":417,"x_min":0,"x_max":0,"o":"m 171 6 b 88 -165 138 -31 88 -97 b 218 -285 88 -243 140 -285 b 329 -253 253 -285 301 -275 l 310 -190 b 246 -203 293 -197 271 -203 b 176 -133 206 -203 176 -176 b 250 6 176 -81 229 -21 z "},"":{"ha":556,"x_min":0,"x_max":0,"o":"m 281 1218 b 140 1092 194 1218 140 1161 b 281 969 140 1024 196 969 b 418 1092 361 969 418 1022 b 282 1218 418 1163 365 1218 z m 278 1167 b 346 1093 319 1167 346 1133 b 278 1021 346 1053 319 1021 b 213 1092 239 1021 213 1056 b 276 1167 213 1132 236 1167 z "},"":{"ha":417,"x_min":0,"x_max":0,"o":"m 101 993 b 138 1054 104 1031 115 1054 b 203 1028 157 1054 176 1042 b 288 1001 233 1013 258 1001 b 381 1136 351 1001 382 1049 l 317 1136 b 279 1082 313 1092 300 1082 b 213 1107 257 1082 235 1094 b 131 1135 183 1122 161 1135 b 36 993 69 1135 33 1078 z "},"Α":{"ha":850,"x_min":0,"x_max":0,"o":"m 589 294 l 689 0 l 818 0 l 499 936 l 353 936 l 35 0 l 160 0 l 257 294 z m 282 389 l 374 660 b 421 829 392 717 407 774 l 424 829 b 472 658 438 775 451 719 l 564 389 z "},"Β":{"ha":753,"x_min":0,"x_max":0,"o":"m 106 3 b 293 -8 146 -3 210 -8 b 617 79 446 -8 551 19 b 696 267 664 125 696 186 b 503 501 696 406 592 479 l 503 504 b 661 710 601 540 661 619 b 583 875 661 783 632 839 b 326 943 525 922 447 943 b 106 924 242 943 158 935 z m 226 842 b 333 850 246 846 278 850 b 539 697 456 850 539 807 b 336 540 539 607 464 540 l 226 540 z m 226 449 l 326 449 b 568 268 458 449 568 396 b 328 86 568 132 453 86 b 226 92 285 86 250 88 z "},"Γ":{"ha":626,"x_min":0,"x_max":0,"o":"m 106 936 l 106 0 l 226 0 l 226 835 l 607 835 l 607 936 z "},"Δ":{"ha":861,"x_min":0,"x_max":0,"o":"m 35 0 l 821 0 l 821 69 l 499 936 l 361 936 l 35 68 z m 164 101 l 360 635 b 422 825 383 700 408 778 l 426 825 b 496 617 443 765 472 682 l 686 101 z "},"Ε":{"ha":683,"x_min":0,"x_max":0,"o":"m 590 539 l 226 539 l 226 835 l 611 835 l 611 936 l 106 936 l 106 0 l 632 0 l 632 101 l 226 101 l 226 439 l 590 439 z "},"Ζ":{"ha":768,"x_min":0,"x_max":0,"o":"m 42 0 l 725 0 l 725 101 l 201 101 l 201 106 l 718 863 l 718 936 l 86 936 l 86 835 l 561 835 l 561 831 l 42 71 z "},"Η":{"ha":906,"x_min":0,"x_max":0,"o":"m 106 936 l 106 0 l 226 0 l 226 439 l 679 439 l 679 0 l 801 0 l 801 936 l 679 936 l 679 544 l 226 544 l 226 936 z "},"Θ":{"ha":957,"x_min":0,"x_max":0,"o":"m 474 -15 b 907 478 711 -15 907 156 b 485 951 907 756 740 951 b 50 460 235 951 50 757 b 472 -15 50 176 224 -15 z m 478 83 b 178 463 286 83 178 265 b 481 853 178 665 278 853 b 779 472 682 853 779 658 b 479 83 779 260 671 83 z m 290 532 l 290 432 l 667 432 l 667 532 z "},"Ι":{"ha":332,"x_min":0,"x_max":0,"o":"m 106 936 l 106 0 l 226 0 l 226 936 z "},"Κ":{"ha":753,"x_min":0,"x_max":0,"o":"m 106 0 l 226 0 l 226 357 l 315 460 l 624 0 l 767 0 l 401 539 l 740 936 l 590 936 l 304 585 b 231 485 281 554 256 521 l 226 485 l 226 936 l 106 936 z "},"Λ":{"ha":846,"x_min":0,"x_max":0,"o":"m 819 0 l 497 936 l 353 936 l 35 0 l 161 0 l 374 646 b 419 822 392 707 406 764 l 424 822 b 472 644 438 765 451 710 l 689 0 z "},"Μ":{"ha":1117,"x_min":0,"x_max":0,"o":"m 918 0 l 1036 0 l 978 936 l 824 936 l 657 483 b 558 168 615 365 582 263 l 554 168 b 460 483 531 265 499 368 l 300 936 l 146 936 l 81 0 l 196 0 l 221 401 b 239 815 229 542 236 699 l 242 815 b 350 451 268 704 306 583 l 501 6 l 593 6 l 758 460 b 876 815 806 588 844 706 l 881 815 b 894 411 879 699 888 542 z "},"Ν":{"ha":914,"x_min":0,"x_max":0,"o":"m 219 0 l 219 400 b 210 786 219 556 217 668 l 214 788 b 389 475 261 686 324 579 l 686 0 l 808 0 l 808 936 l 694 936 l 694 544 b 708 160 694 399 697 285 l 706 158 b 538 463 661 254 607 353 l 238 936 l 106 936 l 106 0 z "},"Ξ":{"ha":750,"x_min":0,"x_max":0,"o":"m 75 936 l 75 836 l 688 836 l 688 936 z m 121 535 l 121 435 l 640 435 l 640 535 z m 60 101 l 60 0 l 701 0 l 701 101 z "},"Ο":{"ha":957,"x_min":0,"x_max":0,"o":"m 472 -15 b 906 478 710 -15 906 156 b 485 951 906 756 740 951 b 50 460 235 951 50 757 b 471 -15 50 176 224 -15 z m 476 83 b 179 463 286 83 178 265 b 479 853 178 665 278 853 b 778 472 681 853 778 658 b 478 83 778 260 669 83 z "},"Π":{"ha":881,"x_min":0,"x_max":0,"o":"m 775 936 l 106 936 l 106 0 l 226 0 l 226 833 l 653 833 l 653 0 l 775 0 z "},"Ρ":{"ha":739,"x_min":0,"x_max":0,"o":"m 106 0 l 226 0 l 226 375 b 324 367 254 368 288 367 b 610 469 442 367 546 401 b 682 669 657 518 682 585 b 600 865 682 753 651 821 b 338 943 544 915 457 943 b 106 925 240 943 164 935 z m 226 838 b 340 847 247 843 288 847 b 561 664 474 847 561 788 b 326 464 561 535 472 464 b 226 474 286 464 253 467 z "},"Σ":{"ha":767,"x_min":0,"x_max":0,"o":"m 194 106 l 496 469 l 210 831 l 210 836 l 683 836 l 683 936 l 54 936 l 54 854 l 361 465 l 36 72 l 36 0 l 728 0 l 728 101 l 194 101 z "},"Τ":{"ha":690,"x_min":0,"x_max":0,"o":"m 283 0 l 406 0 l 406 833 l 692 833 l 692 936 l -1 936 l -1 833 l 283 833 z "},"Υ":{"ha":817,"x_min":0,"x_max":0,"o":"m 14 846 b 324 431 138 818 268 682 b 343 242 336 374 343 311 l 343 0 l 464 0 l 464 240 b 490 432 464 313 476 376 b 811 846 554 674 708 807 l 790 944 b 576 815 728 935 642 885 b 414 475 510 742 438 625 l 408 475 b 264 818 392 622 335 739 b 36 944 200 893 101 940 z "},"Φ":{"ha":997,"x_min":0,"x_max":0,"o":"m 556 36 b 947 469 753 53 947 192 b 558 903 947 746 753 888 l 558 972 l 442 972 l 442 903 b 50 463 264 889 50 750 b 439 36 50 183 249 53 l 439 -36 l 556 -36 z m 440 124 b 175 465 304 140 175 260 b 440 815 175 690 319 807 z m 557 815 b 822 467 689 803 822 689 b 557 124 822 253 690 136 z "},"Χ":{"ha":793,"x_min":0,"x_max":0,"o":"m 758 0 l 467 481 l 751 936 l 613 936 l 485 717 b 400 558 450 657 426 614 l 396 558 b 310 717 371 608 344 656 l 186 936 l 46 936 l 321 474 l 35 0 l 174 0 l 286 206 b 388 392 335 288 361 338 l 390 392 b 499 207 419 338 450 286 l 618 0 z "},"Ψ":{"ha":951,"x_min":0,"x_max":0,"o":"m 888 936 l 768 936 l 768 678 b 533 381 768 464 657 388 l 533 936 l 419 936 l 419 382 b 183 651 281 389 183 461 l 183 936 l 65 936 l 65 631 b 418 286 65 386 238 293 l 418 0 l 533 0 l 533 286 b 888 665 740 297 888 422 z "},"Ω":{"ha":979,"x_min":0,"x_max":0,"o":"m 733 101 b 918 508 826 179 918 317 b 496 951 918 756 756 951 b 60 497 247 951 60 764 b 243 101 60 317 150 178 l 243 96 l 42 96 l 42 0 l 394 0 l 394 76 b 186 488 283 146 186 313 b 493 853 186 671 296 853 b 793 489 692 853 793 660 b 586 76 793 301 697 153 l 586 0 l 938 0 l 938 96 l 733 96 z "},"Ά":{"ha":854,"x_min":0,"x_max":0,"o":"m 593 294 l 693 0 l 822 0 l 503 936 l 357 936 l 39 0 l 164 0 l 261 294 z m 286 389 l 378 660 b 425 829 396 717 411 774 l 428 829 b 476 658 442 775 456 719 l 568 389 z m 97 936 l 86 721 l 158 721 l 207 936 z "},"Έ":{"ha":779,"x_min":0,"x_max":0,"o":"m 686 539 l 324 539 l 324 835 l 708 835 l 708 936 l 201 936 l 201 0 l 729 0 l 729 101 l 324 101 l 324 439 l 686 439 z m 10 936 l 0 721 l 72 721 l 121 936 z "},"Ή":{"ha":1003,"x_min":0,"x_max":0,"o":"m 201 936 l 201 0 l 324 0 l 324 439 l 775 439 l 775 0 l 897 0 l 897 936 l 775 936 l 775 544 l 324 544 l 324 936 z m 10 936 l 0 721 l 72 721 l 121 936 z "},"Ί":{"ha":429,"x_min":0,"x_max":0,"o":"m 201 936 l 201 0 l 324 0 l 324 936 z m 10 936 l 0 721 l 72 721 l 121 936 z "},"Ϊ":{"ha":332,"x_min":0,"x_max":0,"o":"m 39 988 b 106 1057 78 988 106 1021 b 39 1128 106 1097 76 1128 b -31 1057 0 1128 -31 1096 b 38 988 -31 1021 -3 988 z m 293 988 b 361 1057 333 988 361 1021 b 294 1128 361 1097 332 1128 b 225 1057 254 1128 225 1096 b 292 988 225 1021 253 988 z m 106 936 l 106 0 l 226 0 l 226 936 z "},"Ό":{"ha":1011,"x_min":0,"x_max":0,"o":"m 528 -15 b 961 478 765 -15 961 156 b 539 951 961 756 794 951 b 106 460 289 951 106 757 b 526 -15 106 176 278 -15 z m 532 83 b 233 463 342 83 233 265 b 535 853 233 665 333 853 b 833 472 736 853 833 658 b 533 83 833 260 725 83 z m 10 936 l 0 721 l 72 721 l 121 936 z "},"Ύ":{"ha":982,"x_min":0,"x_max":0,"o":"m 178 846 b 488 431 300 818 431 682 b 507 242 499 374 507 311 l 507 0 l 628 0 l 628 240 b 653 432 628 313 639 376 b 975 846 717 674 871 807 l 953 944 b 740 815 892 935 806 885 b 578 475 674 742 601 625 l 572 475 b 428 818 554 622 499 739 b 200 944 364 893 265 940 z m 10 936 l 0 721 l 72 721 l 121 936 z "},"Ϋ":{"ha":817,"x_min":0,"x_max":0,"o":"m 286 968 b 353 1038 326 968 353 1000 b 288 1107 353 1076 325 1107 b 218 1038 249 1107 218 1076 b 285 968 218 1000 246 968 z m 542 968 b 608 1038 582 968 608 1000 b 542 1107 608 1076 581 1107 b 474 1038 503 1107 474 1076 b 540 968 474 1000 501 968 z m 14 846 b 324 431 138 818 268 682 b 343 242 336 374 343 311 l 343 0 l 464 0 l 464 240 b 490 432 464 313 476 376 b 811 846 554 674 708 807 l 790 944 b 576 815 728 935 642 885 b 414 475 510 742 438 625 l 408 475 b 264 818 392 622 335 739 b 36 944 200 893 101 940 z "},"Ώ":{"ha":1031,"x_min":0,"x_max":0,"o":"m 785 101 b 969 507 879 176 969 314 b 547 951 969 754 806 951 b 111 496 299 951 111 763 b 294 101 111 315 200 178 l 294 96 l 92 96 l 92 0 l 444 0 l 444 76 b 238 486 333 144 238 306 b 544 853 238 669 347 853 b 844 488 743 853 843 658 b 636 76 844 296 749 151 l 636 0 l 988 0 l 988 96 l 785 96 z m 10 936 l 0 721 l 72 721 l 121 936 z "},"α":{"ha":765,"x_min":0,"x_max":0,"o":"m 578 672 b 565 553 572 639 568 606 l 560 553 b 353 688 524 638 450 688 b 53 322 197 688 53 542 b 328 -15 53 118 168 -15 b 557 126 435 -15 513 46 l 561 126 b 676 -15 568 24 617 -15 b 718 -10 690 -15 710 -14 l 728 78 b 661 192 681 79 661 113 b 679 672 661 371 672 601 z m 176 326 b 368 592 176 479 254 592 b 540 419 457 592 524 510 b 546 347 546 396 546 374 b 538 253 546 310 544 283 b 358 82 517 164 443 82 b 176 325 242 82 176 199 z "},"β":{"ha":778,"x_min":0,"x_max":0,"o":"m 221 69 b 435 -15 272 15 342 -15 b 725 272 583 -15 725 86 b 519 538 725 426 625 515 l 519 543 b 643 760 583 575 643 654 b 400 1001 643 904 538 1001 b 203 928 311 1001 250 972 b 99 601 150 878 99 793 l 99 -39 b 119 -275 99 -136 103 -231 l 233 -275 b 218 -24 219 -218 218 -103 l 218 69 z m 217 615 b 389 904 217 807 276 904 b 531 742 471 904 531 840 b 372 564 531 653 478 571 b 349 561 364 563 357 561 l 349 478 b 386 478 361 478 374 479 b 603 272 508 474 603 406 b 413 79 603 161 524 79 b 217 190 317 79 249 139 z "},"γ":{"ha":644,"x_min":0,"x_max":0,"o":"m 374 -275 b 369 3 374 -181 374 -76 b 378 36 369 15 369 25 b 615 626 507 232 615 454 b 611 672 615 643 614 660 l 496 672 b 497 625 496 660 497 646 b 339 149 497 460 400 261 l 333 149 b 129 672 292 356 190 581 l -8 672 b 229 119 60 568 179 342 b 254 -275 261 -14 258 -147 z "},"δ":{"ha":758,"x_min":0,"x_max":0,"o":"m 647 935 b 425 1001 607 967 522 1001 b 192 844 268 1001 192 919 b 276 706 192 781 244 732 l 308 681 l 308 674 b 53 322 171 608 53 494 b 379 -15 53 107 206 -15 b 706 328 560 -15 706 119 b 528 643 706 461 639 558 l 414 735 b 314 847 351 785 314 811 b 428 910 314 881 351 910 b 611 854 504 910 582 875 z m 453 558 b 583 319 539 492 583 414 b 386 76 583 167 493 76 b 176 324 281 76 176 167 b 379 617 176 471 274 561 z "},"ε":{"ha":611,"x_min":0,"x_max":0,"o":"m 221 358 b 54 189 122 342 54 272 b 338 -15 54 38 203 -15 b 583 46 432 -15 532 11 l 561 129 b 364 78 521 106 438 78 b 182 200 265 78 182 121 b 393 314 182 281 272 314 l 478 314 l 478 401 l 397 401 b 210 497 292 401 210 431 b 365 597 210 558 272 597 b 533 556 433 597 506 574 l 560 636 b 356 688 511 669 443 688 b 88 506 176 688 88 594 b 221 364 88 439 132 383 z "},"ζ":{"ha":568,"x_min":0,"x_max":0,"o":"m 474 -199 b 557 44 511 -150 557 -36 b 544 61 557 53 551 60 b 350 101 479 68 414 78 b 178 346 249 138 178 197 b 565 897 178 549 343 785 l 547 983 l 315 983 b 146 989 253 983 190 983 l 133 907 b 294 893 175 894 232 893 l 393 893 l 393 888 b 54 324 179 742 54 515 b 275 15 54 146 153 56 b 439 -22 331 -3 390 -15 b 393 -175 436 -58 413 -143 z "},"η":{"ha":771,"x_min":0,"x_max":0,"o":"m 211 561 b 192 672 211 604 204 646 l 82 672 b 101 490 97 626 101 558 l 101 0 l 224 0 l 224 404 b 232 461 224 425 226 446 b 396 586 253 529 315 586 b 551 388 511 586 551 496 l 551 -29 b 572 -275 551 -118 556 -233 l 688 -275 b 674 -25 674 -219 674 -103 l 674 401 b 436 688 674 632 529 688 b 214 561 325 688 247 625 z "},"θ":{"ha":742,"x_min":0,"x_max":0,"o":"m 374 -15 b 690 501 589 -15 690 189 b 378 1001 690 800 592 1001 b 53 501 168 1001 53 785 b 372 -15 53 158 175 -15 z m 174 554 b 371 911 174 743 247 911 b 569 554 506 911 568 751 z m 569 463 b 376 75 569 236 507 75 b 174 463 257 75 174 215 z "},"ι":{"ha":328,"x_min":0,"x_max":0,"o":"m 224 672 l 101 672 l 101 150 b 226 -15 101 17 156 -15 b 282 -8 247 -15 268 -12 l 289 81 b 224 163 236 78 224 103 z "},"κ":{"ha":685,"x_min":0,"x_max":0,"o":"m 347 364 b 667 667 465 475 572 579 l 667 672 l 524 672 b 229 374 444 592 350 488 l 224 374 l 224 558 b 204 672 224 614 215 657 l 86 672 b 101 526 97 647 101 581 l 101 0 l 224 0 l 224 299 l 235 299 b 429 143 299 297 361 232 l 535 0 l 676 0 l 554 169 b 347 360 486 258 414 344 z "},"λ":{"ha":656,"x_min":0,"x_max":0,"o":"m 506 0 l 635 0 l 378 683 b 111 1000 306 874 243 1000 b 65 994 96 1000 76 997 l 53 900 b 76 901 61 901 69 901 b 253 690 158 901 210 808 b 261 654 260 674 261 663 b 253 622 261 647 258 638 l 10 0 l 138 0 l 275 389 b 318 531 290 435 308 486 l 325 531 b 369 385 339 476 354 431 z "},"μ":{"ha":768,"x_min":0,"x_max":0,"o":"m 560 104 b 679 -15 571 18 619 -15 b 721 -10 699 -15 707 -14 l 731 79 b 667 185 682 82 667 111 l 667 672 l 546 672 l 546 260 b 535 197 546 238 542 215 b 374 85 513 143 454 85 b 222 275 267 85 222 171 l 222 672 l 101 672 l 101 -28 b 121 -275 101 -135 107 -233 l 231 -275 b 215 -22 217 -219 215 -96 l 215 61 b 363 -12 244 10 301 -12 b 556 104 463 -12 528 51 z "},"ν":{"ha":651,"x_min":0,"x_max":0,"o":"m 6 672 l 251 0 l 367 0 b 618 622 489 204 618 432 b 614 672 618 640 615 658 l 499 672 b 500 610 500 653 500 632 b 326 119 500 454 382 228 l 322 119 b 264 294 303 178 286 235 l 135 672 z "},"ξ":{"ha":601,"x_min":0,"x_max":0,"o":"m 501 604 b 435 604 478 604 454 604 b 239 760 325 608 239 663 b 414 911 239 838 297 911 b 551 879 472 911 524 894 l 576 964 b 407 1001 539 986 481 1001 b 117 768 213 1001 117 883 b 271 572 117 676 168 604 l 271 565 b 53 294 150 532 53 429 b 474 -22 53 60 289 4 b 429 -175 472 -57 447 -143 l 510 -199 b 592 44 549 -150 592 -28 b 579 60 592 53 588 60 b 394 94 524 68 460 76 b 181 306 257 131 181 193 b 464 515 181 421 271 515 l 501 515 z "},"ο":{"ha":763,"x_min":0,"x_max":0,"o":"m 376 -15 b 710 342 538 -15 710 93 b 386 688 710 547 579 688 b 53 331 200 688 53 556 b 375 -15 53 118 193 -15 z m 379 76 b 176 335 261 76 176 188 b 383 596 176 463 239 596 b 585 338 528 596 585 451 b 381 76 585 186 497 76 z "},"ρ":{"ha":782,"x_min":0,"x_max":0,"o":"m 219 83 b 422 -15 258 21 335 -15 b 729 346 581 -15 729 108 b 422 688 729 547 610 688 b 192 588 321 688 243 643 b 94 281 139 532 94 454 l 94 -31 b 110 -275 94 -135 97 -233 l 226 -275 b 215 -25 217 -219 215 -103 l 215 83 z m 215 321 b 413 586 215 507 317 586 b 607 343 538 586 607 475 b 403 81 607 193 532 81 b 221 215 317 81 243 139 b 215 264 217 231 215 247 z "},"σ":{"ha":769,"x_min":0,"x_max":0,"o":"m 572 600 b 749 594 671 596 717 594 l 753 688 b 601 688 728 686 647 688 l 528 688 b 399 688 508 688 436 688 b 53 329 196 688 53 554 b 375 -15 53 117 193 -15 b 697 340 528 -15 697 93 b 572 594 697 442 651 540 z m 378 76 b 176 335 261 76 176 188 b 379 596 176 463 239 596 b 576 340 518 596 576 454 b 379 76 576 188 489 76 z "},"τ":{"ha":574,"x_min":0,"x_max":0,"o":"m 446 83 b 417 82 438 82 428 82 b 339 196 375 82 339 104 l 339 576 l 547 576 l 563 672 l 175 672 b -8 636 65 672 15 653 l 8 565 b 144 576 38 571 74 576 l 218 576 l 218 193 b 374 -15 218 51 265 -15 b 440 -4 399 -15 426 -11 z "},"υ":{"ha":728,"x_min":0,"x_max":0,"o":"m 500 672 b 544 399 515 638 544 524 b 367 86 544 206 483 86 b 214 272 293 86 214 138 l 214 546 b 194 672 214 619 207 657 l 78 672 b 93 446 90 635 93 563 l 93 256 b 357 -15 93 72 210 -15 b 664 410 600 -15 664 213 b 614 672 664 521 638 628 z "},"φ":{"ha":892,"x_min":0,"x_max":0,"o":"m 283 692 b 53 340 192 653 53 535 b 392 -14 53 103 225 -1 l 392 -275 l 504 -275 l 504 -14 b 838 353 674 3 838 122 b 564 685 838 558 696 683 b 392 483 472 686 392 626 l 392 75 b 174 343 246 99 174 208 b 331 624 174 488 260 579 z m 504 501 b 563 596 504 565 528 596 b 721 351 640 596 721 488 b 504 75 721 194 636 93 z "},"χ":{"ha":635,"x_min":0,"x_max":0,"o":"m 25 672 l 256 217 l 15 -264 l 119 -296 l 246 -28 b 310 115 271 26 292 75 l 315 115 l 515 -296 l 629 -265 l 385 218 l 622 672 l 503 672 l 403 458 b 332 310 374 400 351 353 l 326 310 l 156 672 z "},"ψ":{"ha":910,"x_min":0,"x_max":0,"o":"m 410 -275 l 522 -275 l 522 -15 b 846 407 761 -3 846 207 b 792 672 846 532 819 628 l 679 672 b 729 397 697 643 729 536 b 522 74 729 204 643 79 l 522 849 l 411 849 l 411 74 b 211 344 306 81 211 147 l 211 546 b 194 672 211 615 206 657 l 82 672 b 93 515 92 638 93 578 l 93 333 b 410 -15 93 74 239 -4 z "},"ω":{"ha":964,"x_min":0,"x_max":0,"o":"m 539 504 l 424 504 l 426 239 b 315 86 426 154 378 86 b 172 346 251 86 172 158 b 283 678 172 489 221 610 l 283 681 l 171 681 b 53 343 111 622 53 494 b 299 -15 53 88 182 -15 b 476 104 381 -15 444 31 l 482 104 b 657 -15 510 31 575 -15 b 911 354 785 -15 911 104 b 796 681 911 508 856 631 l 681 681 l 681 678 b 792 357 744 615 792 489 b 651 86 792 176 721 86 b 536 240 585 86 536 153 z "},"ς":{"ha":579,"x_min":0,"x_max":0,"o":"m 567 657 b 415 688 532 676 475 688 b 53 325 182 688 53 506 b 306 6 53 144 165 46 b 443 -24 347 -6 397 -15 b 397 -175 440 -57 417 -143 l 479 -200 b 560 40 515 -154 560 -36 b 546 61 560 54 556 58 b 367 97 482 71 433 79 b 176 336 246 133 176 204 b 415 593 176 474 271 593 b 539 568 468 593 506 582 z "},"ά":{"ha":765,"x_min":0,"x_max":0,"o":"m 397 953 l 322 754 l 404 754 l 519 953 z m 578 672 b 565 553 572 639 568 606 l 560 553 b 353 688 524 638 450 688 b 53 322 197 688 53 542 b 328 -15 53 118 168 -15 b 557 126 435 -15 513 46 l 561 126 b 676 -15 568 24 617 -15 b 718 -10 690 -15 710 -14 l 728 78 b 661 192 681 79 661 113 b 679 672 661 371 672 601 z m 176 326 b 368 592 176 479 254 592 b 540 419 457 592 524 510 b 546 347 546 396 546 374 b 538 253 546 310 544 283 b 358 82 517 164 443 82 b 176 325 242 82 176 199 z "},"έ":{"ha":611,"x_min":0,"x_max":0,"o":"m 356 953 l 282 754 l 363 754 l 479 953 z m 221 357 b 54 189 122 342 54 272 b 338 -15 54 38 203 -15 b 583 46 432 -15 532 11 l 561 129 b 364 78 521 106 438 78 b 182 200 265 78 182 121 b 393 314 182 281 272 314 l 478 314 l 478 401 l 397 401 b 210 497 292 401 210 431 b 365 597 210 558 272 597 b 533 556 433 597 506 574 l 560 636 b 356 688 511 669 443 688 b 88 506 176 688 88 594 b 221 364 88 439 132 383 z "},"ή":{"ha":771,"x_min":0,"x_max":0,"o":"m 418 953 l 344 754 l 425 754 l 542 953 z m 211 561 b 192 672 211 604 204 646 l 82 672 b 101 490 97 626 101 558 l 101 0 l 224 0 l 224 404 b 232 461 224 425 226 446 b 396 586 253 529 315 586 b 551 388 511 586 551 496 l 551 -29 b 572 -275 551 -118 556 -233 l 688 -275 b 674 -25 674 -219 674 -103 l 674 401 b 436 688 674 632 529 688 b 214 561 325 688 247 625 z "},"ί":{"ha":328,"x_min":0,"x_max":0,"o":"m 185 954 l 111 756 l 193 756 l 308 954 z m 224 672 l 101 672 l 101 150 b 226 -15 101 17 156 -15 b 282 -8 247 -15 268 -12 l 289 81 b 224 163 236 78 224 103 z "},"ϊ":{"ha":328,"x_min":0,"x_max":0,"o":"m 39 774 b 107 843 79 774 107 806 b 40 914 107 883 78 914 b -29 843 0 914 -29 882 b 38 774 -29 806 -1 774 z m 294 774 b 363 843 335 774 363 806 b 294 914 363 883 333 914 b 226 843 256 914 226 882 b 293 774 226 806 253 774 z m 224 672 l 101 672 l 101 151 b 226 -15 101 17 156 -15 b 282 -8 247 -15 268 -12 l 289 81 b 224 163 236 78 224 103 z "},"ό":{"ha":763,"x_min":0,"x_max":0,"o":"m 401 953 l 328 754 l 408 754 l 525 953 z m 376 -15 b 710 342 538 -15 710 93 b 386 688 710 547 579 688 b 53 331 200 688 53 556 b 375 -15 53 118 193 -15 z m 379 76 b 176 335 261 76 176 188 b 383 596 176 463 239 596 b 585 338 528 596 585 451 b 381 76 585 186 497 76 z "},"ύ":{"ha":728,"x_min":0,"x_max":0,"o":"m 378 954 l 304 756 l 386 756 l 501 954 z m 500 672 b 544 399 515 638 544 524 b 367 86 544 206 483 86 b 214 272 293 86 214 138 l 214 546 b 194 672 214 619 207 657 l 78 672 b 93 446 90 635 93 563 l 93 256 b 357 -15 93 72 210 -15 b 664 410 600 -15 664 213 b 614 672 664 521 638 628 z "},"ϋ":{"ha":728,"x_min":0,"x_max":0,"o":"m 229 774 b 296 843 269 774 296 806 b 231 914 296 883 268 914 b 161 843 190 914 161 882 b 228 774 161 806 189 774 z m 485 774 b 553 843 525 774 553 806 b 485 914 553 883 524 914 b 417 843 446 914 417 882 b 483 774 417 806 443 774 z m 500 672 b 544 399 515 638 544 524 b 367 86 544 206 483 86 b 214 272 293 86 214 138 l 214 546 b 194 672 214 619 207 657 l 78 672 b 93 446 90 635 93 563 l 93 256 b 357 -15 93 72 210 -15 b 664 410 600 -15 664 213 b 614 672 664 521 638 628 z "},"ώ":{"ha":964,"x_min":0,"x_max":0,"o":"m 500 953 l 426 754 l 508 754 l 624 953 z m 539 504 l 424 504 l 426 239 b 315 86 426 154 378 86 b 172 346 251 86 172 158 b 283 678 172 489 221 610 l 283 681 l 171 681 b 53 343 111 622 53 494 b 299 -15 53 88 182 -15 b 476 104 381 -15 444 31 l 482 104 b 658 -15 510 31 575 -15 b 911 354 785 -15 911 104 b 796 681 911 508 856 631 l 681 681 l 681 678 b 792 357 746 615 792 489 b 651 86 792 176 721 86 b 536 240 585 86 536 153 z "},"ΐ":{"ha":328,"x_min":0,"x_max":0,"o":"m 224 672 l 101 672 l 101 150 b 226 -15 101 17 156 -15 b 282 -8 247 -15 268 -12 l 289 81 b 224 163 236 78 224 103 z m 149 967 l 118 750 l 183 750 l 253 967 z m 7 779 b 69 843 44 779 69 808 b 8 907 69 879 43 907 b -57 843 -28 907 -57 879 b 6 779 -57 808 -31 779 z m 343 779 b 406 843 381 779 406 808 b 343 907 406 879 379 907 b 279 843 307 907 279 879 b 342 779 279 808 306 779 z "},"ΰ":{"ha":728,"x_min":0,"x_max":0,"o":"m 500 672 b 544 399 515 638 544 524 b 367 86 544 206 483 86 b 214 272 293 86 214 138 l 214 546 b 194 672 214 619 207 657 l 78 672 b 93 446 90 635 93 563 l 93 256 b 357 -15 93 72 210 -15 b 664 410 600 -15 664 213 b 614 672 664 521 638 628 z m 336 967 l 307 749 l 372 749 l 440 967 z m 196 778 b 257 843 232 778 257 808 b 196 907 257 879 231 907 b 131 843 160 907 131 878 b 194 778 131 808 157 778 z m 531 778 b 594 843 569 778 594 808 b 532 907 594 879 568 907 b 468 843 496 907 468 878 b 529 778 468 808 494 778 z "},";":{"ha":301,"x_min":0,"x_max":0,"o":"m 126 -162 b 240 165 160 -97 215 57 l 104 158 b 42 -171 96 60 65 -89 z m 165 449 b 251 539 218 449 251 489 b 165 632 251 593 218 632 b 79 539 115 632 79 593 b 164 449 79 489 114 449 z "},"·":{"ha":301,"x_min":0,"x_max":0,"o":"m 150 349 b 239 443 204 349 239 390 b 151 538 239 499 204 538 b 63 443 99 538 63 499 b 149 349 61 390 99 349 z "},"΄":{"ha":418,"x_min":0,"x_max":0,"o":"m 190 964 l 117 765 l 197 765 l 314 964 z "},"΅":{"ha":481,"x_min":0,"x_max":0,"o":"m 213 986 l 182 768 l 249 768 l 317 986 z m 71 796 b 135 863 108 796 135 826 b 72 928 135 900 107 928 b 6 863 35 928 6 899 b 69 796 6 826 32 796 z m 407 796 b 471 863 446 796 471 826 b 407 928 471 900 444 928 b 342 863 371 928 342 899 b 406 796 342 826 368 796 z "},"":{"ha":418,"x_min":0,"x_max":0,"o":"m 33 796 b 100 864 72 796 100 825 b 35 933 100 903 72 933 b -33 864 -4 933 -33 901 b 32 796 -33 828 -6 796 z m 376 796 b 443 864 415 796 443 825 b 378 933 443 903 415 933 b 310 864 339 933 310 901 b 375 796 310 828 338 796 z m 210 974 l 103 775 l 183 775 l 338 974 z "},"":{"ha":418,"x_min":0,"x_max":0,"o":"m 39 796 b 106 864 78 796 106 825 b 40 933 106 903 78 933 b -28 864 3 933 -28 901 b 38 796 -28 828 0 796 z m 374 796 b 442 864 414 796 442 825 b 375 933 442 903 414 933 b 308 864 338 933 308 901 b 372 796 308 828 335 796 z m 78 974 l 233 775 l 313 775 l 206 974 z "},"":{"ha":417,"x_min":0,"x_max":0,"o":"m -3 951 l 158 756 l 236 756 l 124 951 z m 207 951 l 368 756 l 444 756 l 333 951 z "},"":{"ha":418,"x_min":0,"x_max":0,"o":"m 18 1001 b 85 1069 58 1001 85 1031 b 21 1138 85 1108 58 1138 b -46 1069 -17 1138 -46 1107 b 17 1001 -46 1032 -19 1001 z m 399 1001 b 467 1069 439 1001 467 1031 b 401 1138 467 1108 439 1138 b 335 1069 363 1138 335 1107 b 397 1001 335 1032 361 1001 z m 197 1150 l 85 988 l 178 988 l 339 1150 z "},"":{"ha":418,"x_min":0,"x_max":0,"o":"m 18 1001 b 85 1069 58 1001 85 1031 b 21 1138 85 1108 58 1138 b -46 1069 -18 1138 -46 1107 b 17 1001 -46 1032 -19 1001 z m 399 1001 b 465 1069 439 1001 465 1031 b 401 1138 465 1108 439 1138 b 335 1069 363 1138 335 1107 b 397 1001 335 1032 361 1001 z m 79 1150 l 240 988 l 333 988 l 221 1150 z "},"":{"ha":417,"x_min":0,"x_max":0,"o":"m -62 1150 l 115 988 l 208 988 l 81 1150 z m 179 1150 l 356 988 l 449 988 l 322 1150 z "},"А":{"ha":850,"x_min":0,"x_max":0,"o":"m 589 294 l 689 0 l 818 0 l 499 936 l 353 936 l 35 0 l 160 0 l 257 294 z m 282 389 l 374 660 b 421 829 392 717 407 774 l 424 829 b 472 658 438 775 451 719 l 564 389 z "},"Б":{"ha":758,"x_min":0,"x_max":0,"o":"m 106 936 l 106 3 b 294 -8 146 -3 210 -8 b 625 96 422 -8 549 21 b 703 299 674 144 703 211 b 583 528 703 408 654 482 b 342 590 518 571 431 590 b 226 583 311 590 256 588 l 226 835 l 631 835 l 631 936 z m 226 490 b 322 496 257 493 294 496 b 500 449 389 496 451 482 b 576 296 546 417 576 368 b 525 158 576 238 557 192 b 328 86 479 110 403 86 b 226 93 286 86 254 88 z "},"В":{"ha":753,"x_min":0,"x_max":0,"o":"m 106 3 b 293 -8 146 -3 210 -8 b 617 79 446 -8 551 19 b 696 267 664 125 696 186 b 503 501 696 406 592 479 l 503 504 b 661 710 601 540 661 619 b 583 875 661 783 632 839 b 326 943 525 922 447 943 b 106 924 242 943 158 935 z m 226 842 b 333 850 246 846 278 850 b 539 697 456 850 539 807 b 336 540 539 607 464 540 l 226 540 z m 226 449 l 326 449 b 568 268 458 449 568 396 b 328 86 568 132 453 86 b 226 92 285 86 250 88 z "},"Г":{"ha":601,"x_min":0,"x_max":0,"o":"m 106 936 l 106 0 l 226 0 l 226 835 l 603 835 l 603 936 z "},"Ґ":{"ha":621,"x_min":0,"x_max":0,"o":"m 106 936 l 106 0 l 226 0 l 226 835 l 607 835 l 622 1106 l 533 1106 l 511 936 z "},"Д":{"ha":875,"x_min":0,"x_max":0,"o":"m 222 936 l 222 699 b 178 304 222 538 210 413 b 86 99 156 231 121 163 l 15 96 l 24 -225 l 118 -225 l 126 0 l 717 0 l 725 -225 l 819 -225 l 828 96 l 746 99 l 746 936 z m 335 836 l 625 836 l 625 100 l 211 100 b 288 278 239 150 268 213 b 335 660 321 383 335 510 z "},"Е":{"ha":683,"x_min":0,"x_max":0,"o":"m 590 539 l 226 539 l 226 835 l 611 835 l 611 936 l 106 936 l 106 0 l 632 0 l 632 101 l 226 101 l 226 439 l 590 439 z "},"Ж":{"ha":1113,"x_min":0,"x_max":0,"o":"m 29 936 l 361 506 b 108 264 215 488 156 396 b 15 0 78 176 56 86 l 139 0 b 214 219 169 63 192 153 b 456 429 258 347 306 429 l 497 429 l 497 0 l 615 0 l 615 429 l 656 429 b 896 219 806 429 853 347 b 974 0 919 153 942 63 l 1097 0 b 1004 265 1058 86 1036 176 b 751 506 958 399 899 490 l 1083 936 l 942 936 l 653 521 l 615 521 l 615 936 l 497 936 l 497 521 l 461 521 l 171 936 z "},"З":{"ha":683,"x_min":0,"x_max":0,"o":"m 103 792 b 297 853 153 824 226 853 b 465 706 399 853 465 800 b 246 533 465 610 369 533 l 190 533 l 190 442 l 246 442 b 500 261 365 442 500 401 b 285 83 500 158 424 83 b 75 140 208 83 125 111 l 43 46 b 288 -15 114 3 203 -15 b 626 257 458 -15 626 63 b 399 492 626 392 531 478 l 399 494 b 592 722 508 519 592 607 b 317 951 592 867 479 951 b 69 881 215 951 133 922 z "},"И":{"ha":914,"x_min":0,"x_max":0,"o":"m 106 936 l 106 0 l 235 0 l 528 465 b 701 781 592 569 656 678 l 706 779 b 694 399 696 661 694 550 l 694 0 l 808 0 l 808 936 l 688 936 l 385 454 b 211 144 317 343 258 242 l 208 146 b 219 542 217 271 219 394 l 219 936 z "},"Й":{"ha":914,"x_min":0,"x_max":0,"o":"m 106 936 l 106 0 l 235 0 l 528 465 b 701 781 592 569 656 678 l 706 779 b 694 399 696 661 694 550 l 694 0 l 808 0 l 808 936 l 688 936 l 385 454 b 211 144 317 343 258 242 l 208 146 b 219 542 217 271 219 394 l 219 936 z m 279 1133 b 454 983 286 1042 340 983 b 635 1133 572 983 628 1040 l 542 1133 b 457 1046 536 1088 521 1046 b 372 1133 392 1046 378 1089 z "},"К":{"ha":753,"x_min":0,"x_max":0,"o":"m 106 936 l 106 0 l 225 0 l 225 429 l 264 429 b 525 221 422 429 482 344 b 610 0 550 147 576 64 l 740 0 b 638 265 699 83 672 169 b 375 507 589 392 529 486 l 729 936 l 583 936 l 263 521 l 225 521 l 225 936 z "},"Л":{"ha":825,"x_min":0,"x_max":0,"o":"m 171 936 l 171 542 b 89 136 171 392 164 210 b -10 86 67 114 28 93 l 6 -11 b 149 33 60 -11 114 11 b 289 551 281 122 289 349 l 289 835 l 599 835 l 599 0 l 721 0 l 721 936 z "},"М":{"ha":1117,"x_min":0,"x_max":0,"o":"m 918 0 l 1036 0 l 978 936 l 824 936 l 657 483 b 558 168 615 365 582 263 l 554 168 b 460 483 531 265 499 368 l 300 936 l 146 936 l 81 0 l 196 0 l 221 401 b 239 815 229 542 236 699 l 242 815 b 350 451 268 704 306 583 l 501 6 l 593 6 l 758 460 b 876 815 806 588 844 706 l 881 815 b 894 411 879 699 888 542 z "},"Н":{"ha":906,"x_min":0,"x_max":0,"o":"m 106 936 l 106 0 l 226 0 l 226 439 l 679 439 l 679 0 l 801 0 l 801 936 l 679 936 l 679 544 l 226 544 l 226 936 z "},"О":{"ha":957,"x_min":0,"x_max":0,"o":"m 485 951 b 50 460 235 951 50 757 b 471 -15 50 176 224 -15 b 906 478 710 -15 906 156 b 485 951 906 756 740 951 z m 479 853 b 778 472 681 853 778 658 b 478 83 778 260 669 83 b 179 463 288 83 179 263 b 479 853 179 668 279 853 z "},"П":{"ha":888,"x_min":0,"x_max":0,"o":"m 106 936 l 106 0 l 226 0 l 226 835 l 661 835 l 661 0 l 782 0 l 782 936 z "},"Р":{"ha":739,"x_min":0,"x_max":0,"o":"m 106 0 l 226 0 l 226 375 b 324 367 254 368 288 367 b 610 469 442 367 546 401 b 682 669 657 518 682 585 b 600 865 682 753 651 821 b 338 943 544 915 457 943 b 106 925 240 943 164 935 z m 226 838 b 340 847 247 843 288 847 b 561 664 474 847 561 788 b 326 464 561 535 472 464 b 226 474 286 464 253 467 z "},"С":{"ha":806,"x_min":0,"x_max":0,"o":"m 735 126 b 538 88 686 103 611 88 b 178 464 310 88 178 235 b 543 850 178 710 324 850 b 732 811 621 850 686 833 l 761 910 b 539 951 729 926 656 951 b 50 460 249 951 50 753 b 513 -15 50 153 249 -15 b 760 31 626 -15 715 8 z "},"Т":{"ha":690,"x_min":0,"x_max":0,"o":"m 283 0 l 406 0 l 406 833 l 692 833 l 692 936 l -1 936 l -1 833 l 283 833 z "},"У":{"ha":724,"x_min":0,"x_max":0,"o":"m 3 936 l 314 303 b 318 247 325 281 328 268 b 135 86 289 179 232 86 b 90 90 114 86 100 88 l 78 -8 b 146 -17 93 -14 115 -17 b 358 99 229 -17 297 22 b 533 454 424 185 482 328 l 729 936 l 601 936 l 456 539 b 397 371 432 474 414 418 l 394 371 b 326 536 372 425 350 481 l 140 936 z "},"Ф":{"ha":1007,"x_min":0,"x_max":0,"o":"m 447 974 l 447 890 b 50 463 267 879 50 769 b 444 50 50 167 249 63 l 444 -37 l 561 -37 l 561 50 b 957 468 760 61 957 174 b 563 890 957 763 760 882 l 563 974 z m 446 136 b 175 468 308 150 175 244 b 446 803 175 711 324 796 z m 561 803 b 832 469 696 796 832 710 b 561 136 832 238 696 147 z "},"Х":{"ha":793,"x_min":0,"x_max":0,"o":"m 758 0 l 467 481 l 751 936 l 613 936 l 485 717 b 400 558 450 657 426 614 l 396 558 b 310 717 371 608 344 656 l 186 936 l 46 936 l 321 474 l 35 0 l 174 0 l 286 206 b 388 392 335 288 361 338 l 390 392 b 499 207 419 338 450 286 l 618 0 z "},"Ц":{"ha":906,"x_min":0,"x_max":0,"o":"m 106 936 l 106 0 l 747 0 l 756 -225 l 851 -225 l 860 96 l 778 99 l 778 936 l 656 936 l 656 101 l 226 101 l 226 936 z "},"Ч":{"ha":829,"x_min":0,"x_max":0,"o":"m 99 936 l 99 618 b 375 336 99 389 251 336 b 600 394 457 336 535 357 l 603 394 l 603 -6 l 725 -6 l 725 936 l 603 936 l 603 489 b 418 435 554 458 483 435 b 219 636 286 435 219 508 l 219 936 z "},"Ш":{"ha":1176,"x_min":0,"x_max":0,"o":"m 106 936 l 106 0 l 1072 0 l 1072 936 l 951 936 l 951 101 l 649 101 l 649 936 l 529 936 l 529 101 l 225 101 l 225 936 z "},"Щ":{"ha":1200,"x_min":0,"x_max":0,"o":"m 106 936 l 106 0 l 1043 0 l 1050 -225 l 1146 -225 l 1154 96 l 1072 99 l 1072 936 l 951 936 l 951 101 l 649 101 l 649 936 l 529 936 l 529 101 l 225 101 l 225 936 z "}}}
